<?xml version="1.0" encoding="UTF-8" standalone="no"?><!DOCTYPE svg PUBLIC "-//W3C//DTD SVG 1.1//EN" "http://www.w3.org/Graphics/SVG/1.1/DTD/svg11.dtd"><svg width="100%" height="100%" viewBox="0 0 33 46" version="1.1" xmlns="http://www.w3.org/2000/svg" xmlns:xlink="http://www.w3.org/1999/xlink" xml:space="preserve" xmlns:serif="http://www.serif.com/" style="fill-rule:evenodd;clip-rule:evenodd;stroke-miterlimit:1.41421;"><rect id="Artboard1" x="-137.3" y="-786.24" width="460.8" height="1952" style="fill:none;"/><g id="Stopka"><g id="Social"></g><g id="Contact"></g><g id="Hot-links" serif:id="Hot links"></g></g><g id="Contact1" serif:id="Contact"><g id="Formularz"><g id="cta"></g></g></g><g id="PARTNERS"><g id="SMARTMAGE"></g></g><g id="PORTFOLIO"><g><g><g id="AG"></g></g><g><g id="Logo"></g></g></g><g id="Menu"><g id="Button"></g><g id="Button1" serif:id="Button"></g><g id="Button2" serif:id="Button"></g></g></g><g id="TECHNOLOGIES"><g id="Logotypes"><g id="Layer-1" serif:id="Layer 1"></g><g><g><path d="M8.408,1.975l1.77,0c0.06,0 0.11,-0.04 0.11,-0.1l0,-0.719l-1.88,0c-0.8,0 -1.459,0.649 -1.459,1.459l0,2.071c0,0.81 0.659,1.459 1.459,1.459l1.88,0l0,-0.719c0,-0.06 -0.05,-0.11 -0.11,-0.11l-1.77,0c-0.33,0 -0.59,-0.26 -0.59,-0.59l0,-2.151c0,-0.33 0.26,-0.6 0.59,-0.6Z" style="fill-rule:nonzero;stroke:#000;stroke-width:1px;"/><path d="M13.958,3.46l3.141,0.772c0.05,0.01 0.09,0.05 0.09,0.101l0,0.471c0,0.331 -0.29,0.522 -0.62,0.522l-2.72,0c-0.06,0 -0.11,0.05 -0.11,0.11l0,0.709l2.83,0c0.81,0 1.429,-0.47 1.429,-1.341l0,-0.893c0,-0.16 -0.11,-0.301 -0.27,-0.331l-3.09,-0.732c-0.05,-0.02 -0.09,-0.061 -0.09,-0.111l0,-0.291c0,-0.331 0.17,-0.491 0.5,-0.491l2.63,0c0.06,0 0.11,-0.05 0.11,-0.11l0,-0.709l-2.74,0c-0.81,0 -1.369,0.509 -1.369,1.32l0,0.673c0,0.16 0.12,0.301 0.279,0.331Z" style="fill-rule:nonzero;stroke:#000;stroke-width:1px;"/><path d="M21.758,3.46l3.141,0.772c0.05,0.01 0.09,0.05 0.09,0.101l0,0.471c0,0.331 -0.29,0.522 -0.62,0.522l-2.72,0c-0.06,0 -0.11,0.05 -0.11,0.11l0,0.709l2.83,0c0.81,0 1.429,-0.47 1.429,-1.341l0,-0.893c0,-0.16 -0.11,-0.301 -0.27,-0.331l-3.09,-0.732c-0.05,-0.02 -0.09,-0.061 -0.09,-0.111l0,-0.291c0,-0.331 0.17,-0.491 0.5,-0.491l2.63,0c0.06,0 0.11,-0.05 0.11,-0.11l0,-0.709l-2.74,0c-0.81,0 -1.369,0.509 -1.369,1.32l0,0.673c0,0.16 0.12,0.301 0.279,0.331Z" style="fill-rule:nonzero;stroke:#000;stroke-width:1px;"/></g><path d="M3.285,41.821l-2.912,-32.663l32,0l-2.915,32.658l-13.104,3.633l-13.069,-3.628Z" style="fill-rule:nonzero;"/><path d="M16.373,24.345c0.039,-0.02 3.262,-0.051 4.833,-0.022c0.49,0.009 0.534,-0.257 0.547,-0.636c0.08,-2.267 0.188,-4.531 0.251,-6.798c0.014,-0.512 0.143,-0.715 0.689,-0.698c1.185,0.039 2.372,0.012 3.671,0.012c-0.065,0.918 -0.115,1.757 -0.185,2.595c-0.476,5.727 -0.963,11.453 -1.425,17.18c-0.037,0.46 -0.199,0.672 -0.625,0.802c-0.902,0.276 -1.789,0.6 -2.683,0.898c-0.183,0.06 -0.375,0.094 -0.687,0.17c0.146,-3.201 0.287,-6.304 0.432,-9.476c-1.609,0 -4.773,-0.034 -4.814,-0.052c-0.001,-1.325 -0.002,-2.65 -0.004,-3.975Z" style="fill:#fcfdfe;"/><path d="M16.373,24.345c0.001,1.326 0.002,2.651 0.004,3.976c-2.985,0 -5.97,0 -9.043,0c-0.351,-4.017 -0.7,-8.012 -1.055,-12.069c1.383,0 2.716,0 4.136,0c0.09,0.992 0.185,1.99 0.271,2.988c0.129,1.477 0.281,2.954 0.364,4.434c0.03,0.549 0.241,0.658 0.739,0.652c1.528,-0.02 3.056,0.009 4.584,0.019Z" style="fill:#e9eaea;"/></g></g></g><g id="MEET-OUR-TEAM" serif:id="MEET OUR TEAM"><g id="cta1" serif:id="cta"></g></g><g id="WHAT-WE-ARE-DOING" serif:id="WHAT WE ARE DOING"><g><g id="WHAT-WE-ARE-DOING1" serif:id="WHAT WE ARE DOING"></g></g></g><g id="Opis"></g><g id="Head"><g id="cta2" serif:id="cta"></g><g id="Menu-rozwinięte" serif:id="Menu rozwinięte"><g id="Button3" serif:id="Button"></g><g id="Button4" serif:id="Button"></g><g id="Button5" serif:id="Button"></g><g id="Button6" serif:id="Button"></g><g id="Button7" serif:id="Button"></g><g id="Button8" serif:id="Button"></g></g><g id="webo"></g></g></svg>