<?xml version="1.0" encoding="UTF-8" standalone="no"?><!DOCTYPE svg PUBLIC "-//W3C//DTD SVG 1.1//EN" "http://www.w3.org/Graphics/SVG/1.1/DTD/svg11.dtd"><svg width="100%" height="100%" viewBox="0 0 33 46" version="1.1" xmlns="http://www.w3.org/2000/svg" xmlns:xlink="http://www.w3.org/1999/xlink" xml:space="preserve" xmlns:serif="http://www.serif.com/" style="fill-rule:evenodd;clip-rule:evenodd;stroke-linejoin:round;stroke-miterlimit:1.41421;"><rect id="Artboard1" x="-75.62" y="-786.24" width="460.8" height="1952" style="fill:none;"/><g id="Stopka"><g id="Social"></g><g id="Contact"></g><g id="Hot-links" serif:id="Hot links"></g></g><g id="Contact1" serif:id="Contact"><g id="Formularz"><g id="cta"></g></g></g><g id="PARTNERS"><g id="SMARTMAGE"></g></g><g id="PORTFOLIO"><g><g><g id="AG"></g></g><g><g id="Logo"></g></g></g><g id="Menu"><g id="Button"></g><g id="Button1" serif:id="Button"></g><g id="Button2" serif:id="Button"></g></g></g><g id="TECHNOLOGIES"><g id="Logotypes"><g id="Layer-1" serif:id="Layer 1"></g><g><path d="M3.335,41.821l-2.912,-32.663l32,0l-2.916,32.658l-13.104,3.633l-13.068,-3.628Z" style="fill-rule:nonzero;"/><path d="M16.423,42.672l10.588,-2.935l2.492,-27.909l-13.08,0l0,30.844Z" style="fill-rule:nonzero;"/><g><path d="M16.423,23.943l-5.302,0l-0.366,-4.102l5.668,0l0,-4.007l-0.014,0l-10.032,0l0.096,1.075l0.985,11.04l8.965,0l0,-4.006Z" style="fill:#ebebeb;fill-rule:nonzero;"/><path d="M16.423,34.347l-0.018,0.005l-4.462,-1.205l-0.285,-3.195l-2.168,0l-1.853,0l0.561,6.29l8.206,2.278l0.019,-0.005l0,-4.168Z" style="fill:#ebebeb;fill-rule:nonzero;"/></g><g><path d="M3.4,0.281l2.036,0l0,2.011l1.862,0l0,-2.011l2.036,0l0,6.091l-2.036,0l0,-2.04l-1.862,0l0,2.04l-2.036,0l0,-6.091l0,0Z" style="fill-rule:nonzero;"/><path d="M12.011,2.301l-1.792,0l0,-2.02l5.621,0l0,2.02l-1.793,0l0,4.071l-2.036,0l0,-4.071l0,0Z" style="fill-rule:nonzero;"/><path d="M16.732,0.281l2.123,0l1.306,2.14l1.304,-2.14l2.124,0l0,6.091l-2.027,0l0,-3.019l-1.401,2.166l-0.035,0l-1.402,-2.166l0,3.019l-1.992,0l0,-6.091Z" style="fill-rule:nonzero;"/><path d="M24.602,0.281l2.037,0l0,4.078l2.863,0l0,2.013l-4.9,0l0,-6.091Z" style="fill-rule:nonzero;"/></g><g><path d="M16.409,23.943l0,4.006l4.933,0l-0.465,5.195l-4.468,1.206l0,4.168l8.212,-2.276l0.061,-0.677l0.941,-10.546l0.098,-1.076l-1.08,0l-8.232,0Z" style="fill:#fff;fill-rule:nonzero;"/><path d="M16.409,15.834l0,4.007l9.676,0l0.081,-0.901l0.182,-2.031l0.096,-1.075l-10.035,0Z" style="fill:#fff;fill-rule:nonzero;"/></g></g></g></g><g id="MEET-OUR-TEAM" serif:id="MEET OUR TEAM"><g id="cta1" serif:id="cta"></g></g><g id="WHAT-WE-ARE-DOING" serif:id="WHAT WE ARE DOING"><g><g id="WHAT-WE-ARE-DOING1" serif:id="WHAT WE ARE DOING"></g></g></g><g id="Opis"></g><g id="Head"><g id="cta2" serif:id="cta"></g><g id="Menu-rozwinięte" serif:id="Menu rozwinięte"><g id="Button3" serif:id="Button"></g><g id="Button4" serif:id="Button"></g><g id="Button5" serif:id="Button"></g><g id="Button6" serif:id="Button"></g><g id="Button7" serif:id="Button"></g><g id="Button8" serif:id="Button"></g></g><g id="webo"></g></g></svg>