<?xml version="1.0" encoding="UTF-8" standalone="no"?><!DOCTYPE svg PUBLIC "-//W3C//DTD SVG 1.1//EN" "http://www.w3.org/Graphics/SVG/1.1/DTD/svg11.dtd"><svg width="100%" height="100%" viewBox="0 0 104 26" version="1.1" xmlns="http://www.w3.org/2000/svg" xmlns:xlink="http://www.w3.org/1999/xlink" xml:space="preserve" xmlns:serif="http://www.serif.com/" style="fill-rule:evenodd;clip-rule:evenodd;stroke-linejoin:round;stroke-miterlimit:1.41421;"><rect id="Artboard1" x="-302.18" y="-1214.88" width="460.8" height="1952" style="fill:none;"/><g id="Stopka"><g id="Social"></g><g id="Contact"></g><g id="Hot-links" serif:id="Hot links"></g></g><g id="Contact1" serif:id="Contact"><g id="Formularz"><g id="cta"></g></g></g><g id="PARTNERS"><g id="SMARTMAGE"></g><g><path d="M13.269,1.244c0.29,0.056 0.579,0.116 0.87,0.167c4.606,0.812 8.219,4.465 8.984,9.085c0.99,5.978 -2.895,11.62 -8.842,12.752c-6.543,1.246 -12.251,-3.335 -13.076,-9.298c-0.022,-0.158 -0.073,-0.313 -0.11,-0.469c0,-0.711 0,-1.423 0,-2.134c0.037,-0.2 0.081,-0.4 0.11,-0.602c0.678,-4.649 4.118,-8.31 8.725,-9.28c0.36,-0.076 0.72,-0.148 1.081,-0.221c0.752,0 1.505,0 2.258,0Zm-5.22,9.541c-0.699,-0.046 -1.348,0.019 -1.94,0.369c-1.738,1.026 -2.229,3.48 -1.009,5.092c0.601,0.795 1.39,1.257 2.409,1.251c0.607,-0.003 1.077,-0.42 1.101,-0.94c0.022,-0.463 -0.224,-0.906 -0.953,-0.893c-0.41,0.008 -0.737,-0.231 -0.939,-0.594c-0.347,-0.623 -0.351,-1.261 0.002,-1.881c0.265,-0.464 0.694,-0.655 1.216,-0.616c0.766,0.056 1.289,0.676 1.298,1.536c0.008,0.816 -0.004,1.632 0.004,2.447c0.005,0.476 0.268,0.782 0.733,0.883c0.741,0.162 1.287,-0.27 1.29,-1.029c0.004,-1.046 -0.004,-2.092 0.006,-3.138c0.001,-0.194 0.038,-0.395 0.097,-0.581c0.084,-0.262 0.28,-0.41 0.566,-0.412c0.287,-0.001 0.491,0.148 0.569,0.408c0.067,0.226 0.096,0.471 0.097,0.708c0.008,1.809 0.001,3.619 0.007,5.428c0.002,0.636 0.398,1.043 1.01,1.031c0.554,-0.011 1.037,-0.324 1.025,-1.043c-0.026,-1.485 -0.009,-2.971 -0.007,-4.456c0,-0.167 0.003,-0.335 0.022,-0.5c0.083,-0.716 0.571,-1.213 1.249,-1.279c0.656,-0.065 1.192,0.296 1.403,0.957c0.298,0.935 -0.122,2.191 -1.355,2.165c-0.414,-0.009 -0.66,0.293 -0.687,0.711c-0.029,0.454 0.146,0.761 0.561,0.956c0.547,0.258 1.089,0.14 1.609,-0.075c1.547,-0.641 2.174,-2.224 1.951,-3.67c-0.24,-1.553 -1.26,-2.598 -2.675,-2.815c-0.28,-0.042 -0.572,-0.006 -0.919,-0.006c0.524,-1.046 0.668,-2.072 0.398,-3.136c-0.269,-1.062 -0.854,-1.92 -1.758,-2.549c-1.556,-1.084 -3.664,-1.025 -5.159,0.108c-1.272,0.966 -2.395,3.106 -1.222,5.563Zm8.95,-5.364c0,0.433 -0.004,0.847 0.005,1.261c0,0.006 0.204,-0.013 0.204,-0.015c0.014,-0.121 0.005,-0.246 0.005,-0.367c0.526,-0.061 0.723,-0.228 0.675,-0.557c-0.046,-0.306 -0.296,-0.404 -0.889,-0.322Zm1.123,-0.005c0,0.48 0,0.942 0,1.404c0.037,0.006 0.186,0.011 0.223,0.016c0.001,-0.004 -0.006,-0.361 -0.014,-0.538c0.517,-0.072 0.707,-0.229 0.663,-0.547c-0.042,-0.306 -0.282,-0.402 -0.872,-0.335Z" style="fill:#404040;"/><path d="M101.501,13.983c-0.292,0.419 -0.667,0.488 -0.901,0.149c-0.076,-0.11 -0.104,-0.271 -0.105,-0.409c-0.007,-1.24 0,-2.48 -0.007,-3.72c-0.002,-0.28 0.027,-0.527 0.331,-0.635c0.309,-0.109 0.509,0.061 0.682,0.286c0,1.443 0,2.886 0,4.329Z" style="fill:#404040;"/><path d="M55.606,16.927c-0.199,0.33 -0.518,0.571 -1.011,0.524c-0.487,-0.046 -0.836,-0.347 -0.921,-0.834c-0.018,-0.102 -0.029,-0.207 -0.029,-0.311c-0.007,-2.497 -0.014,-4.996 -0.016,-7.494c-0.001,-0.839 0.666,-1.306 1.444,-1.021c0.399,0.146 0.62,0.472 0.624,0.955c0.008,0.731 0.002,1.463 0.002,2.244c0.104,-0.05 0.179,-0.092 0.258,-0.125c1.125,-0.461 2.246,-0.47 3.247,0.255c1.07,0.776 1.421,1.925 1.35,3.204c-0.046,0.825 -0.358,1.558 -0.899,2.192c-0.792,0.93 -1.804,1.217 -2.96,0.956c-0.379,-0.086 -0.716,-0.353 -1.089,-0.545Zm2.939,-2.917c-0.083,-0.299 -0.126,-0.616 -0.256,-0.893c-0.423,-0.903 -1.714,-0.988 -2.282,-0.166c-0.394,0.57 -0.401,1.487 -0.015,2.079c0.499,0.764 1.539,0.843 2.112,0.158c0.282,-0.336 0.393,-0.731 0.441,-1.178Z" style="fill:#404040;"/><path d="M40.327,12.846c0.598,-0.58 1.195,-1.161 1.793,-1.74c0.295,-0.285 0.624,-0.493 1.059,-0.449c0.379,0.039 0.684,0.193 0.836,0.563c0.15,0.364 0.034,0.673 -0.218,0.948c-0.472,0.517 -0.944,1.034 -1.441,1.58c0.54,0.652 1.155,1.402 1.779,2.144c0.383,0.455 0.437,0.891 0.134,1.235c-0.328,0.371 -1.038,0.478 -1.437,0.181c-0.232,-0.172 -0.433,-0.394 -0.618,-0.617c-0.645,-0.777 -1.277,-1.564 -1.968,-2.413c0,0.764 0.007,1.448 -0.002,2.132c-0.008,0.662 -0.456,1.093 -1.09,1.068c-0.536,-0.022 -0.958,-0.426 -0.96,-0.964c-0.011,-2.572 -0.018,-5.144 -0.014,-7.717c0.001,-0.623 0.45,-1.043 1.055,-1.035c0.608,0.008 1.013,0.431 1.015,1.073c0.003,1.326 0.001,2.652 0.001,3.978c0.026,0.011 0.051,0.022 0.076,0.033Z" style="fill:#404040;"/><path d="M68.498,14.852c0,0.554 0.002,1.108 -0.001,1.662c-0.003,0.606 -0.373,0.985 -0.993,1.021c-0.594,0.036 -1.078,-0.328 -1.103,-0.901c-0.035,-0.802 0.008,-1.609 -0.028,-2.413c-0.016,-0.366 -0.078,-0.755 -0.228,-1.084c-0.241,-0.527 -0.726,-0.72 -1.298,-0.696c-0.56,0.023 -0.946,0.303 -1.166,0.807c-0.215,0.49 -0.227,0.999 -0.045,1.5c0.211,0.574 0.626,0.895 1.249,0.932c0.49,0.029 0.736,0.201 0.828,0.569c0.118,0.471 -0.036,0.87 -0.425,1.116c-0.38,0.242 -0.795,0.245 -1.213,0.165c-1.484,-0.282 -2.526,-1.507 -2.67,-3.153c-0.067,-0.77 0.099,-1.495 0.481,-2.168c0.628,-1.103 1.619,-1.575 2.846,-1.659c1.308,-0.09 2.447,0.224 3.281,1.308c0.321,0.419 0.491,0.892 0.487,1.425c-0.005,0.523 -0.002,1.046 -0.002,1.569Z" style="fill:#404040;"/><path d="M77.767,17.528c-2.256,0.03 -3.48,-1.712 -3.411,-3.634c0.065,-1.809 1.307,-3.371 3.44,-3.329c2.237,0.045 3.425,1.771 3.354,3.616c-0.076,1.956 -1.579,3.424 -3.383,3.347Zm1.351,-3.576c-0.032,-0.142 -0.063,-0.425 -0.159,-0.686c-0.182,-0.497 -0.561,-0.763 -1.09,-0.806c-0.551,-0.045 -0.979,0.156 -1.253,0.648c-0.371,0.665 -0.29,1.598 0.198,2.175c0.244,0.29 0.556,0.404 0.944,0.38c0.95,-0.058 1.316,-0.743 1.36,-1.711Z" style="fill:#404040;"/><path d="M32.439,11.226c0.948,-0.809 1.989,-0.888 3.087,-0.445c0.811,0.327 1.208,0.974 1.225,1.836c0.025,1.275 0.028,2.55 0.03,3.826c0.002,0.612 -0.421,1.039 -1.009,1.051c-0.618,0.012 -1.076,-0.42 -1.083,-1.053c-0.011,-1.014 0.003,-2.029 -0.005,-3.043c-0.005,-0.834 -0.622,-1.312 -1.426,-1.121c-0.476,0.114 -0.792,0.563 -0.794,1.142c-0.003,1.004 0,2.008 -0.001,3.012c-0.001,0.622 -0.402,1.057 -0.98,1.07c-0.622,0.014 -1.085,-0.404 -1.09,-1.038c-0.014,-1.601 -0.009,-3.201 -0.004,-4.8c0.002,-0.412 0.272,-0.777 0.646,-0.918c0.408,-0.152 0.96,-0.042 1.224,0.249c0.063,0.068 0.115,0.147 0.18,0.232Z" style="fill:#404040;"/><path d="M52.107,13.439c0,0.481 -0.005,0.962 0.001,1.443c0.016,1.217 -0.556,2.067 -1.709,2.455c-1.166,0.391 -2.324,0.367 -3.438,-0.198c-0.824,-0.418 -1.225,-1.12 -1.24,-2.028c-0.018,-1.15 -0.01,-2.301 -0.002,-3.451c0.004,-0.596 0.423,-1.004 1.011,-1.01c0.616,-0.007 1.038,0.384 1.045,1.002c0.013,1.003 0.008,2.007 0.011,3.011c0.002,0.676 0.447,1.103 1.135,1.092c0.678,-0.011 1.113,-0.466 1.106,-1.133c-0.011,-0.983 -0.022,-1.966 -0.006,-2.948c0.011,-0.655 0.426,-1.039 1.05,-1.027c0.617,0.011 1.013,0.425 1.02,1.067c0.001,0.094 0.001,0.188 0.001,0.282c0,0.481 0,0.962 0,1.444c0.004,-0.001 0.01,-0.001 0.015,-0.001Z" style="fill:#404040;"/><path d="M90.627,14.296c0.291,-0.654 0.549,-1.232 0.803,-1.813c0.155,-0.354 0.295,-0.714 0.456,-1.066c0.286,-0.622 0.793,-0.854 1.375,-0.643c0.444,0.162 0.69,0.573 0.601,1.04c-0.036,0.193 -0.09,0.387 -0.17,0.566c-0.919,2.056 -1.844,4.109 -2.768,6.163c-0.322,0.715 -0.82,0.984 -1.427,0.773c-0.548,-0.19 -0.737,-0.598 -0.527,-1.131c0.161,-0.408 0.338,-0.81 0.472,-1.227c0.052,-0.161 0.063,-0.377 -0.001,-0.528c-0.607,-1.418 -1.241,-2.827 -1.852,-4.244c-0.092,-0.212 -0.164,-0.458 -0.154,-0.685c0.02,-0.422 0.324,-0.69 0.779,-0.77c0.501,-0.089 0.955,0.108 1.161,0.542c0.192,0.405 0.348,0.827 0.519,1.242c0.234,0.569 0.468,1.137 0.733,1.781Z" style="fill:#404040;"/><path d="M70.597,12.505c-1.091,-0.117 -1.32,-0.293 -1.306,-0.972c0.013,-0.597 0.318,-0.814 1.285,-0.896c0,-0.388 -0.003,-0.779 0,-1.169c0.007,-0.726 0.391,-1.098 1.114,-1.085c0.581,0.01 0.958,0.38 0.97,0.965c0.009,0.426 0.002,0.853 0.002,1.309c0.257,0 0.485,-0.007 0.713,0.002c0.581,0.022 0.892,0.32 0.908,0.86c0.015,0.539 -0.307,0.895 -0.873,0.942c-0.226,0.018 -0.457,0.003 -0.719,0.003c-0.008,0.144 -0.019,0.253 -0.019,0.363c-0.004,1.213 -0.001,2.426 -0.012,3.638c-0.005,0.647 -0.418,1.07 -1.016,1.071c-0.645,0 -1.044,-0.418 -1.046,-1.105c-0.003,-1.192 0,-2.384 0,-3.576c-0.001,-0.112 -0.001,-0.225 -0.001,-0.35Z" style="fill:#404040;"/><path d="M84.448,11.293c0.372,-0.411 0.795,-0.674 1.336,-0.718c0.51,-0.041 0.912,0.231 1.06,0.734c0.147,0.5 -0.016,0.86 -0.526,1.084c-0.314,0.138 -0.646,0.236 -0.972,0.347c-0.659,0.223 -0.906,0.557 -0.908,1.252c-0.003,0.815 0.001,1.629 -0.001,2.445c-0.002,0.624 -0.392,1.024 -1.007,1.039c-0.596,0.014 -1.014,-0.367 -1.021,-0.986c-0.017,-1.588 -0.019,-3.176 -0.016,-4.764c0.001,-0.452 0.258,-0.793 0.658,-0.934c0.426,-0.15 0.973,-0.024 1.243,0.289c0.046,0.055 0.085,0.116 0.154,0.212Z" style="fill:#404040;"/><path d="M26.592,14.046c0,-0.805 -0.002,-1.61 0,-2.414c0.002,-0.593 0.355,-0.992 0.91,-1.036c0.565,-0.046 1.01,0.309 1.103,0.88c0.013,0.082 0.026,0.166 0.026,0.249c0.001,1.567 0.004,3.134 -0.001,4.701c-0.001,0.462 -0.263,0.836 -0.655,0.975c-0.421,0.15 -0.907,0.044 -1.16,-0.312c-0.124,-0.174 -0.207,-0.416 -0.214,-0.63c-0.024,-0.803 -0.009,-1.609 -0.009,-2.413Z" style="fill:#404040;"/><path d="M96.096,13.513c0,-0.46 0.01,-0.921 -0.003,-1.381c-0.013,-0.479 0.185,-0.847 0.548,-1.14c0.661,-0.535 1.93,-0.555 2.577,-0.016c0.643,0.536 0.832,1.247 0.628,2.038c-0.184,0.709 -0.636,1.193 -1.391,1.315c-0.167,0.027 -0.356,0.009 -0.518,-0.042c-0.252,-0.079 -0.397,-0.272 -0.366,-0.55c0.032,-0.287 0.215,-0.396 0.494,-0.422c0.473,-0.045 0.716,-0.396 0.684,-0.946c-0.027,-0.453 -0.332,-0.769 -0.746,-0.77c-0.459,-0.001 -0.769,0.388 -0.761,0.924c0.012,0.846 0.016,1.692 0.012,2.538c-0.002,0.402 -0.197,0.604 -0.552,0.614c-0.37,0.01 -0.596,-0.189 -0.603,-0.563c-0.01,-0.533 -0.003,-1.066 -0.003,-1.599Z" style="fill:#404040;"/><path d="M28.826,9.118c-0.002,0.627 -0.576,1.175 -1.229,1.17c-0.672,-0.005 -1.221,-0.537 -1.213,-1.179c0.007,-0.63 0.547,-1.141 1.21,-1.146c0.682,-0.005 1.235,0.514 1.232,1.155Z" style="fill:#404040;"/><path d="M94.691,13.154c0.384,-0.001 0.654,0.254 0.645,0.609c-0.007,0.32 -0.305,0.598 -0.642,0.599c-0.352,0 -0.652,-0.289 -0.646,-0.625c0.006,-0.336 0.279,-0.582 0.643,-0.583Z" style="fill:#404040;"/><path d="M14.161,8.727c-0.007,1.227 -1.025,2.236 -2.243,2.225c-1.225,-0.012 -2.233,-1.035 -2.22,-2.254c0.013,-1.233 1.036,-2.244 2.249,-2.222c1.245,0.024 2.221,1.015 2.214,2.251Z" style="fill:#404040;"/><path d="M17.229,6.117c0,-0.204 0,-0.364 0,-0.537c0.217,-0.036 0.414,-0.022 0.434,0.222c0.022,0.268 -0.189,0.3 -0.434,0.315Z" style="fill:#404040;"/><path d="M18.345,6.117c0,-0.204 0,-0.364 0,-0.537c0.217,-0.036 0.414,-0.022 0.434,0.222c0.022,0.268 -0.189,0.3 -0.434,0.315Z" style="fill:#404040;"/></g></g><g id="PORTFOLIO"><g><g><g id="AG"></g></g><g><g id="Logo"></g></g></g><g id="Menu"><g id="Button"></g><g id="Button1" serif:id="Button"></g><g id="Button2" serif:id="Button"></g></g></g><g id="TECHNOLOGIES"><g id="Logotypes"><g id="Layer-1" serif:id="Layer 1"></g></g></g><g id="MEET-OUR-TEAM" serif:id="MEET OUR TEAM"><g id="cta1" serif:id="cta"></g></g><g id="WHAT-WE-ARE-DOING" serif:id="WHAT WE ARE DOING"><g><g id="WHAT-WE-ARE-DOING1" serif:id="WHAT WE ARE DOING"></g></g></g><g id="Opis"></g><g id="Head"><g id="cta2" serif:id="cta"></g><g id="Menu-rozwinięte" serif:id="Menu rozwinięte"><g id="Button3" serif:id="Button"></g><g id="Button4" serif:id="Button"></g><g id="Button5" serif:id="Button"></g><g id="Button6" serif:id="Button"></g><g id="Button7" serif:id="Button"></g><g id="Button8" serif:id="Button"></g></g><g id="webo"></g></g></svg>