<?xml version="1.0" encoding="UTF-8" standalone="no"?><!DOCTYPE svg PUBLIC "-//W3C//DTD SVG 1.1//EN" "http://www.w3.org/Graphics/SVG/1.1/DTD/svg11.dtd"><svg width="100%" height="100%" viewBox="0 0 29 54" version="1.1" xmlns="http://www.w3.org/2000/svg" xmlns:xlink="http://www.w3.org/1999/xlink" xml:space="preserve" xmlns:serif="http://www.serif.com/" style="fill-rule:evenodd;clip-rule:evenodd;stroke-linejoin:round;stroke-miterlimit:1.41421;"><rect id="Artboard1" x="-292.1" y="-778.8" width="460.8" height="1952" style="fill:none;"/><g id="Stopka"><g id="Social"></g><g id="Contact"></g><g id="Hot-links" serif:id="Hot links"></g></g><g id="Contact1" serif:id="Contact"><g id="Formularz"><g id="cta"></g></g></g><g id="PARTNERS"><g id="SMARTMAGE"></g></g><g id="PORTFOLIO"><g><g><g id="AG"></g></g><g><g id="Logo"></g></g></g><g id="Menu"><g id="Button"></g><g id="Button1" serif:id="Button"></g><g id="Button2" serif:id="Button"></g></g></g><g id="TECHNOLOGIES"><g id="Logotypes"><g id="Layer-1" serif:id="Layer 1"><path d="M27.671,40.407l-0.003,0l-0.191,0.509l-0.087,0l-0.189,-0.509l-0.002,0l0,0.509l-0.127,0l0,-0.644l0.186,0l0.176,0.456l0.174,-0.456l0.186,0l0,0.644l-0.123,0l0,-0.509l0,0Zm-1.032,-0.028l-0.192,0l0,-0.107l0.517,0l0,0.107l-0.191,0l0,0.537l-0.134,0l0,-0.537Z" style="fill-rule:nonzero;"/><path d="M9.436,27.213c0,0 -1.337,0.777 0.952,1.04c2.772,0.317 4.189,0.272 7.244,-0.307c0,0 0.804,0.504 1.925,0.94c-6.848,2.935 -15.5,-0.17 -10.121,-1.673" style="fill-rule:nonzero;"/><path d="M8.599,23.382c0,0 -1.499,1.11 0.791,1.347c2.962,0.306 5.3,0.331 9.347,-0.448c0,0 0.56,0.567 1.441,0.877c-8.281,2.422 -17.505,0.191 -11.579,-1.776" style="fill-rule:nonzero;"/><path d="M15.655,16.885c1.687,1.943 -0.444,3.691 -0.444,3.691c0,0 4.285,-2.212 2.318,-4.982c-1.838,-2.583 -3.248,-3.867 4.383,-8.292c0,0 -11.978,2.991 -6.257,9.583" style="fill-rule:nonzero;"/><path d="M24.713,30.046c0,0 0.989,0.815 -1.089,1.446c-3.954,1.198 -16.455,1.559 -19.927,0.048c-1.249,-0.543 1.092,-1.297 1.829,-1.455c0.768,-0.167 1.207,-0.136 1.207,-0.136c-1.389,-0.977 -8.974,1.921 -3.853,2.751c13.964,2.264 25.455,-1.02 21.833,-2.654" style="fill-rule:nonzero;"/><path d="M10.079,19.414c0,0 -6.359,1.51 -2.252,2.058c1.735,0.232 5.191,0.18 8.411,-0.09c2.632,-0.222 5.274,-0.694 5.274,-0.694c0,0 -0.928,0.398 -1.599,0.856c-6.457,1.698 -18.931,0.908 -15.34,-0.829c3.037,-1.468 5.506,-1.301 5.506,-1.301" style="fill-rule:nonzero;"/><path d="M21.486,25.79c6.564,-3.411 3.529,-6.689 1.411,-6.247c-0.519,0.108 -0.751,0.201 -0.751,0.201c0,0 0.193,-0.302 0.561,-0.432c4.191,-1.474 7.414,4.345 -1.353,6.65c0,0 0.102,-0.091 0.132,-0.172" style="fill-rule:nonzero;"/><path d="M17.529,0.156c0,0 3.635,3.636 -3.448,9.228c-5.68,4.486 -1.296,7.044 -0.003,9.966c-3.315,-2.992 -5.748,-5.625 -4.116,-8.076c2.396,-3.598 9.033,-5.342 7.567,-11.118" style="fill-rule:nonzero;"/><path d="M10.724,35.033c6.301,0.403 15.976,-0.224 16.205,-3.206c0,0 -0.44,1.13 -5.207,2.028c-5.377,1.012 -12.01,0.894 -15.944,0.245c0,0 0.805,0.667 4.946,0.933" style="fill-rule:nonzero;"/><path d="M11.332,48.275l0,-5.728c0,-1.464 -0.835,-2.429 -2.847,-2.429c-1.175,0 -2.204,0.29 -3.04,0.66l0.241,1.014c0.659,-0.242 1.511,-0.467 2.348,-0.467c1.159,0 1.658,0.467 1.658,1.432l0,0.724l-0.579,0c-2.816,0 -4.087,1.093 -4.087,2.734c0,1.416 0.838,2.221 2.414,2.221c1.013,0 1.769,-0.419 2.477,-1.031l0.128,0.87l1.287,0l0,0Zm-1.64,-1.851c-0.595,0.516 -1.222,0.805 -1.786,0.805c-0.804,0 -1.238,-0.482 -1.238,-1.255c0,-0.837 0.465,-1.449 2.333,-1.449l0.691,0l0,1.899" style="fill-rule:nonzero;"/><path d="M16.805,48.275l-2.045,0l-2.462,-8.012l1.786,0l1.528,4.922l0.339,1.481c0.773,-2.141 1.32,-4.312 1.593,-6.403l1.738,0c-0.466,2.638 -1.304,5.534 -2.477,8.012" style="fill-rule:nonzero;"/><path d="M26.292,48.275l0,-5.728c0,-1.464 -0.836,-2.429 -2.846,-2.429c-1.176,0 -2.205,0.29 -3.041,0.66l0.241,1.014c0.659,-0.242 1.513,-0.467 2.349,-0.467c1.158,0 1.657,0.467 1.657,1.432l0,0.724l-0.579,0c-2.817,0 -4.087,1.093 -4.087,2.734c0,1.416 0.836,2.221 2.413,2.221c1.013,0 1.769,-0.419 2.478,-1.031l0.128,0.87l1.287,0l0,0Zm-1.64,-1.851c-0.595,0.516 -1.224,0.805 -1.787,0.805c-0.803,0 -1.239,-0.482 -1.239,-1.255c0,-0.837 0.467,-1.449 2.334,-1.449l0.692,0l0,1.899" style="fill-rule:nonzero;"/><path d="M3.228,49.635c-0.467,0.683 -1.223,1.223 -2.049,1.529l-0.81,-0.953c0.629,-0.323 1.169,-0.845 1.42,-1.331c0.216,-0.431 0.306,-0.988 0.306,-2.32l0,-9.146l1.743,0l0,9.021c0,1.78 -0.143,2.499 -0.61,3.2" style="fill-rule:nonzero;"/></g></g></g><g id="MEET-OUR-TEAM" serif:id="MEET OUR TEAM"><g id="cta1" serif:id="cta"></g></g><g id="WHAT-WE-ARE-DOING" serif:id="WHAT WE ARE DOING"><g><g id="WHAT-WE-ARE-DOING1" serif:id="WHAT WE ARE DOING"></g></g></g><g id="Opis"></g><g id="Head"><g id="cta2" serif:id="cta"></g><g id="Menu-rozwinięte" serif:id="Menu rozwinięte"><g id="Button3" serif:id="Button"></g><g id="Button4" serif:id="Button"></g><g id="Button5" serif:id="Button"></g><g id="Button6" serif:id="Button"></g><g id="Button7" serif:id="Button"></g><g id="Button8" serif:id="Button"></g></g><g id="webo"></g></g></svg>