<?xml version="1.0" encoding="UTF-8" standalone="no"?><!DOCTYPE svg PUBLIC "-//W3C//DTD SVG 1.1//EN" "http://www.w3.org/Graphics/SVG/1.1/DTD/svg11.dtd"><svg width="100%" height="100%" viewBox="0 0 36 42" version="1.1" xmlns="http://www.w3.org/2000/svg" xmlns:xlink="http://www.w3.org/1999/xlink" xml:space="preserve" xmlns:serif="http://www.serif.com/" style="fill-rule:evenodd;clip-rule:evenodd;stroke-linejoin:round;stroke-miterlimit:1.41421;"><rect id="Artboard1" x="-348.98" y="-785.04" width="460.8" height="1952" style="fill:none;"/><g id="Stopka"><g id="Social"></g><g id="Contact"></g><g id="Hot-links" serif:id="Hot links"></g></g><g id="Contact1" serif:id="Contact"><g id="Formularz"><g id="cta"></g></g></g><g id="PARTNERS"><g id="SMARTMAGE"></g></g><g id="PORTFOLIO"><g><g><g id="AG"></g></g><g><g id="Logo"></g></g></g><g id="Menu"><g id="Button"></g><g id="Button1" serif:id="Button"></g><g id="Button2" serif:id="Button"></g></g></g><g id="TECHNOLOGIES"><g id="Logotypes"><g><path d="M9.306,0.247l-0.815,1.521l-6.304,11.456l-0.815,1.447l0.815,1.445l6.304,11.086l0.852,1.52l16.5,0l0.815,-1.668l4.709,-9.492l2.113,-4.301l-4.782,0l-12.05,0.037c-1.567,-0.022 -3.009,1.398 -3.009,2.966c0,1.567 1.442,2.988 3.009,2.966l7.267,-0.037l-1.78,3.596l-9.343,0l-4.636,-8.157l4.672,-8.453l9.939,0l2.318,4.755l5.97,0l-3.763,-9.018l-0.817,-1.669l-17.169,0" style="fill-rule:nonzero;"/><path d="M6.952,40.568c-0.189,0 -0.375,-0.074 -0.515,-0.213l-4.307,-4.308l0,3.793c0,0.402 -0.326,0.728 -0.728,0.728c-0.402,0 -0.728,-0.326 -0.728,-0.728l0,-5.55c0,-0.295 0.178,-0.56 0.45,-0.673c0.271,-0.113 0.585,-0.05 0.793,0.158l4.307,4.308l0,-3.793c0,-0.402 0.326,-0.728 0.728,-0.728c0.402,0 0.728,0.326 0.728,0.728l0,5.55c0,0.399 -0.329,0.728 -0.728,0.728m3.371,-6.999l-0.2,0.373l-1.547,2.811l-0.2,0.355l0.2,0.355l1.547,2.72l0.209,0.373l4.049,0l0.2,-0.409l1.155,-2.329l0.519,-1.056l-1.174,0l-2.957,0.009c-0.384,-0.005 -0.738,0.344 -0.738,0.728c0,0.385 0.354,0.734 0.738,0.728l1.784,-0.009l-0.437,0.883l-2.293,0l-1.137,-2.002l1.146,-2.075l2.439,0l0.569,1.167l1.465,0l-0.924,-2.213l-0.2,-0.409l-4.213,0m7.374,-0.009c-0.382,0.004 -0.724,0.356 -0.719,0.737l0,1.897l1.456,0l0,-1.897c0.004,-0.388 -0.35,-0.742 -0.737,-0.737m2.333,7.022c-0.399,0 -0.727,-0.329 -0.728,-0.728l0,-5.55c0,-0.402 0.326,-0.728 0.728,-0.728c0.402,0 0.728,0.326 0.728,0.728l0,3.793l4.308,-4.308c0.207,-0.208 0.522,-0.271 0.793,-0.158c0.271,0.113 0.449,0.379 0.449,0.673l0,5.55c0,0.402 -0.326,0.728 -0.728,0.728c-0.402,0 -0.728,-0.326 -0.728,-0.728l0,-3.793l-4.307,4.308c-0.137,0.136 -0.322,0.213 -0.515,0.213m11.67,-3.509l2.264,-2.256c0.285,-0.283 0.286,-0.744 0.002,-1.029c-0.284,-0.285 -0.744,-0.286 -1.029,-0.002l-2.268,2.26l-2.268,-2.26c-0.285,-0.284 -0.745,-0.283 -1.029,0.002c-0.284,0.285 -0.283,0.746 0.001,1.029l2.265,2.256l-2.258,2.25c-0.285,0.284 -0.285,0.745 -0.002,1.029c0.137,0.138 0.322,0.215 0.516,0.215c0.186,0 0.372,-0.071 0.514,-0.213l2.261,-2.253l2.261,2.253c0.136,0.136 0.321,0.213 0.514,0.213c0.187,0 0.373,-0.072 0.516,-0.215c0.283,-0.284 0.283,-0.745 -0.002,-1.029l-2.258,-2.25m-14.003,3.488c-0.382,-0.004 -0.724,-0.355 -0.719,-0.737l0,-3.046l1.456,0l0,3.046c0.004,0.387 -0.35,0.742 -0.737,0.737" style="fill-rule:nonzero;"/></g><g id="Layer-1" serif:id="Layer 1"></g></g></g><g id="MEET-OUR-TEAM" serif:id="MEET OUR TEAM"><g id="cta1" serif:id="cta"></g></g><g id="WHAT-WE-ARE-DOING" serif:id="WHAT WE ARE DOING"><g><g id="WHAT-WE-ARE-DOING1" serif:id="WHAT WE ARE DOING"></g></g></g><g id="Opis"></g><g id="Head"><g id="cta2" serif:id="cta"></g><g id="Menu-rozwinięte" serif:id="Menu rozwinięte"><g id="Button3" serif:id="Button"></g><g id="Button4" serif:id="Button"></g><g id="Button5" serif:id="Button"></g><g id="Button6" serif:id="Button"></g><g id="Button7" serif:id="Button"></g><g id="Button8" serif:id="Button"></g></g><g id="webo"></g></g></svg>