<?xml version="1.0" encoding="UTF-8" standalone="no"?><!DOCTYPE svg PUBLIC "-//W3C//DTD SVG 1.1//EN" "http://www.w3.org/Graphics/SVG/1.1/DTD/svg11.dtd"><svg width="100%" height="100%" viewBox="0 0 65 35" version="1.1" xmlns="http://www.w3.org/2000/svg" xmlns:xlink="http://www.w3.org/1999/xlink" xml:space="preserve" xmlns:serif="http://www.serif.com/" style="fill-rule:evenodd;clip-rule:evenodd;stroke-linejoin:round;stroke-miterlimit:1.41421;"><rect id="Artboard1" x="-199.22" y="-794.64" width="460.8" height="1952" style="fill:none;"/><g id="Stopka"><g id="Social"></g><g id="Contact"></g><g id="Hot-links" serif:id="Hot links"></g></g><g id="Contact1" serif:id="Contact"><g id="Formularz"><g id="cta"></g></g></g><g id="PARTNERS"><g id="SMARTMAGE"></g></g><g id="PORTFOLIO"><g><g><g id="AG"></g></g><g><g id="Logo"></g></g></g><g id="Menu"><g id="Button"></g><g id="Button1" serif:id="Button"></g><g id="Button2" serif:id="Button"></g></g></g><g id="TECHNOLOGIES"><g id="Logotypes"><g id="Layer-1" serif:id="Layer 1"></g><g><clipPath id="_clip1"><path d="M31.916,33.923c17.437,0 31.573,-7.436 31.573,-16.609c0,-9.173 -14.136,-16.609 -31.573,-16.609c-17.437,0 -31.573,7.436 -31.573,16.609c0,9.173 14.136,16.609 31.573,16.609Z"/></clipPath><g clip-path="url(#_clip1)"><path d="M31.916,33.923c17.437,0 31.573,-7.436 31.573,-16.609c0,-9.173 -14.136,-16.609 -31.573,-16.609c-17.437,0 -31.573,7.436 -31.573,16.609c0,9.173 14.136,16.609 31.573,16.609Zm0,-1.234c16.756,0 30.34,-6.883 30.34,-15.375c0,-8.492 -13.584,-15.376 -30.34,-15.376c-16.756,0 -30.34,6.884 -30.34,15.376c0,8.492 13.584,15.375 30.34,15.375Z"/></g><path d="M18.786,12.597c1.378,0 2.296,0.254 2.755,0.763c0.458,0.508 0.568,1.381 0.328,2.618c-0.251,1.288 -0.734,2.208 -1.449,2.759c-0.716,0.551 -1.805,0.826 -3.266,0.826l-2.206,0l1.354,-6.966l2.484,0Zm-8.834,14.018l3.626,0l0.86,-4.426l3.106,0c1.37,0 2.497,-0.143 3.382,-0.432c0.885,-0.287 1.689,-0.77 2.413,-1.448c0.608,-0.558 1.1,-1.174 1.476,-1.848c0.376,-0.673 0.643,-1.416 0.801,-2.229c0.384,-1.973 0.094,-3.509 -0.867,-4.61c-0.962,-1.101 -2.492,-1.652 -4.59,-1.652l-6.972,0l-3.235,16.645Z" style="fill:#000003;fill-rule:nonzero;"/><path d="M28.279,5.545l3.597,0l-0.86,4.425l3.205,0c2.016,0 3.407,0.352 4.173,1.055c0.765,0.704 0.994,1.843 0.688,3.419l-1.505,7.745l-3.654,0l1.431,-7.364c0.163,-0.838 0.103,-1.409 -0.18,-1.714c-0.283,-0.305 -0.884,-0.457 -1.805,-0.457l-2.875,0l-1.853,9.535l-3.597,0l3.235,-16.644Z" style="fill:#000003;fill-rule:nonzero;"/><path d="M47.086,12.597c1.378,0 2.296,0.254 2.755,0.763c0.458,0.508 0.568,1.381 0.328,2.618c-0.251,1.288 -0.734,2.208 -1.449,2.759c-0.716,0.551 -1.805,0.826 -3.266,0.826l-2.206,0l1.354,-6.966l2.484,0Zm-8.834,14.018l3.626,0l0.86,-4.426l3.105,0c1.371,0 2.498,-0.143 3.383,-0.432c0.885,-0.287 1.689,-0.77 2.413,-1.448c0.608,-0.558 1.099,-1.174 1.476,-1.848c0.376,-0.673 0.643,-1.416 0.801,-2.229c0.384,-1.973 0.094,-3.509 -0.868,-4.61c-0.961,-1.101 -2.491,-1.652 -4.589,-1.652l-6.972,0l-3.235,16.645Z" style="fill:#000003;fill-rule:nonzero;"/></g></g></g><g id="MEET-OUR-TEAM" serif:id="MEET OUR TEAM"><g id="cta1" serif:id="cta"></g></g><g id="WHAT-WE-ARE-DOING" serif:id="WHAT WE ARE DOING"><g><g id="WHAT-WE-ARE-DOING1" serif:id="WHAT WE ARE DOING"></g></g></g><g id="Opis"></g><g id="Head"><g id="cta2" serif:id="cta"></g><g id="Menu-rozwinięte" serif:id="Menu rozwinięte"><g id="Button3" serif:id="Button"></g><g id="Button4" serif:id="Button"></g><g id="Button5" serif:id="Button"></g><g id="Button6" serif:id="Button"></g><g id="Button7" serif:id="Button"></g><g id="Button8" serif:id="Button"></g></g><g id="webo"></g></g></svg>