<?xml version="1.0" encoding="UTF-8" standalone="no"?><!DOCTYPE svg PUBLIC "-//W3C//DTD SVG 1.1//EN" "http://www.w3.org/Graphics/SVG/1.1/DTD/svg11.dtd"><svg width="100%" height="100%" viewBox="0 0 86 26" version="1.1" xmlns="http://www.w3.org/2000/svg" xmlns:xlink="http://www.w3.org/1999/xlink" xml:space="preserve" xmlns:serif="http://www.serif.com/" style="fill-rule:evenodd;clip-rule:evenodd;stroke-linejoin:round;stroke-miterlimit:1.41421;"><rect id="Artboard1" x="-54.5" y="-1214.88" width="460.8" height="1952" style="fill:none;"/><g id="Stopka"><g id="Social"></g><g id="Contact"></g><g id="Hot-links" serif:id="Hot links"></g></g><g id="Contact1" serif:id="Contact"><g id="Formularz"><g id="cta"></g></g></g><g id="PARTNERS"><g id="SMARTMAGE"><path id="Combined-Shape" d="M11.529,16.743c0.518,1.031 1.101,2.04 1.731,3.066c0.769,1.178 1.289,1.804 1.623,1.804c0.164,0 0.682,-0.613 1.443,-1.804c0.639,-0.989 1.229,-1.991 1.75,-3.066l0.234,0c0.137,0.033 0.089,0.383 0,1.082c-0.284,0.703 -0.585,1.729 -1.082,3.066c-0.042,0.413 -0.14,0.743 -0.18,1.082c-0.101,0.183 -0.144,0.405 -0.181,0.541c0.004,0.229 -0.003,0.366 0,0.541c0.006,0.008 0.045,0.08 0.181,0.181c0.013,0.007 0.084,0.042 0.18,0c0.037,0.075 0.144,0.088 0.18,0.18c1.433,-0.009 2.793,0.016 4.148,0c1.449,-0.034 2.694,-0.126 3.787,-0.361c1.08,-0.08 1.624,-0.27 1.624,-0.541c0,-0.302 -0.442,-1.351 -1.263,-3.066c-0.946,-1.785 -1.9,-3.479 -2.885,-5.23c-1.064,-1.525 -1.738,-2.344 -2.164,-2.344c-0.113,0 -0.493,0.371 -1.083,1.082c-0.059,0.092 -0.119,0.186 -0.182,0.283c-0.223,-0.134 -0.647,-0.226 -1.26,-0.283c-1.045,-0.14 -2.141,-0.191 -3.247,-0.18c-1.286,0.014 -2.381,0.081 -3.426,0.18c-0.6,0.09 -1.02,0.185 -1.246,0.305c-0.068,-0.104 -0.133,-0.206 -0.197,-0.305c-0.589,-0.711 -0.969,-1.082 -1.082,-1.082c-0.426,0 -1.1,0.819 -2.164,2.344c-0.985,1.751 -1.939,3.445 -2.886,5.23c-0.82,1.715 -1.262,2.764 -1.262,3.066c0,0.271 0.543,0.461 1.623,0.541c1.094,0.235 2.338,0.327 3.787,0.361c1.355,0.016 2.716,-0.009 4.148,0c0.036,-0.092 0.144,-0.105 0.181,-0.18c0.096,0.042 0.166,0.007 0.18,0c0.136,-0.101 0.175,-0.174 0.18,-0.181c0.003,-0.175 -0.003,-0.312 0,-0.541c-0.036,-0.136 -0.08,-0.358 -0.18,-0.541c-0.041,-0.339 -0.138,-0.669 -0.18,-1.082c-0.498,-1.337 -0.798,-2.363 -1.082,-3.066c-0.089,-0.699 -0.137,-1.049 0,-1.082l0.252,0Zm-0.613,-9.738c0.034,0.023 -0.056,-0.037 0,-0.181c0.02,-0.025 0.078,-0.137 0.18,-0.18c0.773,-1.558 1.543,-2.839 2.345,-3.968c0.68,-1.072 1.181,-1.623 1.442,-1.623c0.339,0 1.095,0.963 2.345,2.886c0.009,0.131 0.04,0.108 0,0.18c-0.006,0.074 -0.048,0.064 -0.18,0.181c0.009,-0.056 -0.076,-0.04 -0.181,0l-1.442,0c-0.073,-0.04 -0.16,0.038 -0.181,0c-0.017,0.099 -0.036,0.217 0,0.18c0.17,0.14 0.208,0.152 0.181,0.18l1.442,0c0.332,-0.028 0.549,0.011 0.722,0c0.05,0.164 0.182,0.334 0.36,0.541c0.698,1.309 1.333,2.5 1.984,3.607c0.447,1.148 0.722,1.835 0.722,1.984c0,0.228 -0.213,0.349 -0.542,0.541c-0.524,0.032 -1.077,0.118 -1.803,0.18c-0.633,0.061 -1.382,0.109 -2.164,0.181c-0.854,-0.002 -1.673,0.005 -2.525,0c-0.792,-0.033 -1.543,-0.072 -2.164,-0.181c-0.738,-0.006 -1.289,-0.093 -1.804,-0.18c-0.329,-0.144 -0.541,-0.282 -0.541,-0.541c0,-0.287 0.438,-1.334 1.263,-3.066c0.105,-0.077 0.16,-0.152 0.18,-0.18c0.095,-0.072 0.147,-0.038 0.181,0c0.058,-0.053 0.131,-0.057 0.18,0l1.623,0c0.369,-0.057 0.399,-0.136 0.361,-0.181c0.114,-0.016 0.103,-0.172 0,-0.18c-0.02,-0.053 -0.163,-0.069 -0.361,0l-1.443,0c-0.11,-0.069 -0.203,-0.093 -0.18,-0.18Z" style="fill:#404040;"/><path id="SMARTMAGE-Copy" d="M30.371,12.001c0,0 0.73,0.808 2.034,0.808c1.218,0 1.948,-0.782 1.948,-1.73c0,-1.991 -2.974,-1.652 -2.974,-2.922c0,-0.487 0.461,-0.895 1.113,-0.895c0.783,0 1.348,0.53 1.348,0.53l0.391,-0.713c0,0 -0.6,-0.617 -1.739,-0.617c-1.156,0 -1.982,0.756 -1.982,1.713c0,1.887 2.974,1.6 2.974,2.93c0,0.583 -0.487,0.904 -1.061,0.904c-0.913,0 -1.565,-0.661 -1.565,-0.661l-0.487,0.653Zm5.026,0.704l0.86,0l0.296,-3.869c0.026,-0.374 0.017,-0.922 0.017,-0.922l0.018,0c0,0 0.191,0.591 0.33,0.922l1.218,2.765l0.765,0l1.226,-2.765c0.148,-0.34 0.33,-0.905 0.33,-0.905l0.018,0c0,0 -0.018,0.531 0.008,0.905l0.305,3.869l0.852,0l-0.496,-6.139l-0.904,0l-1.409,3.322c-0.139,0.339 -0.304,0.826 -0.304,0.826l-0.018,0c0,0 -0.165,-0.487 -0.304,-0.826l-1.409,-3.322l-0.904,0l-0.495,6.139Zm11.382,0l0.895,0l-2.208,-6.139l-0.905,0l-2.208,6.139l0.887,0l0.608,-1.765l2.313,0l0.618,1.765Zm-1.757,-5.295c0,0 0.131,0.556 0.235,0.869l0.678,1.948l-1.861,0l0.687,-1.948c0.105,-0.313 0.244,-0.869 0.244,-0.869l0.017,0Zm3.556,5.295l0.861,0l0,-2.443l1.313,0l1.296,2.443l0.974,0l-1.305,-2.383c-0.113,-0.2 -0.182,-0.278 -0.182,-0.278l0,-0.017c0.669,-0.218 1.104,-0.878 1.104,-1.661c0,-0.809 -0.409,-1.426 -1.035,-1.661c-0.234,-0.087 -0.504,-0.139 -1.147,-0.139l-1.879,0l0,6.139Zm0.861,-3.191l0,-2.2l0.992,0c0.478,0 0.678,0.052 0.843,0.139c0.313,0.174 0.487,0.496 0.487,0.948c0,0.687 -0.418,1.113 -1.087,1.113l-1.235,0Zm6.026,3.191l0.861,0l0,-5.391l2.104,0l0,-0.748l-5.069,0l0,0.748l2.104,0l0,5.391Zm3.652,0l0.861,0l0.295,-3.869c0.027,-0.374 0.018,-0.922 0.018,-0.922l0.017,0c0,0 0.192,0.591 0.331,0.922l1.217,2.765l0.765,0l1.226,-2.765c0.148,-0.34 0.331,-0.905 0.331,-0.905l0.017,0c0,0 -0.017,0.531 0.009,0.905l0.304,3.869l0.852,0l-0.495,-6.139l-0.905,0l-1.408,3.322c-0.14,0.339 -0.305,0.826 -0.305,0.826l-0.017,0c0,0 -0.165,-0.487 -0.304,-0.826l-1.409,-3.322l-0.904,0l-0.496,6.139Zm11.382,0l0.896,0l-2.209,-6.139l-0.904,0l-2.209,6.139l0.887,0l0.609,-1.765l2.313,0l0.617,1.765Zm-1.756,-5.295c0,0 0.13,0.556 0.234,0.869l0.679,1.948l-1.861,0l0.687,-1.948c0.104,-0.313 0.243,-0.869 0.243,-0.869l0.018,0Zm3.147,2.217c0,1.878 1.365,3.182 3.017,3.182c1.218,0 1.887,-0.748 1.887,-0.748l0.018,0c0,0 -0.009,0.131 -0.009,0.261l0,0.383l0.756,0l0,-3.087l-1.782,0l0,0.748l1,0l0,0.887c0,0 -0.678,0.765 -1.739,0.765c-1.287,0 -2.261,-0.983 -2.261,-2.409c0,-1.313 0.87,-2.365 2.313,-2.365c1.043,0 1.73,0.6 1.73,0.6l0.435,-0.643c0,0 -0.765,-0.739 -2.235,-0.739c-1.791,0 -3.13,1.391 -3.13,3.165Zm7.017,3.078l3.713,0l0,-0.748l-2.852,0l0,-1.974l2.2,0l0,-0.747l-2.2,0l0,-1.922l2.704,0l0,-0.748l-3.565,0l0,6.139Z" style="fill:#404040;"/><path id="SKLEPY-MAGENTO" d="M34,18.195c0,0 0.438,0.485 1.221,0.485c0.73,0 1.169,-0.469 1.169,-1.038c0,-1.195 -1.785,-0.991 -1.785,-1.753c0,-0.292 0.277,-0.537 0.668,-0.537c0.47,0 0.809,0.318 0.809,0.318l0.234,-0.428c0,0 -0.359,-0.37 -1.043,-0.37c-0.694,0 -1.189,0.454 -1.189,1.027c0,1.133 1.784,0.96 1.784,1.759c0,0.349 -0.292,0.542 -0.637,0.542c-0.547,0 -0.939,-0.396 -0.939,-0.396l-0.292,0.391Zm3.13,0.423l0.517,0l0,-1.691l0.548,0l0.98,1.691l0.585,0l-1.138,-1.926l0,-0.01l1.07,-1.748l-0.569,0l-0.928,1.55l-0.548,0l0,-1.55l-0.517,0l0,3.684Zm3.251,0l2.165,0l0,-0.449l-1.649,0l0,-3.235l-0.516,0l0,3.684Zm2.759,0l2.228,0l0,-0.449l-1.711,0l0,-1.184l1.32,0l0,-0.449l-1.32,0l0,-1.153l1.622,0l0,-0.449l-2.139,0l0,3.684Zm2.99,0l0.516,0l0,-1.362l0.83,0c0.673,0 1.158,-0.47 1.158,-1.169c0,-0.699 -0.485,-1.153 -1.158,-1.153l-1.346,0l0,3.684Zm0.516,-1.811l0,-1.424l0.752,0c0.438,0 0.709,0.261 0.709,0.704c0,0.444 -0.271,0.72 -0.715,0.72l-0.746,0Zm3.428,1.811l0.516,0l0,-1.56l1.232,-2.124l-0.585,0l-0.673,1.211c-0.114,0.208 -0.224,0.464 -0.224,0.464l-0.01,0c0,0 -0.11,-0.261 -0.225,-0.464l-0.683,-1.211l-0.584,0l1.236,2.124l0,1.56Zm3.516,0l0.517,0l0.177,-2.322c0.016,-0.224 0.011,-0.553 0.011,-0.553l0.01,0c0,0 0.115,0.355 0.198,0.553l0.731,1.659l0.459,0l0.735,-1.659c0.089,-0.203 0.199,-0.543 0.199,-0.543l0.01,0c0,0 -0.01,0.319 0.005,0.543l0.183,2.322l0.511,0l-0.297,-3.684l-0.543,0l-0.845,1.993c-0.083,0.204 -0.183,0.496 -0.183,0.496l-0.01,0c0,0 -0.099,-0.292 -0.183,-0.496l-0.845,-1.993l-0.542,0l-0.298,3.684Zm6.83,0l0.537,0l-1.325,-3.684l-0.543,0l-1.325,3.684l0.532,0l0.365,-1.059l1.388,0l0.371,1.059Zm-1.054,-3.178c0,0 0.078,0.334 0.141,0.522l0.406,1.169l-1.116,0l0.412,-1.169c0.063,-0.188 0.146,-0.522 0.146,-0.522l0.011,0Zm1.888,1.331c0,1.127 0.819,1.909 1.811,1.909c0.73,0 1.132,-0.448 1.132,-0.448l0.01,0c0,0 -0.005,0.078 -0.005,0.156l0,0.23l0.454,0l0,-1.852l-1.07,0l0,0.448l0.6,0l0,0.532c0,0 -0.407,0.459 -1.043,0.459c-0.772,0 -1.357,-0.589 -1.357,-1.445c0,-0.787 0.522,-1.419 1.388,-1.419c0.626,0 1.038,0.36 1.038,0.36l0.261,-0.386c0,0 -0.459,-0.443 -1.341,-0.443c-1.074,0 -1.878,0.834 -1.878,1.899Zm4.21,1.847l2.228,0l0,-0.449l-1.711,0l0,-1.184l1.32,0l0,-0.449l-1.32,0l0,-1.153l1.622,0l0,-0.449l-2.139,0l0,3.684Zm2.99,0l0.516,0l0,-2.39c0,-0.209 -0.036,-0.537 -0.036,-0.537l0.01,0c0,0 0.172,0.334 0.308,0.537l1.643,2.39l0.507,0l0,-3.684l-0.517,0l0,2.395c0,0.203 0.037,0.532 0.037,0.532l-0.011,0c0,0 -0.172,-0.334 -0.308,-0.532l-1.638,-2.395l-0.511,0l0,3.684Zm4.737,0l0.517,0l0,-3.235l1.262,0l0,-0.449l-3.042,0l0,0.449l1.263,0l0,3.235Zm2.056,-1.868c0,1.085 0.829,1.93 1.893,1.93c1.065,0 1.889,-0.845 1.889,-1.93c0,-1.059 -0.824,-1.878 -1.889,-1.878c-1.064,0 -1.893,0.819 -1.893,1.878Zm0.532,0c0,-0.804 0.61,-1.409 1.361,-1.409c0.752,0 1.357,0.605 1.357,1.409c0,0.829 -0.605,1.455 -1.357,1.455c-0.751,0 -1.361,-0.626 -1.361,-1.455Z" style="fill:#404040;"/></g></g><g id="PORTFOLIO"><g><g><g id="AG"></g></g><g><g id="Logo"></g></g></g><g id="Menu"><g id="Button"></g><g id="Button1" serif:id="Button"></g><g id="Button2" serif:id="Button"></g></g></g><g id="TECHNOLOGIES"><g id="Logotypes"><g id="Layer-1" serif:id="Layer 1"></g></g></g><g id="MEET-OUR-TEAM" serif:id="MEET OUR TEAM"><g id="cta1" serif:id="cta"></g></g><g id="WHAT-WE-ARE-DOING" serif:id="WHAT WE ARE DOING"><g><g id="WHAT-WE-ARE-DOING1" serif:id="WHAT WE ARE DOING"></g></g></g><g id="Opis"></g><g id="Head"><g id="cta2" serif:id="cta"></g><g id="Menu-rozwinięte" serif:id="Menu rozwinięte"><g id="Button3" serif:id="Button"></g><g id="Button4" serif:id="Button"></g><g id="Button5" serif:id="Button"></g><g id="Button6" serif:id="Button"></g><g id="Button7" serif:id="Button"></g><g id="Button8" serif:id="Button"></g></g><g id="webo"></g></g></svg>