<?xml version="1.0" encoding="UTF-8" standalone="no"?><!DOCTYPE svg PUBLIC "-//W3C//DTD SVG 1.1//EN" "http://www.w3.org/Graphics/SVG/1.1/DTD/svg11.dtd"><svg width="100%" height="100%" viewBox="0 0 88 26" version="1.1" xmlns="http://www.w3.org/2000/svg" xmlns:xlink="http://www.w3.org/1999/xlink" xml:space="preserve" xmlns:serif="http://www.serif.com/" style="fill-rule:evenodd;clip-rule:evenodd;stroke-linejoin:round;stroke-miterlimit:1.41421;"><rect id="Artboard1" x="-176.42" y="-1214.88" width="460.8" height="1952" style="fill:none;"/><g id="Stopka"><g id="Social"></g><g id="Contact"></g><g id="Hot-links" serif:id="Hot links"></g></g><g id="Contact1" serif:id="Contact"><g id="Formularz"><g id="cta"></g></g></g><g id="PARTNERS"><g id="SMARTMAGE"></g><g><path d="M74.52,11.812c0,1.59 -0.034,3.125 0.016,4.657c0.022,0.65 -0.222,0.837 -0.808,0.782c-0.232,-0.023 -0.468,-0.005 -0.702,-0.005c-0.416,0 -0.589,-0.177 -0.58,-0.622c0.024,-1.222 0.014,-2.448 -0.003,-3.671c-0.01,-0.657 -0.26,-1.168 -0.982,-1.304c-0.974,-0.183 -1.472,-0.259 -1.407,1.078c0.063,1.272 -0.018,2.552 0.005,3.827c0.01,0.565 -0.231,0.745 -0.75,0.695c-0.207,-0.021 -0.417,-0.019 -0.625,-0.001c-0.545,0.047 -0.725,-0.196 -0.717,-0.735c0.025,-1.693 -0.001,-3.385 0.015,-5.079c0.012,-1.129 0.307,-1.437 1.434,-1.478c1.267,-0.046 2.553,-0.228 3.751,0.422c0.134,0.072 0.378,-0.073 0.573,-0.093c1.022,-0.113 2.056,-0.366 3.063,-0.287c1.423,0.114 2.26,1.323 2.338,3.128c0.052,1.169 -0.002,2.345 0.021,3.516c0.009,0.453 -0.198,0.579 -0.606,0.607c-1.454,0.103 -1.492,0.076 -1.492,-1.358c0,-0.755 0.009,-1.51 -0.003,-2.266c-0.031,-1.853 -0.706,-2.333 -2.541,-1.813Z" style="fill:#404040;"/><path d="M34.327,9.473c-1.321,0 -2.425,0.014 -3.528,-0.011c-0.28,-0.007 -0.765,-0.09 -0.796,-0.223c-0.103,-0.441 -0.062,-0.922 -0.022,-1.383c0.006,-0.071 0.301,-0.165 0.464,-0.165c1.952,-0.01 3.904,-0.02 5.855,0.005c0.756,0.01 1.077,0.771 0.693,1.651c-0.142,0.326 -0.381,0.618 -0.611,0.896c-1.226,1.482 -2.465,2.953 -3.696,4.429c-0.16,0.192 -0.3,0.398 -0.565,0.747c1.38,0 2.589,-0.009 3.798,0.004c1.265,0.013 1.201,-0.244 1.2,1.213c0,0.154 -0.024,0.308 -0.045,0.535c-0.26,0.019 -0.512,0.053 -0.764,0.054c-1.952,0.004 -3.904,0.007 -5.856,0c-1.18,-0.004 -1.588,-0.682 -0.983,-1.723c0.322,-0.555 0.775,-1.038 1.189,-1.537c1.014,-1.218 2.041,-2.427 3.057,-3.646c0.174,-0.205 0.317,-0.436 0.61,-0.846Z" style="fill:#404040;"/><path d="M52.456,7.251c0.025,0.315 0.056,0.519 0.056,0.723c0.003,2.684 -0.014,5.367 0.013,8.049c0.006,0.568 -0.186,0.944 -0.726,1.009c-1.155,0.138 -2.331,0.363 -3.474,0.269c-1.513,-0.124 -2.422,-1.07 -2.571,-2.589c-0.091,-0.931 -0.008,-1.94 0.263,-2.836c0.366,-1.213 1.319,-1.902 2.637,-1.956c0.57,-0.024 1.142,-0.004 1.81,-0.004c0,-0.653 0.021,-1.323 -0.007,-1.991c-0.021,-0.502 0.157,-0.722 0.677,-0.682c0.409,0.035 0.824,0.008 1.322,0.008Zm-1.989,4.554c-2.166,-0.569 -2.782,0.529 -2.654,2.281c0.091,1.238 0.934,1.817 2.158,1.539c0.195,-0.044 0.467,-0.343 0.475,-0.533c0.045,-1.085 0.021,-2.172 0.021,-3.287Z" style="fill:#404040;"/><path d="M58.135,12.694c0.117,-0.949 -0.394,-1.189 -1.011,-1.18c-0.748,0.009 -1.496,0.141 -2.231,0.218c-0.053,-0.055 -0.103,-0.085 -0.121,-0.13c-0.47,-1.221 -0.373,-1.433 0.941,-1.599c0.77,-0.097 1.56,-0.104 2.337,-0.062c1.361,0.076 2.154,0.863 2.218,2.241c0.061,1.325 0.055,2.656 0,3.983c-0.012,0.277 -0.308,0.691 -0.566,0.785c-1.476,0.535 -3,0.657 -4.515,0.172c-1.029,-0.33 -1.522,-1.218 -1.399,-2.334c0.126,-1.128 0.976,-1.977 2.184,-2.082c0.714,-0.063 1.438,-0.012 2.163,-0.012Zm0.109,2.094c0.103,-0.549 -0.081,-0.865 -0.817,-0.825c-1.038,0.056 -1.504,0.292 -1.527,0.937c-0.02,0.566 0.413,0.886 1.206,0.889c0.97,0.005 1.131,-0.123 1.138,-1.001Z" style="fill:#404040;"/><path d="M42.281,12.695c0.182,-0.859 -0.277,-1.135 -0.863,-1.172c-0.536,-0.033 -1.081,0.093 -1.623,0.143c-0.278,0.026 -0.557,0.04 -0.818,0.06c-0.469,-1.491 -0.418,-1.603 1.053,-1.745c0.773,-0.073 1.561,-0.08 2.337,-0.025c1.195,0.085 1.993,0.888 2.036,2.068c0.051,1.404 0.043,2.811 0.004,4.215c-0.007,0.241 -0.248,0.608 -0.466,0.688c-1.551,0.565 -3.147,0.719 -4.726,0.136c-0.954,-0.353 -1.422,-1.278 -1.27,-2.261c0.186,-1.196 0.963,-1.983 2.174,-2.093c0.714,-0.067 1.44,-0.014 2.162,-0.014Zm0.015,1.238c-0.584,0.061 -1.151,0.024 -1.636,0.208c-0.262,0.098 -0.528,0.568 -0.528,0.872c0,0.236 0.369,0.608 0.64,0.686c1.258,0.356 1.698,-0.029 1.614,-1.315c-0.006,-0.101 -0.04,-0.2 -0.09,-0.451Z" style="fill:#404040;"/><path d="M84.733,12.69c0.136,-0.903 -0.359,-1.149 -0.933,-1.17c-0.589,-0.023 -1.197,0.051 -1.773,0.186c-0.783,0.184 -0.742,-0.378 -0.887,-0.83c-0.165,-0.515 0.121,-0.678 0.535,-0.709c1.107,-0.08 2.22,-0.237 3.321,-0.173c1.087,0.063 1.808,0.963 1.834,2.077c0.032,1.377 0.038,2.756 -0.009,4.133c-0.009,0.258 -0.266,0.649 -0.498,0.735c-1.499,0.549 -3.045,0.677 -4.58,0.169c-1.034,-0.343 -1.501,-1.235 -1.344,-2.354c0.16,-1.153 0.982,-1.952 2.196,-2.052c0.694,-0.057 1.395,-0.012 2.138,-0.012Zm0.022,1.224c-0.635,0.084 -1.239,0.08 -1.773,0.27c-0.231,0.083 -0.451,0.57 -0.435,0.861c0.013,0.232 0.352,0.568 0.609,0.647c1.234,0.376 1.7,-0.006 1.658,-1.271c-0.003,-0.102 -0.023,-0.203 -0.059,-0.507Z" style="fill:#404040;"/><path d="M61.861,13.88c0,-0.912 -0.002,-1.823 0,-2.734c0.001,-0.585 0.233,-1.061 0.843,-1.136c1.463,-0.183 2.903,-0.133 4.247,0.613c0.498,0.276 0.558,0.575 0.201,0.977c-0.305,0.341 -0.343,1.208 -1.156,0.608c-0.165,-0.12 -0.361,-0.205 -0.554,-0.279c-1.282,-0.502 -1.54,-0.328 -1.54,1.026c0,1.197 -0.031,2.397 0.012,3.591c0.022,0.572 -0.199,0.751 -0.718,0.704c-0.155,-0.015 -0.314,-0.02 -0.469,-0.001c-0.665,0.08 -0.939,-0.163 -0.886,-0.871c0.06,-0.829 0.015,-1.666 0.015,-2.498c0.001,0 0.003,0 0.005,0Z" style="fill:#404040;"/><path d="M10.719,23.408c-1.051,0.097 -2.514,-0.358 -3.896,-1.053c-0.418,-0.211 -0.954,-0.684 -0.968,-1.054c-0.014,-0.374 0.477,-0.908 0.88,-1.132c2.059,-1.149 4.337,-1.571 6.656,-1.745c1.685,-0.126 3.396,-0.21 5.006,0.447c0.428,0.174 0.956,0.586 1.038,0.972c0.065,0.313 -0.397,0.86 -0.756,1.119c-2.212,1.586 -4.69,2.414 -7.96,2.446Zm-3.549,-2.542c-0.121,0 -0.245,0.006 -0.37,0.02l0.002,0c0.125,-0.014 0.247,-0.02 0.368,-0.02Zm-5.83,-4.472c0.25,-0.072 3.201,1.133 3.715,1.447c-1.253,1.288 -2.726,1.046 -3.431,-0.571c-0.122,-0.28 -0.191,-0.584 -0.284,-0.876Zm1.724,-8.35c1.62,-0.512 3.225,-1.08 4.866,-1.509c0.733,-0.192 1.549,-0.197 2.31,-0.12c0.879,0.089 1.235,0.655 1.16,1.53c-0.014,0.156 -0.016,0.324 -0.08,0.459c-1.136,2.405 -2.199,4.853 -4.031,6.849c-0.001,0.002 -0.002,0.004 -0.003,0.006c-0.032,0.051 -0.064,0.103 -0.096,0.154c-0.001,0.001 -0.002,0.001 -0.003,0.001l-0.01,0.066l-0.062,-0.001c0.009,0.047 -0.01,0.072 -0.058,0.074c-0.243,0.297 -0.486,0.595 -0.728,0.892l0,0.042l-0.041,0.008c-0.002,0.001 -0.004,0.002 -0.006,0.004c-0.41,0.448 -0.818,0.895 -1.227,1.341c-0.514,-0.314 -3.469,-1.517 -3.715,-1.447c-0.812,-2.339 -0.956,-4.669 0.185,-6.947c0.184,-0.365 0.575,-0.628 0.87,-0.937c0.066,0.06 0.069,0.061 0.004,0.001l0.012,-0.008c0.109,-0.081 0.218,-0.164 0.327,-0.246l0.025,-0.045c0,0 0.05,0.002 0.051,0.003l0,0c0,0 0,0 0,0l0.04,-0.025c0.065,-0.048 0.133,-0.095 0.2,-0.142l0.01,-0.003Zm14.438,-3.106l0.224,-0.12c0.952,-0.354 1.897,-0.522 2.815,0.094c-0.031,0.047 -0.071,0.095 -0.112,0.145c0.042,-0.05 0.082,-0.099 0.114,-0.146c0.242,0.18 0.553,0.313 0.719,0.546c2.078,2.915 2.692,6.123 1.781,9.584c-0.38,1.441 -1.345,2.172 -2.884,2.106c-1.552,-0.067 -3.1,-0.21 -4.648,-0.35c-0.155,-0.005 -0.309,-0.015 -0.464,-0.029c-0.261,-0.021 -0.521,-0.052 -0.782,-0.082c-0.18,-0.016 -0.361,-0.031 -0.541,-0.046l0,-0.001c-1.653,-0.195 -2.479,-1.286 -1.888,-2.818c0.651,-1.688 1.533,-3.287 2.328,-4.918c0.353,-0.723 0.719,-1.44 1.111,-2.142c0.481,-0.864 1.142,-1.53 2.141,-1.781l0.029,-0.05c0,0 0.057,0.008 0.057,0.008l0,0c0,0 0,0 0,0Zm-3.778,11.689l0,0c0.18,0.017 0.361,0.038 0.541,0.059l0.021,0.002c-0.187,-0.022 -0.374,-0.044 -0.562,-0.061Zm-4.708,-4.535l0,-0.001c-0.411,0.051 -0.829,0.168 -1.234,0.168c0.405,0 0.824,-0.117 1.234,-0.167Zm-6.28,-3.837c-0.109,0.082 -0.218,0.165 -0.327,0.246c0.109,-0.081 0.217,-0.165 0.327,-0.246Zm0.115,-0.067l-0.039,0.024l0.004,-0.053l0.035,0.029Zm6.304,-6.847c1.324,-0.107 2.649,-0.307 3.971,-0.286c0.941,0.014 1.879,0.311 2.812,0.512c0.219,0.047 0.482,0.16 0.603,0.331c0.238,0.332 0.392,0.726 0.581,1.094c-0.345,0.17 -0.69,0.339 -1.033,0.509l-0.005,0c-1.138,0.077 -2.273,0.175 -3.41,0.224c-2.588,0.111 -5.075,0.604 -7.427,1.739c-0.316,0.153 -0.778,0.001 -1.173,-0.009c0.026,-0.15 0.053,-0.3 0.079,-0.449l0.023,-0.128c0.027,-0.15 0.053,-0.3 0.08,-0.449c0.465,0.829 0.466,0.828 0,-0.002c0.904,-1.491 2.286,-2.354 3.882,-2.92c0.316,-0.111 0.672,-0.113 1.009,-0.166l0.008,0Z" style="fill:#404040;"/></g></g><g id="PORTFOLIO"><g><g><g id="AG"></g></g><g><g id="Logo"></g></g></g><g id="Menu"><g id="Button"></g><g id="Button1" serif:id="Button"></g><g id="Button2" serif:id="Button"></g></g></g><g id="TECHNOLOGIES"><g id="Logotypes"><g id="Layer-1" serif:id="Layer 1"></g></g></g><g id="MEET-OUR-TEAM" serif:id="MEET OUR TEAM"><g id="cta1" serif:id="cta"></g></g><g id="WHAT-WE-ARE-DOING" serif:id="WHAT WE ARE DOING"><g><g id="WHAT-WE-ARE-DOING1" serif:id="WHAT WE ARE DOING"></g></g></g><g id="Opis"></g><g id="Head"><g id="cta2" serif:id="cta"></g><g id="Menu-rozwinięte" serif:id="Menu rozwinięte"><g id="Button3" serif:id="Button"></g><g id="Button4" serif:id="Button"></g><g id="Button5" serif:id="Button"></g><g id="Button6" serif:id="Button"></g><g id="Button7" serif:id="Button"></g><g id="Button8" serif:id="Button"></g></g><g id="webo"></g></g></svg>