<?xml version="1.0" encoding="UTF-8" standalone="no"?><!DOCTYPE svg PUBLIC "-//W3C//DTD SVG 1.1//EN" "http://www.w3.org/Graphics/SVG/1.1/DTD/svg11.dtd"><svg width="100%" height="100%" viewBox="0 0 8 8" version="1.1" xmlns="http://www.w3.org/2000/svg" xmlns:xlink="http://www.w3.org/1999/xlink" xml:space="preserve" xmlns:serif="http://www.serif.com/" style="fill-rule:evenodd;clip-rule:evenodd;stroke-linejoin:round;stroke-miterlimit:1.41421;"><rect id="Artboard1" x="-241.46" y="-1325.52" width="460.8" height="1952" style="fill:none;"/><g id="Stopka"><g id="Social"><path d="M2.029,0.209c-1.043,0 -1.889,0.846 -1.889,1.889l0,3.022c0,1.043 0.846,1.889 1.889,1.889l3.023,0c1.043,0 1.888,-0.846 1.888,-1.889l0,-3.022c0,-1.043 -0.845,-1.889 -1.888,-1.889l-3.023,0Zm3.778,0.755c0.209,0 0.378,0.17 0.378,0.378c0,0.209 -0.169,0.378 -0.378,0.378c-0.208,0 -0.378,-0.169 -0.378,-0.378c0,-0.208 0.17,-0.378 0.378,-0.378Zm-2.267,0.756c1.043,0 1.889,0.846 1.889,1.889c0,1.043 -0.846,1.889 -1.889,1.889c-1.043,0 -1.888,-0.846 -1.888,-1.889c0,-1.043 0.845,-1.889 1.888,-1.889Zm0,0.755c-0.621,0 -1.133,0.512 -1.133,1.134c0,0.622 0.512,1.133 1.133,1.133c0.622,0 1.134,-0.511 1.134,-1.133c0,-0.622 -0.512,-1.134 -1.134,-1.134Z" style="fill:#c5d92d;fill-rule:nonzero;"/></g><g id="Contact"></g><g id="Hot-links" serif:id="Hot links"></g></g><g id="Contact1" serif:id="Contact"><g id="Formularz"><g id="cta"></g></g></g><g id="PARTNERS"><g id="SMARTMAGE"></g></g><g id="PORTFOLIO"><g><g><g id="AG"></g></g><g><g id="Logo"></g></g></g><g id="Menu"><g id="Button"></g><g id="Button1" serif:id="Button"></g><g id="Button2" serif:id="Button"></g></g></g><g id="TECHNOLOGIES"><g id="Logotypes"><g id="Layer-1" serif:id="Layer 1"></g></g></g><g id="MEET-OUR-TEAM" serif:id="MEET OUR TEAM"><g id="cta1" serif:id="cta"></g></g><g id="WHAT-WE-ARE-DOING" serif:id="WHAT WE ARE DOING"><g><g id="WHAT-WE-ARE-DOING1" serif:id="WHAT WE ARE DOING"></g></g></g><g id="Opis"></g><g id="Head"><g id="cta2" serif:id="cta"></g><g id="Menu-rozwinięte" serif:id="Menu rozwinięte"><g id="Button3" serif:id="Button"></g><g id="Button4" serif:id="Button"></g><g id="Button5" serif:id="Button"></g><g id="Button6" serif:id="Button"></g><g id="Button7" serif:id="Button"></g><g id="Button8" serif:id="Button"></g></g><g id="webo"></g></g></svg>