<?xml version="1.0" encoding="UTF-8" standalone="no"?>
<!DOCTYPE svg PUBLIC "-//W3C//DTD SVG 1.1//EN" "http://www.w3.org/Graphics/SVG/1.1/DTD/svg11.dtd">
<svg width="100%" height="100%" viewBox="0 0 23 25" version="1.1" xmlns="http://www.w3.org/2000/svg" xmlns:xlink="http://www.w3.org/1999/xlink" xml:space="preserve" xmlns:serif="http://www.serif.com/" style="fill-rule:evenodd;clip-rule:evenodd;stroke-linejoin:round;stroke-miterlimit:1.41421;">
    <g transform="matrix(1,0,0,1,-0.980644,0)">
        <g id="Contact">
            <path d="M12.519,24.015C12.843,23.977 12.98,23.525 12.98,23.525L12.98,14.417L18.891,14.414C19.209,14.368 19.419,14.017 19.292,13.702L12.922,0.963C12.733,0.654 12.247,0.624 12.038,0.963L5.668,13.702C5.543,14.014 5.753,14.387 6.11,14.417L11.98,14.417L11.982,23.557C12.018,23.826 12.156,24.028 12.519,24.015ZM18.031,13.417L6.929,13.417L12.48,2.315L18.031,13.417Z" style="fill:white;"/>
        </g>
    </g>
</svg>
