<?xml version="1.0" encoding="UTF-8" standalone="no"?>
<!DOCTYPE svg PUBLIC "-//W3C//DTD SVG 1.1//EN" "http://www.w3.org/Graphics/SVG/1.1/DTD/svg11.dtd">
<svg width="100%" height="100%" viewBox="0 0 57 59" version="1.1" xmlns="http://www.w3.org/2000/svg" xmlns:xlink="http://www.w3.org/1999/xlink" xml:space="preserve" xmlns:serif="http://www.serif.com/" style="fill-rule:evenodd;clip-rule:evenodd;stroke-linejoin:round;stroke-miterlimit:1.41421;">
    <rect id="Artboard1" x="-62.16" y="-300.72" width="345.6" height="1464" style="fill:none;"/>
    <g id="WHAT-WE-ARE-DOING" serif:id="WHAT WE ARE DOING">
        <g transform="matrix(1,0,0,1,17.519,54.274)">
            <text x="0px" y="0px" style="font-family:'AdobeGothicStd-Bold', 'Adobe Gothic Std', sans-serif;font-weight:700;font-size:5.374px;fill:white;">Branding</text>
        </g>
        <path d="M32.626,45.154L25.453,45.154C24.465,45.154 23.66,44.349 23.66,43.36C23.66,43.039 23.751,42.742 23.9,42.481C23.398,42.163 23.062,41.606 23.062,40.969C23.062,40.648 23.154,40.351 23.302,40.09C22.801,39.772 22.465,39.215 22.465,38.578C22.465,37.59 23.269,36.785 24.258,36.785L24.258,34.394L21.867,34.394L21.867,30.21L19.476,29.612L21.764,25.609C21.64,25.07 21.568,24.51 21.568,23.934C21.568,19.807 24.913,16.462 29.04,16.462C34.322,16.462 38.604,20.743 38.604,26.026C38.604,29.563 36.678,32.643 33.822,34.297L33.822,36.785C34.811,36.785 35.615,37.59 35.615,38.578C35.615,39.215 35.279,39.772 34.777,40.09C34.926,40.351 35.017,40.648 35.017,40.969C35.017,41.606 34.681,42.163 34.18,42.481C34.328,42.742 34.42,43.039 34.42,43.36C34.42,44.349 33.615,45.154 32.626,45.154ZM32.627,42.763L25.453,42.763C25.123,42.763 24.856,43.031 24.856,43.361C24.856,43.691 25.123,43.958 25.453,43.958L32.627,43.958C32.956,43.958 33.224,43.691 33.224,43.361C33.224,43.031 32.957,42.763 32.627,42.763ZM33.224,40.372L24.856,40.372C24.525,40.372 24.258,40.64 24.258,40.97C24.258,41.3 24.526,41.567 24.856,41.567L33.224,41.567C33.554,41.567 33.822,41.3 33.822,40.97C33.822,40.64 33.554,40.372 33.224,40.372ZM33.822,37.981L24.258,37.981C23.928,37.981 23.66,38.249 23.66,38.579C23.66,38.909 23.928,39.176 24.258,39.176L33.822,39.176C34.152,39.176 34.42,38.909 34.42,38.579C34.42,38.249 34.152,37.981 33.822,37.981ZM40.21,31.786L39.612,32.821L43.236,34.913L43.833,33.878L40.21,31.786ZM17.87,31.786L14.245,33.877L14.843,34.913L18.467,32.821L17.87,31.786ZM31.773,25.996L34.798,22.969L32.28,20.451L29.253,23.476L26.592,20.813C25.896,20.117 24.767,20.117 24.071,20.813C23.374,21.51 23.374,22.639 24.071,23.335L26.733,25.996L23.708,29.023L26.226,31.541L29.253,28.516L31.459,30.722L34.61,31.352L33.98,28.201L31.773,25.996ZM28.243,28.516L27.74,28.013L27.236,28.517L27.739,29.02L27.235,29.525L26.228,28.517L25.723,29.021L26.731,30.028L26.226,30.533L24.716,29.023L27.237,26.501L28.747,28.012L28.243,28.516ZM32.1,30.123L32.421,29.162L33.381,28.842L33.702,30.442L32.1,30.123ZM31.478,29.733L25.583,23.839L26.087,23.334L27.6,24.847L28.104,24.343L26.592,22.83L27.096,22.326L32.99,28.221L32.234,28.473L30.625,26.864L30.121,27.368L31.73,28.977L31.478,29.733ZM29.112,26.36L29.617,26.864L30.121,26.36L29.617,25.855L29.112,26.36ZM16.487,26.623L12.303,26.623L12.303,25.428L16.487,25.428L16.487,26.623ZM45.777,26.623L41.593,26.623L41.593,25.428L45.777,25.428L45.777,26.623ZM28.608,24.847L28.104,25.351L28.608,25.855L29.112,25.351L28.608,24.847ZM32.28,21.459L33.79,22.969L33.285,23.474L32.278,22.466L31.774,22.971L32.783,23.978L32.278,24.482L31.775,23.979L31.271,24.483L31.774,24.986L31.27,25.49L29.76,23.98L32.28,21.459ZM24.575,22.831C24.157,22.413 24.157,21.735 24.575,21.318C24.993,20.9 25.67,20.9 26.088,21.318L26.592,21.822L25.079,23.335L24.575,22.831ZM43.237,17.14L39.613,19.232L40.21,20.268L43.835,18.176L43.237,17.14ZM14.844,17.14L14.246,18.175L17.869,20.268L18.467,19.232L14.844,17.14ZM21.189,11.232L20.154,11.83L22.246,15.454L23.281,14.856L21.189,11.232ZM36.89,11.231L34.798,14.855L35.834,15.453L37.926,11.829L36.89,11.231ZM29.638,13.473L28.442,13.473L28.442,9.289L29.638,9.289L29.638,13.473Z" style="fill:white;fill-opacity:0.5;fill-rule:nonzero;"/>
    </g>
</svg>
