<?xml version="1.0" encoding="UTF-8" standalone="no"?>
<!DOCTYPE svg PUBLIC "-//W3C//DTD SVG 1.1//EN" "http://www.w3.org/Graphics/SVG/1.1/DTD/svg11.dtd">
<svg width="100%" height="100%" viewBox="0 0 56 57" version="1.1" xmlns="http://www.w3.org/2000/svg" xmlns:xlink="http://www.w3.org/1999/xlink" xml:space="preserve" xmlns:serif="http://www.serif.com/" style="fill-rule:evenodd;clip-rule:evenodd;stroke-linejoin:round;stroke-miterlimit:1.41421;">
    <rect id="Artboard1" x="-63.12" y="-302.4" width="345.6" height="1464" style="fill:none;"/>
    <g id="branding-zaznaczone" serif:id="branding zaznaczone">
        <g transform="matrix(1,0,0,1,16.559,52.594)">
            <text x="0px" y="0px" style="font-family:'AdobeGothicStd-Bold', 'Adobe Gothic Std', sans-serif;font-weight:700;font-size:5.374px;fill:white;">Branding</text>
        </g>
        <path d="M37.644,24.346C37.644,19.063 33.362,14.782 28.08,14.782C23.953,14.782 20.608,18.127 20.608,22.254C20.608,22.83 20.68,23.39 20.804,23.929L18.516,27.932L20.907,28.53L20.907,32.714L23.298,32.714L23.298,35.703L32.862,35.703L32.862,32.617C35.718,30.963 37.644,27.883 37.644,24.346Z" style="fill:rgb(197,217,45);fill-rule:nonzero;"/>
        <path d="M30.813,24.316L33.838,21.289L31.32,18.771L28.293,21.796L25.632,19.133C24.936,18.437 23.807,18.437 23.111,19.133C22.414,19.83 22.414,20.959 23.111,21.655L25.773,24.316L22.748,27.343L25.266,29.861L28.293,26.836L30.499,29.042L33.65,29.672L33.02,26.521L30.813,24.316ZM27.283,26.836L26.78,26.333L26.276,26.837L26.779,27.34L26.275,27.845L25.268,26.837L24.763,27.341L25.771,28.348L25.266,28.853L23.756,27.343L26.277,24.821L27.787,26.332L27.283,26.836ZM31.14,28.443L31.461,27.482L32.421,27.162L32.742,28.762L31.14,28.443ZM30.518,28.053L24.623,22.159L25.127,21.654L26.64,23.167L27.144,22.663L25.632,21.15L26.136,20.646L32.03,26.541L31.274,26.793L29.665,25.184L29.161,25.688L30.77,27.297L30.518,28.053ZM28.152,24.68L28.657,25.184L29.161,24.68L28.657,24.175L28.152,24.68ZM27.648,23.167L27.144,23.671L27.648,24.175L28.152,23.671L27.648,23.167ZM31.32,19.779L32.83,21.289L32.325,21.794L31.318,20.786L30.814,21.291L31.823,22.298L31.318,22.802L30.815,22.299L30.311,22.803L30.814,23.306L30.31,23.81L28.8,22.3L31.32,19.779ZM23.615,21.151C23.197,20.733 23.197,20.055 23.615,19.638C24.033,19.22 24.71,19.22 25.128,19.638L25.632,20.142L24.119,21.655L23.615,21.151Z" style="fill:white;fill-rule:nonzero;"/>
        <path d="M31.082,30.581L31.069,30.598L31.069,35.105L32.862,35.105C33.851,35.105 34.655,35.91 34.655,36.898C34.655,37.535 34.319,38.092 33.817,38.41C33.966,38.671 34.057,38.968 34.057,39.289C34.057,39.926 33.721,40.483 33.22,40.801C33.368,41.062 33.46,41.359 33.46,41.68C33.46,42.669 32.655,43.474 31.666,43.474L24.493,43.474C23.505,43.474 22.7,42.669 22.7,41.68C22.7,41.359 22.791,41.062 22.94,40.801C22.438,40.483 22.102,39.926 22.102,39.289C22.102,38.968 22.194,38.671 22.342,38.41C21.841,38.092 21.505,37.535 21.505,36.898C21.505,35.91 22.309,35.105 23.298,35.105L25.091,35.105L25.091,30.598L25.079,30.581L31.082,30.581ZM31.667,42.278C31.996,42.278 32.264,42.011 32.264,41.681C32.264,41.351 31.997,41.083 31.667,41.083L24.493,41.083C24.163,41.083 23.896,41.351 23.896,41.681C23.896,42.011 24.163,42.278 24.493,42.278L31.667,42.278ZM32.264,39.887C32.594,39.887 32.862,39.62 32.862,39.29C32.862,38.96 32.594,38.692 32.264,38.692L23.896,38.692C23.566,38.692 23.298,38.96 23.298,39.29C23.298,39.62 23.566,39.887 23.896,39.887L32.264,39.887ZM32.862,37.496C33.192,37.496 33.46,37.229 33.46,36.899C33.46,36.569 33.192,36.301 32.862,36.301L23.298,36.301C22.968,36.301 22.7,36.569 22.7,36.899C22.7,37.229 22.968,37.496 23.298,37.496L32.862,37.496ZM26.287,31.538L26.287,35.105L29.873,35.105L29.873,31.538L26.287,31.538Z" style="fill:white;"/>
        <rect x="27.482" y="7.609" width="1.196" height="4.184" style="fill:white;"/>
        <path d="M20.229,9.552L19.194,10.15L21.286,13.774L22.321,13.176L20.229,9.552Z" style="fill:white;"/>
        <path d="M13.884,15.46L13.286,16.495L16.909,18.588L17.507,17.552L13.884,15.46Z" style="fill:white;"/>
        <rect x="11.343" y="23.748" width="4.184" height="1.196" style="fill:white;"/>
        <path d="M16.91,30.106L13.285,32.197L13.883,33.233L17.507,31.141L16.91,30.106Z" style="fill:white;"/>
        <path d="M39.25,30.106L38.652,31.141L42.276,33.233L42.873,32.198L39.25,30.106Z" style="fill:white;"/>
        <rect x="40.633" y="23.748" width="4.184" height="1.196" style="fill:white;"/>
        <path d="M42.277,15.46L38.653,17.552L39.25,18.588L42.875,16.496L42.277,15.46Z" style="fill:white;"/>
        <path d="M35.93,9.551L33.838,13.175L34.874,13.773L36.966,10.149L35.93,9.551Z" style="fill:white;"/>
    </g>
</svg>
