<?xml version="1.0" encoding="UTF-8" standalone="no"?>
<!DOCTYPE svg PUBLIC "-//W3C//DTD SVG 1.1//EN" "http://www.w3.org/Graphics/SVG/1.1/DTD/svg11.dtd">
<svg width="100%" height="100%" viewBox="0 0 8 16" version="1.1" xmlns="http://www.w3.org/2000/svg" xmlns:xlink="http://www.w3.org/1999/xlink" xml:space="preserve" xmlns:serif="http://www.serif.com/" style="fill-rule:evenodd;clip-rule:evenodd;stroke-linejoin:round;stroke-miterlimit:1.41421;">
    <g transform="matrix(1,0,0,1,-298.35,-5973.6)">
        <g transform="matrix(1.08011,0,0,1.08011,226.218,3928.82)">
            <g transform="matrix(0.472034,0,0,0.472034,45.496,1797.86)">
                <path d="M59.11,217.521L54.712,217.521L54.712,233.202L48.194,233.202L48.194,217.521L45.094,217.521L45.094,211.981L48.194,211.981L48.194,208.397C48.194,205.834 49.41,201.82 54.77,201.82L59.599,201.841L59.599,207.218L56.095,207.218C55.52,207.218 54.712,207.504 54.712,208.726L54.712,211.987L59.677,211.987L59.11,217.521Z" style="fill:white;"/>
            </g>
        </g>
    </g>
</svg>
