<?xml version="1.0" encoding="UTF-8" standalone="no"?><!DOCTYPE svg PUBLIC "-//W3C//DTD SVG 1.1//EN" "http://www.w3.org/Graphics/SVG/1.1/DTD/svg11.dtd"><svg width="100%" height="100%" viewBox="0 0 29 28" version="1.1" xmlns="http://www.w3.org/2000/svg" xmlns:xlink="http://www.w3.org/1999/xlink" xml:space="preserve" xmlns:serif="http://www.serif.com/" style="fill-rule:evenodd;clip-rule:evenodd;stroke-linejoin:round;stroke-miterlimit:1.41421;"><rect id="Artboard1" x="-152.9" y="-215.28" width="460.8" height="1952" style="fill:none;"/><g id="Opis"><g><path d="M13.406,10.335l0,-4.793c1.122,-0.288 1.953,-1.308 1.953,-2.518c0,-1.433 -1.166,-2.599 -2.599,-2.599c-1.434,0 -2.6,1.166 -2.6,2.599c0,1.21 0.832,2.23 1.953,2.518l0,4.793c-1.36,0.205 -2.515,1.044 -3.152,2.207l-2.844,-2.211c0.07,-0.196 0.108,-0.407 0.108,-0.626c0,-1.034 -0.841,-1.875 -1.875,-1.875c-1.034,0 -1.875,0.841 -1.875,1.875c0,1.034 0.841,1.875 1.875,1.875c0.343,0 0.664,-0.093 0.94,-0.254l3.215,2.499c-0.047,0.256 -0.073,0.52 -0.073,0.79c0,0.96 0.314,1.848 0.846,2.567l-3.635,3.635c-0.253,0.252 -0.253,0.662 0,0.914c0.126,0.126 0.292,0.19 0.457,0.19c0.166,0 0.331,-0.064 0.457,-0.19l3.635,-3.635c0.555,0.41 1.21,0.691 1.921,0.798l0,4.804c-0.716,0.264 -1.228,0.953 -1.228,1.759c0,1.034 0.841,1.875 1.875,1.875c1.033,0 1.874,-0.841 1.874,-1.875c0,-0.806 -0.512,-1.495 -1.228,-1.759l0,-4.804c2.081,-0.313 3.682,-2.113 3.682,-4.279c0,-2.167 -1.601,-3.967 -3.682,-4.28Zm-9.056,-0.048c-0.321,0 -0.581,-0.261 -0.581,-0.582c0,-0.321 0.26,-0.581 0.581,-0.581c0.321,0 0.582,0.26 0.582,0.581c0,0.321 -0.261,0.582 -0.582,0.582Zm7.104,-7.263c0,-0.72 0.585,-1.306 1.306,-1.306c0.72,0 1.305,0.586 1.305,1.306c0,0.72 -0.585,1.306 -1.305,1.306c-0.721,0 -1.306,-0.586 -1.306,-1.306Zm1.306,23.015c-0.321,0 -0.582,-0.261 -0.582,-0.582c0,-0.28 0.2,-0.515 0.465,-0.569c0.038,0.007 0.077,0.011 0.117,0.011c0.04,0 0.079,-0.004 0.116,-0.011c0.265,0.054 0.465,0.289 0.465,0.569c0,0.321 -0.261,0.582 -0.581,0.582Zm0,-8.39c-1.674,0 -3.035,-1.361 -3.035,-3.035c0,-0.295 0.043,-0.58 0.122,-0.85c0.004,-0.014 0.008,-0.027 0.012,-0.04c0.381,-1.24 1.537,-2.144 2.901,-2.144c1.673,0 3.034,1.361 3.034,3.034c0,1.674 -1.361,3.035 -3.034,3.035Z" style="fill:#c5d92d;fill-rule:nonzero;"/><path d="M25.558,8.334c-1.433,0 -2.599,1.166 -2.599,2.599c0,0.067 0.003,0.133 0.008,0.198l-4.676,1.595c-0.338,0.115 -0.519,0.482 -0.403,0.82c0.091,0.269 0.343,0.439 0.612,0.439c0.069,0 0.139,-0.012 0.208,-0.035l4.676,-1.594c0.465,0.708 1.266,1.176 2.174,1.176c1.433,0 2.599,-1.166 2.599,-2.599c0,-1.433 -1.166,-2.599 -2.599,-2.599Zm0,3.905c-0.72,0 -1.306,-0.586 -1.306,-1.306c0,-0.72 0.586,-1.306 1.306,-1.306c0.72,0 1.306,0.586 1.306,1.306c0,0.72 -0.586,1.306 -1.306,1.306Z" style="fill:#c5d92d;fill-rule:nonzero;"/><path d="M3.122,21.653c-1.433,0 -2.599,1.166 -2.599,2.599c0,1.433 1.166,2.599 2.599,2.599c1.433,0 2.599,-1.166 2.599,-2.599c0,-1.433 -1.166,-2.599 -2.599,-2.599Zm0,3.905c-0.72,0 -1.306,-0.586 -1.306,-1.306c0,-0.72 0.586,-1.306 1.306,-1.306c0.72,0 1.306,0.586 1.306,1.306c0,0.72 -0.586,1.306 -1.306,1.306Z" style="fill:#c5d92d;fill-rule:nonzero;"/><path d="M13.061,9.99l0,-4.793c1.122,-0.288 1.953,-1.307 1.953,-2.518c0,-1.433 -1.166,-2.599 -2.599,-2.599c-1.433,0 -2.599,1.166 -2.599,2.599c0,1.211 0.831,2.23 1.952,2.518l0,4.793c-1.36,0.205 -2.515,1.045 -3.152,2.207l-2.844,-2.211c0.07,-0.196 0.108,-0.407 0.108,-0.626c0,-1.034 -0.841,-1.875 -1.875,-1.875c-1.033,0 -1.874,0.841 -1.874,1.875c0,1.034 0.841,1.875 1.874,1.875c0.343,0 0.664,-0.093 0.94,-0.254l3.215,2.499c-0.047,0.257 -0.073,0.52 -0.073,0.79c0,0.96 0.315,1.848 0.846,2.567l-3.635,3.635c-0.253,0.252 -0.253,0.662 0,0.914c0.126,0.127 0.292,0.19 0.457,0.19c0.166,0 0.331,-0.063 0.457,-0.19l3.636,-3.635c0.554,0.41 1.209,0.691 1.92,0.798l0,4.804c-0.716,0.264 -1.228,0.953 -1.228,1.76c0,1.033 0.841,1.874 1.875,1.874c1.033,0 1.874,-0.841 1.874,-1.874c0,-0.807 -0.512,-1.496 -1.228,-1.76l0,-4.804c2.081,-0.313 3.682,-2.113 3.682,-4.279c0,-2.167 -1.601,-3.967 -3.682,-4.28Zm-9.056,-0.048c-0.32,0 -0.581,-0.261 -0.581,-0.582c0,-0.32 0.261,-0.581 0.581,-0.581c0.321,0 0.582,0.261 0.582,0.581c0,0.321 -0.261,0.582 -0.582,0.582Zm7.104,-7.263c0,-0.72 0.586,-1.306 1.306,-1.306c0.72,0 1.306,0.586 1.306,1.306c0,0.721 -0.586,1.306 -1.306,1.306c-0.72,0 -1.306,-0.585 -1.306,-1.306Zm1.306,23.015c-0.321,0 -0.582,-0.261 -0.582,-0.581c0,-0.281 0.2,-0.516 0.465,-0.57c0.038,0.007 0.077,0.011 0.117,0.011c0.04,0 0.079,-0.004 0.117,-0.011c0.264,0.054 0.464,0.289 0.464,0.57c0,0.32 -0.261,0.581 -0.581,0.581Zm0,-8.39c-1.674,0 -3.035,-1.361 -3.035,-3.034c0,-0.296 0.043,-0.581 0.122,-0.851c0.004,-0.013 0.008,-0.027 0.012,-0.04c0.381,-1.24 1.537,-2.144 2.901,-2.144c1.673,0 3.034,1.361 3.034,3.035c0,1.673 -1.361,3.034 -3.034,3.034Z" style="fill:#16a984;fill-rule:nonzero;"/><path d="M25.213,7.989c-1.433,0 -2.599,1.166 -2.599,2.599c0,0.067 0.003,0.133 0.008,0.199l-4.676,1.594c-0.338,0.115 -0.518,0.483 -0.403,0.821c0.091,0.268 0.343,0.438 0.612,0.438c0.069,0 0.139,-0.011 0.209,-0.035l4.675,-1.594c0.465,0.708 1.266,1.177 2.174,1.177c1.433,0 2.599,-1.166 2.599,-2.6c0,-1.433 -1.166,-2.599 -2.599,-2.599Zm0,3.905c-0.72,0 -1.306,-0.586 -1.306,-1.306c0,-0.72 0.586,-1.306 1.306,-1.306c0.72,0 1.306,0.586 1.306,1.306c0,0.72 -0.586,1.306 -1.306,1.306Z" style="fill:#16a984;fill-rule:nonzero;"/><path d="M2.777,21.308c-1.433,0 -2.599,1.166 -2.599,2.599c0,1.433 1.166,2.599 2.599,2.599c1.433,0 2.599,-1.166 2.599,-2.599c0,-1.433 -1.166,-2.599 -2.599,-2.599Zm0,3.905c-0.72,0 -1.306,-0.586 -1.306,-1.306c0,-0.72 0.586,-1.306 1.306,-1.306c0.72,0 1.306,0.586 1.306,1.306c0,0.72 -0.586,1.306 -1.306,1.306Z" style="fill:#16a984;fill-rule:nonzero;"/></g></g></svg>