<?xml version="1.0" encoding="UTF-8" standalone="no"?><!DOCTYPE svg PUBLIC "-//W3C//DTD SVG 1.1//EN" "http://www.w3.org/Graphics/SVG/1.1/DTD/svg11.dtd"><svg width="100%" height="100%" viewBox="0 0 28 28" version="1.1" xmlns="http://www.w3.org/2000/svg" xmlns:xlink="http://www.w3.org/1999/xlink" xml:space="preserve" xmlns:serif="http://www.serif.com/" style="fill-rule:evenodd;clip-rule:evenodd;stroke-linejoin:round;stroke-miterlimit:1.41421;"><rect id="Artboard1" x="-153.14" y="-215.52" width="460.8" height="1952" style="fill:none;"/><g id="Opis"><clipPath id="_clip1"><rect id="molecular" x="0.11" y="-0.16" width="27.634" height="27.634"/></clipPath><g clip-path="url(#_clip1)"><g><path d="M12.994,10.114l0,-4.793c1.121,-0.288 1.952,-1.308 1.952,-2.518c0,-1.433 -1.166,-2.599 -2.599,-2.599c-1.433,0 -2.599,1.166 -2.599,2.599c0,1.21 0.831,2.23 1.953,2.518l0,4.793c-1.36,0.204 -2.515,1.044 -3.152,2.207l-2.844,-2.211c0.069,-0.196 0.108,-0.407 0.108,-0.626c0,-1.034 -0.842,-1.875 -1.875,-1.875c-1.034,0 -1.875,0.841 -1.875,1.875c0,1.034 0.841,1.875 1.875,1.875c0.342,0 0.663,-0.093 0.94,-0.254l3.215,2.499c-0.048,0.256 -0.074,0.52 -0.074,0.789c0,0.961 0.315,1.849 0.846,2.568l-3.635,3.635c-0.252,0.252 -0.252,0.662 0,0.914c0.127,0.126 0.292,0.189 0.458,0.189c0.165,0 0.331,-0.063 0.457,-0.189l3.635,-3.635c0.554,0.41 1.209,0.691 1.921,0.798l0,4.803c-0.716,0.264 -1.229,0.954 -1.229,1.76c0,1.034 0.841,1.875 1.875,1.875c1.034,0 1.875,-0.841 1.875,-1.875c0,-0.806 -0.512,-1.496 -1.228,-1.76l0,-4.803c2.081,-0.313 3.681,-2.113 3.681,-4.28c0,-2.166 -1.6,-3.966 -3.681,-4.279Zm-9.056,-0.049c-0.321,0 -0.582,-0.26 -0.582,-0.581c0,-0.321 0.261,-0.582 0.582,-0.582c0.32,0 0.581,0.261 0.581,0.582c0,0.321 -0.261,0.581 -0.581,0.581Zm7.103,-7.262c0,-0.72 0.586,-1.306 1.306,-1.306c0.72,0 1.306,0.586 1.306,1.306c0,0.72 -0.586,1.306 -1.306,1.306c-0.72,0 -1.306,-0.586 -1.306,-1.306Zm1.306,23.015c-0.321,0 -0.581,-0.261 -0.581,-0.582c0,-0.28 0.199,-0.515 0.464,-0.57c0.038,0.007 0.077,0.012 0.117,0.012c0.04,0 0.079,-0.005 0.117,-0.012c0.265,0.055 0.465,0.29 0.465,0.57c0,0.321 -0.261,0.582 -0.582,0.582Zm0,-8.39c-1.673,0 -3.034,-1.361 -3.034,-3.035c0,-0.295 0.043,-0.58 0.122,-0.85c0.004,-0.014 0.008,-0.027 0.011,-0.041c0.382,-1.24 1.538,-2.143 2.901,-2.143c1.674,0 3.035,1.361 3.035,3.034c0,1.674 -1.361,3.035 -3.035,3.035Z" style="fill-rule:nonzero;"/><path d="M25.146,8.113c-1.434,0 -2.6,1.166 -2.6,2.599c0,0.067 0.004,0.133 0.009,0.198l-4.676,1.595c-0.338,0.115 -0.519,0.482 -0.404,0.82c0.092,0.269 0.343,0.438 0.612,0.438c0.069,0 0.14,-0.011 0.209,-0.034l4.676,-1.595c0.465,0.708 1.265,1.177 2.174,1.177c1.433,0 2.599,-1.166 2.599,-2.599c0,-1.433 -1.166,-2.599 -2.599,-2.599Zm0,3.905c-0.721,0 -1.306,-0.586 -1.306,-1.306c0,-0.72 0.586,-1.306 1.306,-1.306c0.72,0 1.306,0.586 1.306,1.306c0,0.72 -0.586,1.306 -1.306,1.306Z" style="fill-rule:nonzero;"/><path d="M2.71,21.432c-1.434,0 -2.6,1.166 -2.6,2.599c0,1.433 1.166,2.599 2.6,2.599c1.433,0 2.599,-1.166 2.599,-2.599c0,-1.433 -1.166,-2.599 -2.599,-2.599Zm0,3.905c-0.721,0 -1.306,-0.586 -1.306,-1.306c0,-0.72 0.586,-1.306 1.306,-1.306c0.72,0 1.305,0.586 1.305,1.306c0.001,0.72 -0.585,1.306 -1.305,1.306Z" style="fill-rule:nonzero;"/></g></g></g></svg>