<?xml version="1.0" encoding="UTF-8" standalone="no"?>
<!DOCTYPE svg PUBLIC "-//W3C//DTD SVG 1.1//EN" "http://www.w3.org/Graphics/SVG/1.1/DTD/svg11.dtd">
<svg width="100%" height="100%" viewBox="0 0 590 735" version="1.1" xmlns="http://www.w3.org/2000/svg" xmlns:xlink="http://www.w3.org/1999/xlink" xml:space="preserve" xmlns:serif="http://www.serif.com/" style="fill-rule:evenodd;clip-rule:evenodd;stroke-linecap:round;stroke-linejoin:round;stroke-miterlimit:1.5;">
    <g transform="matrix(1,0,0,1,-1110.21,-161.549)">
        <g transform="matrix(1,0,0,1.14,0,-2.43055e-13)">
            <g transform="matrix(0.99331,0,0,0.871324,1321.93,195.607)">
                <g transform="matrix(1.38022,0.557646,7.57486e-17,1.60553,-2755.43,-3216.37)">
                    <path d="M2232.72,1526.09L2197.28,1526.09L2197.28,1467.03L2256.34,1467.03L2256.34,1502.46C2256.34,1515.5 2245.75,1526.09 2232.72,1526.09ZM2173.66,1502.46L2173.66,1526.04L2061.45,1526.09C2025.6,1526.09 1996.5,1496.98 1996.5,1461.13L1996.5,1331.21C1996.5,1295.35 2025.6,1266.25 2061.45,1266.25L2191.38,1266.25C2227.23,1266.25 2256.34,1295.35 2256.34,1331.21L2256.34,1443.37L2232.72,1443.37L2232.72,1337.92C2232.72,1308.58 2214,1289.87 2184.67,1289.87L2068.17,1289.87C2038.83,1289.87 2020.12,1308.58 2020.12,1337.92L2020.12,1454.42C2020.12,1483.75 2038.83,1502.46 2068.17,1502.46L2173.66,1502.46Z" style="fill:none;stroke:rgb(0,232,195);stroke-width:1.11px;"/>
                </g>
                <g transform="matrix(0.24,0,0,0.24,-1333.7,-2434.39)">
                    <path d="M7052.14,11798.4L7139.22,11711.4" style="fill:none;stroke:rgb(0,232,195);stroke-width:8.39px;"/>
                </g>
                <g transform="matrix(0.24,0,0,0.24,-1333.7,-2434.39)">
                    <path d="M6712.52,11661.2L6799.6,11574.1" style="fill:none;stroke:rgb(0,232,195);stroke-width:8.39px;"/>
                </g>
                <g transform="matrix(0.24,0,0,0.24,-1333.7,-2434.39)">
                    <path d="M6576.67,11843.4L6663.75,11756.6" style="fill:none;stroke:rgb(0,232,195);stroke-width:8.39px;"/>
                </g>
                <g transform="matrix(1.38022,0.557646,7.57486e-17,1.60553,-2734.53,-3237.27)">
                    <path d="M2197.28,1485.32L2197.28,1467.03L2256.34,1467.03L2256.34,1502.46C2256.34,1512.63 2249.9,1521.31 2240.89,1524.63M2024.3,1316.05C2021.57,1322.4 2020.12,1329.75 2020.12,1337.92L2020.12,1454.42C2020.12,1483.75 2038.83,1502.46 2068.17,1502.46L2173.66,1502.46L2173.66,1526.04L2158.52,1544.32" style="fill:none;stroke:rgb(0,232,195);stroke-width:1.11px;"/>
                </g>
                <g transform="matrix(1.38022,0.557646,7.57486e-17,1.60553,-2734.53,-3237.27)">
                    <path d="M2004.53,1299.91C2015.59,1279.85 2036.94,1266.25 2061.45,1266.25L2191.38,1266.25C2227.23,1266.25 2256.34,1295.35 2256.34,1331.21L2256.34,1443.37L2241.2,1461.64" style="fill:none;stroke:rgb(0,232,195);stroke-width:1.11px;"/>
                </g>
            </g>
            <g transform="matrix(0.99331,0,0,0.871324,1216.48,280.59)">
                <g transform="matrix(1.38022,0.557646,7.57486e-17,1.60553,-2734.53,-3237.27)">
                    <path d="M2240.68,1461.38L2233.57,1338.56C2233.57,1302.95 2209.98,1288.7 2174.37,1288.7C2174.37,1288.7 2044.63,1299.58 2044.63,1299.58C2020.51,1299.58 1990.52,1316.26 1990.72,1315.89C1994.24,1309.5 2011.96,1287.69 2017.31,1282.81C2029.03,1272.11 2044.62,1265.57 2061.73,1265.57C2061.73,1265.57 2191.65,1265.57 2191.65,1265.57C2227.74,1265.57 2257.07,1294.86 2257.07,1330.95L2257.07,1443.11C2257.07,1443.28 2256.99,1443.46 2256.85,1443.63L2241.71,1461.91C2241.43,1462.25 2240.97,1462.41 2240.68,1462.27C2240.39,1462.12 2240.39,1461.72 2240.68,1461.38Z" style="fill:rgb(0,247,198);"/>
                </g>
                <g transform="matrix(1.38022,0.557646,7.57486e-17,1.60553,-2734.53,-3237.27)">
                    <path d="M2240.16,1524.9C2240.14,1524.56 2197.68,1485.8 2197.28,1485.94C2196.88,1486.08 2182.14,1485.31 2182.14,1485.31L2196.55,1466.36L2256.61,1466.36C2256.89,1466.36 2257.07,1466.52 2257.07,1466.78C2257.07,1466.78 2257.07,1502.21 2257.07,1502.21C2257.07,1507.86 2255.14,1513.06 2251.91,1517.2C2249.09,1520.82 2240.13,1531.49 2234.4,1537.31C2234.08,1537.64 2240.17,1525.25 2240.16,1524.9ZM2157.76,1540.09C2157.76,1540.09 2043.73,1559.22 2003.64,1499.69C1977.48,1460.82 2001.35,1342.66 2001.35,1342.66C2001.35,1334.39 2011.86,1325.05 2014.62,1318.62C2014.78,1318.25 2024.22,1315.37 2024.59,1315.38C2024.96,1315.39 2025.13,1315.7 2024.97,1316.07C2022.27,1322.34 2020.85,1329.59 2020.85,1337.66L2020.85,1454.16C2020.85,1483.23 2039.37,1501.79 2068.44,1501.79L2174.39,1501.79L2174.39,1526.06L2158.52,1544.32C2158.52,1544.32 2157.47,1540.44 2157.76,1540.09Z" style="fill:rgb(0,247,198);"/>
                </g>
                <g transform="matrix(1.38022,0.557646,7.57486e-17,1.60553,-2755.43,-3216.37)">
                    <path d="M2232.72,1526.09L2197.28,1526.09L2197.28,1467.03L2256.34,1467.03L2256.34,1502.46C2256.34,1515.5 2245.75,1526.09 2232.72,1526.09ZM2173.66,1502.46L2173.66,1526.04L2061.45,1526.09C2025.6,1526.09 1996.5,1496.98 1996.5,1461.13L1996.5,1331.21C1996.5,1295.35 2025.6,1266.25 2061.45,1266.25L2191.38,1266.25C2227.23,1266.25 2256.34,1295.35 2256.34,1331.21L2256.34,1443.37L2232.72,1443.37L2232.72,1337.92C2232.72,1308.58 2214,1289.87 2184.67,1289.87L2068.17,1289.87C2038.83,1289.87 2020.12,1308.58 2020.12,1337.92L2020.12,1454.42C2020.12,1483.75 2038.83,1502.46 2068.17,1502.46L2173.66,1502.46Z" style="fill:rgb(0,224,180);"/>
                </g>
            </g>
            <g transform="matrix(0.99331,0,0,0.871324,1111.03,365.574)">
                <g transform="matrix(1.38022,0.557646,7.57486e-17,1.60553,-2755.43,-3216.37)">
                    <path d="M2232.72,1526.09L2197.28,1526.09L2197.28,1467.03L2256.34,1467.03L2256.34,1502.46C2256.34,1515.5 2245.75,1526.09 2232.72,1526.09ZM2173.66,1502.46L2173.66,1526.04L2061.45,1526.09C2025.6,1526.09 1996.5,1496.98 1996.5,1461.13L1996.5,1331.21C1996.5,1295.35 2025.6,1266.25 2061.45,1266.25L2191.38,1266.25C2227.23,1266.25 2256.34,1295.35 2256.34,1331.21L2256.34,1443.37L2232.72,1443.37L2232.72,1337.92C2232.72,1308.58 2214,1289.87 2184.67,1289.87L2068.17,1289.87C2038.83,1289.87 2020.12,1308.58 2020.12,1337.92L2020.12,1454.42C2020.12,1483.75 2038.83,1502.46 2068.17,1502.46L2173.66,1502.46Z" style="fill:none;stroke:rgb(0,232,195);stroke-width:1.11px;"/>
                </g>
                <g transform="matrix(0.24,0,0,0.24,-1333.7,-2434.39)">
                    <path d="M7052.14,11798.4L7139.22,11711.4" style="fill:none;stroke:rgb(0,232,195);stroke-width:8.39px;"/>
                </g>
                <g transform="matrix(0.24,0,0,0.24,-1333.7,-2434.39)">
                    <path d="M6712.52,11661.2L6799.6,11574.1" style="fill:none;stroke:rgb(0,232,195);stroke-width:8.39px;"/>
                </g>
                <g transform="matrix(0.24,0,0,0.24,-1333.7,-2434.39)">
                    <path d="M6576.67,11843.4L6663.75,11756.6" style="fill:none;stroke:rgb(0,232,195);stroke-width:8.39px;"/>
                </g>
                <g transform="matrix(1.38022,0.557646,7.57486e-17,1.60553,-2734.53,-3237.27)">
                    <path d="M2197.28,1485.32L2197.28,1467.03L2256.34,1467.03L2256.34,1502.46C2256.34,1512.63 2249.9,1521.31 2240.89,1524.63M2024.3,1316.05C2021.57,1322.4 2020.12,1329.75 2020.12,1337.92L2020.12,1454.42C2020.12,1483.75 2038.83,1502.46 2068.17,1502.46L2173.66,1502.46L2173.66,1526.04L2158.52,1544.32" style="fill:none;stroke:rgb(0,232,195);stroke-width:1.11px;"/>
                </g>
                <g transform="matrix(1.38022,0.557646,7.57486e-17,1.60553,-2734.53,-3237.27)">
                    <path d="M2004.53,1299.91C2015.59,1279.85 2036.94,1266.25 2061.45,1266.25L2191.38,1266.25C2227.23,1266.25 2256.34,1295.35 2256.34,1331.21L2256.34,1443.37L2241.2,1461.64" style="fill:none;stroke:rgb(0,232,195);stroke-width:1.11px;"/>
                </g>
            </g>
        </g>
    </g>
</svg>
