<?xml version="1.0" encoding="UTF-8" standalone="no"?>
<!DOCTYPE svg PUBLIC "-//W3C//DTD SVG 1.1//EN" "http://www.w3.org/Graphics/SVG/1.1/DTD/svg11.dtd">
<svg viewBox="0 0 167 50" xmlns="http://www.w3.org/2000/svg">
    <path d="M162.885 50h-5.02v-8.365h8.365v5.018c0 1.847-1.5 3.347-3.345 3.347zm-8.365-3.347v3.34L138.627 50c-5.078 0-9.2-4.123-9.2-9.2V22.397c0-5.079 4.122-9.2 9.2-9.2h18.403c5.077 0 9.2 4.121 9.2 9.2v15.886h-3.345V24.071a7.531 7.531 0 0 0-7.528-7.528h-15.056a7.53 7.53 0 0 0-7.528 7.528v15.056a7.53 7.53 0 0 0 7.528 7.526h14.219zM98.17 13.203l15.893-.007c5.078 0 9.2 4.123 9.2 9.2v18.402c0 5.08-4.122 9.2-9.2 9.2H95.66c-5.077 0-9.2-4.12-9.2-9.2V0h3.345v39.125a7.531 7.531 0 0 0 7.528 7.528h15.056a7.53 7.53 0 0 0 7.528-7.528V24.07a7.53 7.53 0 0 0-7.528-7.527H98.17v-3.34zM80.296 49.993L52.692 50c-5.077 0-9.199-4.123-9.199-9.2V22.397c0-5.079 4.122-9.2 9.2-9.2h18.402c5.078 0 9.2 4.121 9.2 9.2v15.886H55.203v-3.343H76.95v-10.87a7.531 7.531 0 0 0-7.528-7.528H54.367a7.53 7.53 0 0 0-7.528 7.528v15.056a7.53 7.53 0 0 0 7.528 7.526h25.929v3.34zM28.127 50h-1.322v-3.364c3.987-.173 7.171-3.466 7.177-7.51V13.198h3.34l.005 27.602c0 5.078-4.121 9.201-9.2 9.201zM3.347 13.197v25.93c.005 4.043 3.189 7.336 7.174 7.51L9.201 50C4.122 50 0 45.877 0 40.8l.006-27.603h3.34zM18.663 50H9.201l1.32-3.364h4.798l-.002-11.695h3.34l.007 15.06z" fill="#fff"/>
</svg>
