<?xml version="1.0" encoding="UTF-8" standalone="no"?>
<!DOCTYPE svg PUBLIC "-//W3C//DTD SVG 1.1//EN" "http://www.w3.org/Graphics/SVG/1.1/DTD/svg11.dtd">
<svg width="100%" height="100%" viewBox="0 0 167 50" version="1.1" xmlns="http://www.w3.org/2000/svg">
    <g transform="matrix(1.00463,0,0,1.00463,7.77156e-16,-0.231611)">
        <path d="M154.52,46.653L154.52,49.993L138.627,50C133.549,50 129.427,45.877 129.427,40.8L129.427,22.397C129.427,17.318 133.549,13.197 138.627,13.197L157.03,13.197C162.107,13.197 166.23,17.318 166.23,22.397L166.23,38.283L162.885,38.283L162.885,24.071C162.883,19.942 159.486,16.545 155.357,16.543L140.301,16.543C136.172,16.544 132.774,19.942 132.773,24.071L132.773,39.127C132.775,43.256 136.172,46.652 140.301,46.653L154.52,46.653ZM98.17,13.203L114.063,13.196C119.141,13.196 123.263,17.319 123.263,22.396L123.263,40.798C123.263,45.878 119.141,49.998 114.063,49.998L95.66,49.998C90.583,49.998 86.46,45.878 86.46,40.798L86.46,0L89.805,0L89.805,39.125C89.807,43.254 93.204,46.651 97.333,46.653L112.389,46.653C116.518,46.652 119.916,43.254 119.917,39.125L119.917,24.07C119.915,19.941 116.518,16.544 112.389,16.543L98.17,16.543L98.17,13.203ZM80.296,49.993L52.692,50C47.615,50 43.493,45.877 43.493,40.8L43.493,22.397C43.493,17.318 47.615,13.197 52.693,13.197L71.095,13.197C76.173,13.197 80.295,17.318 80.295,22.397L80.295,38.283L55.203,38.283L55.203,34.94L76.95,34.94L76.95,24.07C76.948,19.941 73.551,16.544 69.422,16.542L54.367,16.542C50.238,16.543 46.84,19.941 46.839,24.07L46.839,39.126C46.841,43.255 50.238,46.651 54.367,46.652L80.296,46.652L80.296,49.993ZM28.127,50L26.805,50L26.805,46.636C30.792,46.463 33.976,43.17 33.982,39.126L33.982,13.198L37.322,13.198L37.327,40.8C37.327,45.878 33.206,50.001 28.127,50.001L28.127,50ZM3.346,13.197L3.347,19.219L3.347,39.127C3.352,43.17 6.536,46.463 10.521,46.637L9.201,50C4.122,50 0,45.877 0,40.8L0.006,13.197L3.346,13.197ZM18.663,50L9.201,50L10.521,46.636L15.319,46.636L15.317,34.941L18.657,34.941L18.664,50.001L18.663,50Z" style="fill:white;"/>
    </g>
</svg>
