<?xml version="1.0" encoding="UTF-8" standalone="no"?>
<!DOCTYPE svg PUBLIC "-//W3C//DTD SVG 1.1//EN" "http://www.w3.org/Graphics/SVG/1.1/DTD/svg11.dtd">
<svg width="100%" height="100%" viewBox="0 0 3508 2481" version="1.1" xmlns="http://www.w3.org/2000/svg" xmlns:xlink="http://www.w3.org/1999/xlink" xml:space="preserve" style="fill-rule:evenodd;clip-rule:evenodd;stroke-linecap:round;stroke-linejoin:round;stroke-miterlimit:1.5;">
    <rect x="-59.304" y="-35.56" width="3765.41" height="2635.36" style="fill:rgb(38,38,38);stroke:rgb(38,38,38);stroke-width:12.5px;"/>
    <g id="webo" transform="matrix(1,0,0,1,174.741,-118.622)">
        <g transform="matrix(1,0,0,1,-90.3196,-2.27374e-13)">
            <path d="M2232.72,1526.09L2197.28,1526.09L2197.28,1467.03L2256.34,1467.03L2256.34,1502.46C2256.34,1515.5 2245.75,1526.09 2232.72,1526.09ZM2173.66,1502.46L2173.66,1526.04L2061.45,1526.09C2025.6,1526.09 1996.5,1496.98 1996.5,1461.13L1996.5,1331.21C1996.5,1295.35 2025.6,1266.25 2061.45,1266.25L2191.38,1266.25C2227.23,1266.25 2256.34,1295.35 2256.34,1331.21L2256.34,1443.37L2232.72,1443.37L2232.72,1343.02C2232.72,1313.68 2208.9,1289.87 2179.57,1289.87L2073.27,1289.87C2043.93,1289.87 2020.12,1313.68 2020.12,1343.02L2020.12,1449.32C2020.12,1478.65 2043.93,1502.46 2073.27,1502.46L2173.66,1502.46Z" style="fill:rgb(178,241,199);"/>
        </g>
        <g transform="matrix(-1,0,0,-1,3859.15,2792.33)">
            <path d="M2173.66,1526.04L2061.45,1526.09C2025.6,1526.09 1996.5,1496.98 1996.5,1461.13L1996.5,1331.21C1996.5,1295.35 2025.6,1266.25 2061.45,1266.25L2191.38,1266.25C2227.23,1266.25 2256.34,1295.35 2256.34,1331.21L2256.34,1619.26L2232.72,1619.26L2232.72,1343.02C2232.72,1313.68 2208.9,1289.87 2179.57,1289.87L2073.27,1289.87C2043.93,1289.87 2020.12,1313.68 2020.12,1343.02L2020.12,1449.32C2020.12,1478.65 2043.93,1502.46 2073.27,1502.46L2173.66,1502.46L2173.66,1526.04Z" style="fill:rgb(178,241,199);"/>
        </g>
        <g transform="matrix(1,0,0,1,-697.048,0)">
            <path d="M2256.34,1526.04L2061.45,1526.09C2025.6,1526.09 1996.5,1496.98 1996.5,1461.13L1996.5,1331.21C1996.5,1295.35 2025.6,1266.25 2061.45,1266.25L2191.38,1266.25C2227.23,1266.25 2256.34,1295.35 2256.34,1331.21L2256.34,1443.37L2079.17,1443.37L2079.17,1419.77L2232.72,1419.77L2232.72,1343.02C2232.72,1313.68 2208.9,1289.87 2179.57,1289.87L2073.27,1289.87C2043.93,1289.87 2020.12,1313.68 2020.12,1343.02L2020.12,1449.32C2020.12,1478.65 2043.93,1502.46 2073.27,1502.46L2256.34,1502.46L2256.34,1526.04Z" style="fill:rgb(178,241,199);"/>
        </g>
        <path d="M1190.96,1526.09L1181.63,1526.09L1181.63,1502.34C1209.78,1501.12 1232.26,1477.87 1232.3,1449.32L1232.3,1266.25L1255.88,1266.25L1255.92,1461.13C1255.92,1496.98 1226.82,1526.09 1190.96,1526.09ZM1016,1266.25L1016,1449.32C1016.04,1477.87 1038.52,1501.12 1066.66,1502.34L1057.34,1526.09C1021.48,1526.09 992.374,1496.98 992.374,1461.13L992.419,1266.25L1016,1266.25ZM1124.15,1526.09L1057.34,1526.09L1066.66,1502.34L1100.53,1502.34L1100.52,1419.77L1124.1,1419.77L1124.15,1526.09Z" style="fill:rgb(178,241,199);"/>
    </g>
</svg>
