<?xml version="1.0" encoding="UTF-8" standalone="no"?><!DOCTYPE svg PUBLIC "-//W3C//DTD SVG 1.1//EN" "http://www.w3.org/Graphics/SVG/1.1/DTD/svg11.dtd"><svg width="100%" height="100%" viewBox="0 0 58 57" version="1.1" xmlns="http://www.w3.org/2000/svg" xmlns:xlink="http://www.w3.org/1999/xlink" xml:space="preserve" xmlns:serif="http://www.serif.com/" style="fill-rule:evenodd;clip-rule:evenodd;stroke-linejoin:round;stroke-miterlimit:1.41421;"><rect id="Artboard1" x="-229.92" y="-468.24" width="345.6" height="1464" style="fill:none;"/><clipPath id="_clip1"><rect x="-229.92" y="-468.24" width="345.6" height="1464"/></clipPath><g clip-path="url(#_clip1)"><rect id="tło" x="-229.92" y="-84.24" width="345.6" height="818.4" style="fill:#fff;"/><g id="MEET-OUR-TEAM" serif:id="MEET OUR TEAM"><g><rect x="1.221" y="0.781" width="54.459" height="54.459" style="fill:#c5eae1;"/><g><g><clipPath id="_clip2"><rect x="9.475" y="27.492" width="37.866" height="12.146"/></clipPath><g clip-path="url(#_clip2)"><path d="M46.312,68.399c0,1.852 -1.359,3.354 -3.036,3.354l-29.736,0c-1.677,0 -3.037,-1.502 -3.037,-3.354l0,-37.553c0,-1.852 1.36,-3.354 3.037,-3.354l29.736,0c1.677,0 3.036,1.502 3.036,3.354l0,37.553Z" style="fill:none;stroke:#6ecbb4;stroke-width:0.24px;"/><path d="M45.079,66.826c0,1.722 -1.266,3.119 -2.828,3.119l-27.687,0c-1.562,0 -2.828,-1.397 -2.828,-3.119l0,-34.931c0,-1.723 1.266,-3.119 2.828,-3.119l27.687,0c1.562,0 2.828,1.396 2.828,3.119l0,34.931Z" style="fill:none;stroke:#6ecbb4;stroke-width:0.24px;"/><path d="M15.214,30.788c0,1.112 -0.764,2.013 -1.707,2.013l-2.326,0c-0.942,0 -1.706,-0.901 -1.706,-2.013c0,-1.111 0.764,-2.012 1.706,-2.012l2.326,0c0.943,0 1.707,0.901 1.707,2.012Z" style="fill:none;stroke:#6ecbb4;stroke-width:0.24px;"/><path d="M47.341,30.788c0,1.112 -0.764,2.013 -1.706,2.013l-2.327,0c-0.942,0 -1.706,-0.901 -1.706,-2.013c0,-1.111 0.764,-2.012 1.706,-2.012l2.327,0c0.942,0 1.706,0.901 1.706,2.012Z" style="fill:none;stroke:#6ecbb4;stroke-width:0.24px;"/></g></g><g><clipPath id="_clip3"><rect x="6.887" y="34.052" width="43.126" height="13.814"/></clipPath><g clip-path="url(#_clip3)"><path d="M12.42,48.869c0,0 -0.205,-3.638 -5.533,-9.274c0,0 1.229,-5.43 5.533,-3.484c0,0 1.148,1.106 0,12.758Z" style="fill:none;stroke:#6ecbb4;stroke-width:0.24px;"/><path d="M44.48,48.869c0,0 0.205,-3.638 5.533,-9.274c0,0 -1.23,-5.43 -5.533,-3.484c0,0 -1.148,1.106 0,12.758Z" style="fill:none;stroke:#6ecbb4;stroke-width:0.24px;"/><path d="M28.466,34.456c-10.434,-1.499 -16.054,1.655 -16.054,1.655l0,14.372c0,0 -0.186,1.358 0,3.897c0.186,2.539 -0.531,6.56 -0.393,11.67c0.138,5.111 0.393,14.588 0.393,14.588l11.527,0l0,-0.607c0,-2.289 2.425,-4.125 4.527,-4.125c2.102,0 4.528,1.836 4.528,4.125l0,0.607l11.526,0l0,-13.077c0,0 0.282,-3.545 0.713,-8.816c0.474,-5.803 -0.765,-11.879 -0.765,-11.879l0.052,-10.755c0,0 -5.62,-3.154 -16.054,-1.655Z" style="fill:none;stroke:#6ecbb4;stroke-width:0.24px;"/><path d="M28.466,35.135c-10.434,-1.363 -16.054,1.505 -16.054,1.505l0,13.07c0,0 -0.186,1.236 0,3.546c0.186,2.308 -0.531,5.965 -0.393,10.612c0.138,4.648 0.393,15.604 0.393,15.604l11.527,0l0,-2.889c0,-2.082 2.425,-3.752 4.527,-3.752c2.102,0 4.528,1.67 4.528,3.752l0,2.889l11.526,0l0,-14.23c0,0 0.282,-3.224 0.713,-8.018c0.474,-5.276 -0.765,-10.802 -0.765,-10.802l0.052,-9.782c0,0 -5.62,-2.868 -16.054,-1.505Z" style="fill:none;stroke:#6ecbb4;stroke-width:0.24px;"/></g></g><path d="M37.154,30.576l-8.916,3.065l-8.916,-3.065l-1.614,4.096c0,0 3.227,3.233 10.53,3.233c7.303,0 10.529,-3.233 10.529,-3.233l-1.613,-4.096Z" style="fill:none;stroke:#6ecbb4;stroke-width:0.24px;"/><path d="M11.655,14.868c-0.631,0.549 -1.117,1.045 -1.117,4.34c0,3.295 0.486,3.79 1.117,4.339c1.286,1.122 2.875,1.377 2.875,1.377l0,-5.716l0,-5.716c0,0 -1.589,0.255 -2.875,1.376Z" style="fill:none;stroke:#6ecbb4;stroke-width:0.24px;"/><path d="M12.008,16.042c-0.377,0.401 -0.668,0.762 -0.668,3.166c0,2.403 0.291,2.765 0.668,3.165c0.77,0.819 1.72,1.005 1.72,1.005l0,-4.17l0,-4.17c0,0 -0.95,0.186 -1.72,1.004Z" style="fill:none;stroke:#6ecbb4;stroke-width:0.24px;"/><path d="M11.391,17.758c-0.033,0.379 -0.051,0.851 -0.051,1.45c0,0.6 0.018,1.072 0.051,1.449l2.337,0l0,-1.449l0,-1.45l-2.337,0Z" style="fill:none;stroke:#6ecbb4;stroke-width:0.24px;"/><path d="M44.643,14.868c0.63,0.549 1.117,1.045 1.117,4.34c0,3.295 -0.487,3.79 -1.117,4.339c-1.287,1.122 -2.876,1.377 -2.876,1.377l0,-5.716l0,-5.716c0,0 1.589,0.255 2.876,1.376Z" style="fill:none;stroke:#6ecbb4;stroke-width:0.24px;"/><path d="M44.289,16.042c0.378,0.401 0.668,0.762 0.668,3.166c0,2.403 -0.29,2.765 -0.668,3.165c-0.769,0.819 -1.719,1.005 -1.719,1.005l0,-4.17l0,-4.17c0,0 0.95,0.186 1.719,1.004Z" style="fill:none;stroke:#6ecbb4;stroke-width:0.24px;"/><path d="M44.907,17.758c0.032,0.379 0.05,0.851 0.05,1.45c0,0.6 -0.018,1.072 -0.05,1.449l-2.337,0l0,-1.449l0,-1.45l2.337,0Z" style="fill:none;stroke:#6ecbb4;stroke-width:0.24px;"/><path d="M43.269,19.255c-0.027,8.301 -6.777,15.01 -15.079,14.985c-8.301,-0.028 -15.009,-6.778 -14.984,-15.08c0.028,-8.302 6.778,-15.008 15.077,-14.984c8.304,0.027 15.011,6.777 14.986,15.079Z" style="fill:none;stroke:#6ecbb4;stroke-width:0.24px;"/><path d="M40.044,20.34c-0.022,6.718 -5.326,12.144 -11.848,12.123c-6.521,-0.021 -11.794,-5.479 -11.772,-12.197c0.022,-6.717 5.325,-12.144 11.848,-12.123c6.524,0.019 11.793,5.482 11.772,12.197Z" style="fill:none;stroke:#6ecbb4;stroke-width:0.24px;"/><path d="M16.424,20.266c-0.118,-1.571 0.129,-3.175 0.641,-4.693c0.543,-1.51 1.392,-2.919 2.482,-4.123c2.166,-2.432 5.432,-3.878 8.727,-3.858c3.295,0 6.551,1.465 8.704,3.91c1.083,1.213 1.922,2.628 2.457,4.141c0.501,1.523 0.737,3.126 0.609,4.697c-0.21,-3.134 -1.52,-6.119 -3.68,-8.253c-2.145,-2.135 -5.094,-3.411 -8.093,-3.392c-2.999,-0.038 -5.956,1.217 -8.115,3.339c-2.176,2.12 -3.504,5.097 -3.732,8.232Z" style="fill:none;stroke:#6ecbb4;stroke-width:0.24px;"/><path d="M32.892,29.714c-0.366,-0.001 -0.721,-0.183 -0.93,-0.513c-0.326,-0.514 -0.173,-1.195 0.342,-1.522c5.669,-3.585 2.762,-10.23 2.635,-10.512c-0.249,-0.555 -0.003,-1.209 0.553,-1.459c0.557,-0.249 1.208,-0.002 1.459,0.555c1.346,2.983 2.349,9.601 -3.469,13.281c-0.181,0.116 -0.389,0.171 -0.59,0.17Z" style="fill:none;stroke:#6ecbb4;stroke-width:0.24px;"/><path d="M35.423,13.712c-0.002,0.685 -0.559,1.24 -1.244,1.237c-0.685,-0.001 -1.239,-0.56 -1.238,-1.244c0.002,-0.686 0.56,-1.241 1.244,-1.237c0.687,0.003 1.241,0.559 1.238,1.244Z" style="fill:none;stroke:#6ecbb4;stroke-width:0.24px;"/></g></g></g><g id="Head"><g id="baner"><g id="kulka"></g></g></g></g></svg>