<?xml version="1.0" encoding="UTF-8" standalone="no"?>
<!DOCTYPE svg PUBLIC "-//W3C//DTD SVG 1.1//EN" "http://www.w3.org/Graphics/SVG/1.1/DTD/svg11.dtd">
<svg width="100%" height="100%" viewBox="0 0 55 55" version="1.1" xmlns="http://www.w3.org/2000/svg" xmlns:xlink="http://www.w3.org/1999/xlink" xml:space="preserve" xmlns:serif="http://www.serif.com/" style="fill-rule:evenodd;clip-rule:evenodd;stroke-linejoin:round;stroke-miterlimit:1.41421;">
    <g id="Artboard1" transform="matrix(0.978071,0,0,0.985862,0,0)">
        <rect x="0" y="0" width="55.68" height="55.24" style="fill:none;"/>
        <clipPath id="_clip1">
            <rect x="0" y="0" width="55.68" height="55.24"/>
        </clipPath>
        <g clip-path="url(#_clip1)">
            <g transform="matrix(1.02242,0,0,1.01434,-1.24838,-0.792199)">
                <g id="MEET-OUR-TEAM" serif:id="MEET OUR TEAM">
                    <rect x="1.221" y="0.781" width="54.459" height="54.459" style="fill:rgb(197,234,225);"/>
                    <clipPath id="_clip2">
                        <rect x="1.221" y="0.781" width="54.459" height="54.459"/>
                    </clipPath>
                    <g clip-path="url(#_clip2)">
                        <g>
                            <g>
                                <path d="M46.312,68.399C46.312,70.251 44.953,71.753 43.276,71.753L13.54,71.753C11.863,71.753 10.503,70.251 10.503,68.399L10.503,30.846C10.503,28.994 11.863,27.492 13.54,27.492L43.276,27.492C44.953,27.492 46.312,28.994 46.312,30.846L46.312,68.399Z" style="fill:none;stroke:rgb(110,203,180);stroke-width:0.24px;"/>
                                <path d="M45.079,66.826C45.079,68.548 43.813,69.945 42.251,69.945L14.564,69.945C13.002,69.945 11.736,68.548 11.736,66.826L11.736,31.895C11.736,30.172 13.002,28.776 14.564,28.776L42.251,28.776C43.813,28.776 45.079,30.172 45.079,31.895L45.079,66.826Z" style="fill:none;stroke:rgb(110,203,180);stroke-width:0.24px;"/>
                                <path d="M15.214,30.788C15.214,31.9 14.45,32.801 13.507,32.801L11.181,32.801C10.239,32.801 9.475,31.9 9.475,30.788C9.475,29.677 10.239,28.776 11.181,28.776L13.507,28.776C14.45,28.776 15.214,29.677 15.214,30.788Z" style="fill:none;stroke:rgb(110,203,180);stroke-width:0.24px;"/>
                                <path d="M47.341,30.788C47.341,31.9 46.577,32.801 45.635,32.801L43.308,32.801C42.366,32.801 41.602,31.9 41.602,30.788C41.602,29.677 42.366,28.776 43.308,28.776L45.635,28.776C46.577,28.776 47.341,29.677 47.341,30.788Z" style="fill:none;stroke:rgb(110,203,180);stroke-width:0.24px;"/>
                            </g>
                            <g>
                                <path d="M12.42,48.869C12.42,48.869 12.215,45.231 6.887,39.595C6.887,39.595 8.116,34.165 12.42,36.111C12.42,36.111 13.568,37.217 12.42,48.869Z" style="fill:none;stroke:rgb(110,203,180);stroke-width:0.24px;"/>
                                <path d="M44.48,48.869C44.48,48.869 44.685,45.231 50.013,39.595C50.013,39.595 48.783,34.165 44.48,36.111C44.48,36.111 43.332,37.217 44.48,48.869Z" style="fill:none;stroke:rgb(110,203,180);stroke-width:0.24px;"/>
                                <path d="M28.466,34.456C18.032,32.957 12.412,36.111 12.412,36.111L12.412,50.483C12.412,50.483 12.226,51.841 12.412,54.38C12.598,56.919 11.881,60.94 12.019,66.05C12.157,71.161 12.412,80.638 12.412,80.638L23.939,80.638L23.939,80.031C23.939,77.742 26.364,75.906 28.466,75.906C30.568,75.906 32.994,77.742 32.994,80.031L32.994,80.638L44.52,80.638L44.52,67.561C44.52,67.561 44.802,64.016 45.233,58.745C45.707,52.942 44.468,46.866 44.468,46.866L44.52,36.111C44.52,36.111 38.9,32.957 28.466,34.456Z" style="fill:none;stroke:rgb(110,203,180);stroke-width:0.24px;"/>
                                <path d="M28.466,35.135C18.032,33.772 12.412,36.64 12.412,36.64L12.412,49.71C12.412,49.71 12.226,50.946 12.412,53.256C12.598,55.564 11.881,59.221 12.019,63.868C12.157,68.516 12.412,79.472 12.412,79.472L23.939,79.472L23.939,76.583C23.939,74.501 26.364,72.831 28.466,72.831C30.568,72.831 32.994,74.501 32.994,76.583L32.994,79.472L44.52,79.472L44.52,65.242C44.52,65.242 44.802,62.018 45.233,57.224C45.707,51.948 44.468,46.422 44.468,46.422L44.52,36.64C44.52,36.64 38.9,33.772 28.466,35.135Z" style="fill:none;stroke:rgb(110,203,180);stroke-width:0.24px;"/>
                            </g>
                            <path d="M37.154,30.576L28.238,33.641L19.322,30.576L17.708,34.672C17.708,34.672 20.935,37.905 28.238,37.905C35.541,37.905 38.767,34.672 38.767,34.672L37.154,30.576Z" style="fill:none;stroke:rgb(110,203,180);stroke-width:0.24px;"/>
                            <path d="M11.655,14.868C11.024,15.417 10.538,15.913 10.538,19.208C10.538,22.503 11.024,22.998 11.655,23.547C12.941,24.669 14.53,24.924 14.53,24.924L14.53,19.208L14.53,13.492C14.53,13.492 12.941,13.747 11.655,14.868Z" style="fill:none;stroke:rgb(110,203,180);stroke-width:0.24px;"/>
                            <path d="M12.008,16.042C11.631,16.443 11.34,16.804 11.34,19.208C11.34,21.611 11.631,21.973 12.008,22.373C12.778,23.192 13.728,23.378 13.728,23.378L13.728,19.208L13.728,15.038C13.728,15.038 12.778,15.224 12.008,16.042Z" style="fill:none;stroke:rgb(110,203,180);stroke-width:0.24px;"/>
                            <path d="M11.391,17.758C11.358,18.137 11.34,18.609 11.34,19.208C11.34,19.808 11.358,20.28 11.391,20.657L13.728,20.657L13.728,19.208L13.728,17.758L11.391,17.758Z" style="fill:none;stroke:rgb(110,203,180);stroke-width:0.24px;"/>
                            <path d="M44.643,14.868C45.273,15.417 45.76,15.913 45.76,19.208C45.76,22.503 45.273,22.998 44.643,23.547C43.356,24.669 41.767,24.924 41.767,24.924L41.767,19.208L41.767,13.492C41.767,13.492 43.356,13.747 44.643,14.868Z" style="fill:none;stroke:rgb(110,203,180);stroke-width:0.24px;"/>
                            <path d="M44.289,16.042C44.667,16.443 44.957,16.804 44.957,19.208C44.957,21.611 44.667,21.973 44.289,22.373C43.52,23.192 42.57,23.378 42.57,23.378L42.57,19.208L42.57,15.038C42.57,15.038 43.52,15.224 44.289,16.042Z" style="fill:none;stroke:rgb(110,203,180);stroke-width:0.24px;"/>
                            <path d="M44.907,17.758C44.939,18.137 44.957,18.609 44.957,19.208C44.957,19.808 44.939,20.28 44.907,20.657L42.57,20.657L42.57,19.208L42.57,17.758L44.907,17.758Z" style="fill:none;stroke:rgb(110,203,180);stroke-width:0.24px;"/>
                            <path d="M43.269,19.255C43.242,27.556 36.492,34.265 28.19,34.24C19.889,34.212 13.181,27.462 13.206,19.16C13.234,10.858 19.984,4.152 28.283,4.176C36.587,4.203 43.294,10.953 43.269,19.255Z" style="fill:none;stroke:rgb(110,203,180);stroke-width:0.24px;"/>
                            <path d="M40.044,20.34C40.022,27.058 34.718,32.484 28.196,32.463C21.675,32.442 16.402,26.984 16.424,20.266C16.446,13.549 21.749,8.122 28.272,8.143C34.796,8.162 40.065,13.625 40.044,20.34Z" style="fill:none;stroke:rgb(110,203,180);stroke-width:0.24px;"/>
                            <path d="M16.424,20.266C16.306,18.695 16.553,17.091 17.065,15.573C17.608,14.063 18.457,12.654 19.547,11.45C21.713,9.018 24.979,7.572 28.274,7.592C31.569,7.592 34.825,9.057 36.978,11.502C38.061,12.715 38.9,14.13 39.435,15.643C39.936,17.166 40.172,18.769 40.044,20.34C39.834,17.206 38.524,14.221 36.364,12.087C34.219,9.952 31.27,8.676 28.271,8.695C25.272,8.657 22.315,9.912 20.156,12.034C17.98,14.154 16.652,17.131 16.424,20.266Z" style="fill:none;stroke:rgb(110,203,180);stroke-width:0.24px;"/>
                            <path d="M32.892,29.714C32.526,29.713 32.171,29.531 31.962,29.201C31.636,28.687 31.789,28.006 32.304,27.679C37.973,24.094 35.066,17.449 34.939,17.167C34.69,16.612 34.936,15.958 35.492,15.708C36.049,15.459 36.7,15.706 36.951,16.263C38.297,19.246 39.3,25.864 33.482,29.544C33.301,29.66 33.093,29.715 32.892,29.714Z" style="fill:none;stroke:rgb(110,203,180);stroke-width:0.24px;"/>
                            <path d="M35.423,13.712C35.421,14.397 34.864,14.952 34.179,14.949C33.494,14.948 32.94,14.389 32.941,13.705C32.943,13.019 33.501,12.464 34.185,12.468C34.872,12.471 35.426,13.027 35.423,13.712Z" style="fill:none;stroke:rgb(110,203,180);stroke-width:0.24px;"/>
                        </g>
                    </g>
                </g>
            </g>
        </g>
    </g>
</svg>
