<?xml version="1.0" encoding="UTF-8" standalone="no"?><!DOCTYPE svg PUBLIC "-//W3C//DTD SVG 1.1//EN" "http://www.w3.org/Graphics/SVG/1.1/DTD/svg11.dtd"><svg width="100%" height="100%" viewBox="0 0 28 29" version="1.1" xmlns="http://www.w3.org/2000/svg" xmlns:xlink="http://www.w3.org/1999/xlink" xml:space="preserve" xmlns:serif="http://www.serif.com/" style="fill-rule:evenodd;clip-rule:evenodd;stroke-linejoin:round;stroke-miterlimit:1.41421;"><rect id="Artboard1" x="-113.54" y="-215.52" width="460.8" height="1952" style="fill:none;"/><g id="Opis"><g><path d="M2.522,17.487l3.106,0c0.024,0.369 0.063,0.737 0.121,1.099c0.063,0.391 0.401,0.67 0.785,0.67c0.042,0 0.084,-0.004 0.127,-0.011c0.433,-0.069 0.729,-0.477 0.659,-0.911c-0.086,-0.536 -0.129,-1.088 -0.129,-1.639c0,-4.559 2.95,-8.298 6.663,-8.576c0.026,-0.002 0.052,-0.005 0.078,-0.007c0.062,-0.004 0.124,-0.004 0.186,-0.006c0.06,-0.002 0.119,-0.005 0.179,-0.005c0.51,0 1.018,0.065 1.511,0.195c0.001,0 0.003,0 0.004,0.001c0.013,0.003 0.026,0.005 0.039,0.008c0.016,0.003 0.033,0.007 0.049,0.009c0.013,0.002 0.026,0.003 0.039,0.004c0.017,0.001 0.035,0.003 0.052,0.003c0.006,0 0.012,0.001 0.018,0.001c0.005,0 0.01,-0.001 0.015,-0.001c0.027,0 0.054,-0.002 0.081,-0.005c0.004,-0.001 0.009,-0.001 0.013,-0.002c0.032,-0.004 0.063,-0.01 0.094,-0.019c0.007,-0.001 0.014,-0.004 0.021,-0.006c0.024,-0.007 0.048,-0.015 0.071,-0.024c0.008,-0.004 0.016,-0.007 0.024,-0.01c0.029,-0.013 0.057,-0.026 0.084,-0.042c0.003,-0.002 0.007,-0.004 0.01,-0.006c0.024,-0.015 0.046,-0.03 0.068,-0.047c0.008,-0.006 0.016,-0.013 0.024,-0.019c0.02,-0.016 0.038,-0.033 0.056,-0.051c0.005,-0.005 0.01,-0.009 0.015,-0.014c0.023,-0.024 0.044,-0.049 0.063,-0.075c0.004,-0.005 0.007,-0.011 0.011,-0.016c0.017,-0.023 0.032,-0.048 0.046,-0.073c0.002,-0.004 0.005,-0.007 0.007,-0.011l2.674,-5.015c0.207,-0.388 0.06,-0.87 -0.328,-1.076c-0.387,-0.207 -0.869,-0.06 -1.076,0.327l-2.391,4.486c-0.427,-0.075 -0.86,-0.113 -1.293,-0.113c-0.127,0 -0.252,0.004 -0.377,0.01c-0.023,0.001 -0.047,0.002 -0.07,0.003c-0.095,0.006 -0.189,0.014 -0.284,0.023c-0.23,0.023 -0.459,0.056 -0.684,0.099c-0.005,-0.01 -0.008,-0.02 -0.014,-0.03l-2.272,-4.464c-0.199,-0.392 -0.679,-0.548 -1.07,-0.348c-0.392,0.199 -0.547,0.678 -0.348,1.07l2.16,4.244c-1.797,0.763 -3.321,2.202 -4.345,4.052c-1.635,-0.217 -2.9,-1.619 -2.9,-3.312c0,-0.44 -0.356,-0.796 -0.795,-0.796c-0.44,0 -0.796,0.356 -0.796,0.796c0,2.333 1.629,4.292 3.809,4.802c-0.372,1.006 -0.61,2.095 -0.686,3.237l-3.104,0c-0.44,0 -0.796,0.356 -0.796,0.795c0,0.44 0.356,0.796 0.796,0.796Z" style="fill:#c5d92d;fill-rule:nonzero;"/><path d="M26.05,15.896l-3.083,0c-0.075,-1.12 -0.306,-2.216 -0.684,-3.242c2.168,-0.519 3.786,-2.472 3.786,-4.797c0,-0.439 -0.356,-0.796 -0.796,-0.796c-0.439,0 -0.795,0.357 -0.795,0.796c0,1.814 -1.454,3.295 -3.257,3.34c-0.144,-0.015 -0.294,0.007 -0.434,0.076c-0.231,0.113 -0.382,0.323 -0.43,0.557c0,0.004 -0.001,0.008 -0.002,0.013c-0.004,0.018 -0.007,0.037 -0.009,0.056c-0.001,0.012 -0.002,0.024 -0.003,0.036c-0.001,0.011 -0.001,0.022 -0.002,0.033c0,0.009 -0.001,0.018 -0.001,0.027c0,0.011 0.001,0.022 0.002,0.033c0,0.002 0,0.004 0,0.006c0.006,0.131 0.044,0.254 0.107,0.361c0.625,1.302 0.955,2.787 0.955,4.3c0,4.738 -3.188,8.593 -7.106,8.593c-1.665,0 -3.285,-0.713 -4.562,-2.008c-0.309,-0.313 -0.812,-0.317 -1.125,-0.008c-0.313,0.308 -0.316,0.812 -0.008,1.125c1.578,1.601 3.6,2.482 5.695,2.482c3.024,0 5.691,-1.816 7.25,-4.566l2.082,2.081c0.156,0.156 0.359,0.233 0.563,0.233c0.203,0 0.407,-0.077 0.562,-0.233c0.311,-0.31 0.311,-0.814 0,-1.125l-2.491,-2.49c0.384,-1.022 0.628,-2.13 0.705,-3.292l3.082,0c0.439,0 0.795,-0.356 0.795,-0.796c0,-0.439 -0.356,-0.795 -0.796,-0.795Z" style="fill:#c5d92d;fill-rule:nonzero;"/><path d="M2.097,17.063l3.107,0c0.024,0.369 0.063,0.737 0.121,1.099c0.063,0.391 0.401,0.669 0.785,0.669c0.041,0 0.084,-0.003 0.126,-0.01c0.434,-0.069 0.729,-0.477 0.66,-0.911c-0.086,-0.537 -0.13,-1.088 -0.13,-1.64c0,-4.558 2.951,-8.297 6.663,-8.575c0.027,-0.002 0.053,-0.006 0.079,-0.007c0.062,-0.004 0.124,-0.004 0.186,-0.006c0.06,-0.002 0.119,-0.005 0.179,-0.005c0.51,0 1.018,0.065 1.511,0.195c0.001,0 0.003,0 0.004,0c0.013,0.004 0.026,0.006 0.039,0.008c0.016,0.004 0.033,0.007 0.049,0.01c0.013,0.001 0.026,0.003 0.039,0.004c0.017,0.001 0.034,0.002 0.052,0.003c0.006,0 0.012,0.001 0.018,0.001c0.005,0 0.01,-0.001 0.014,-0.001c0.028,-0.001 0.055,-0.002 0.082,-0.006c0.004,0 0.008,0 0.013,-0.001c0.032,-0.004 0.063,-0.011 0.094,-0.019c0.007,-0.002 0.014,-0.004 0.02,-0.006c0.025,-0.007 0.049,-0.015 0.072,-0.025c0.008,-0.003 0.016,-0.006 0.024,-0.009c0.029,-0.013 0.057,-0.027 0.084,-0.042c0.003,-0.002 0.006,-0.005 0.01,-0.007c0.023,-0.014 0.046,-0.03 0.068,-0.046c0.008,-0.007 0.016,-0.013 0.024,-0.019c0.019,-0.016 0.038,-0.033 0.056,-0.051c0.005,-0.005 0.01,-0.009 0.015,-0.014c0.022,-0.024 0.043,-0.049 0.063,-0.075c0.004,-0.005 0.007,-0.011 0.011,-0.016c0.017,-0.024 0.032,-0.048 0.046,-0.074c0.002,-0.003 0.005,-0.007 0.007,-0.01l2.674,-5.015c0.207,-0.388 0.06,-0.87 -0.328,-1.076c-0.388,-0.207 -0.869,-0.06 -1.076,0.327l-2.392,4.486c-0.426,-0.075 -0.859,-0.113 -1.293,-0.113c-0.126,0 -0.251,0.004 -0.376,0.01c-0.023,0.001 -0.047,0.002 -0.071,0.003c-0.094,0.006 -0.189,0.014 -0.283,0.023c-0.231,0.023 -0.459,0.056 -0.684,0.099c-0.005,-0.01 -0.009,-0.02 -0.014,-0.03l-2.272,-4.464c-0.2,-0.392 -0.679,-0.548 -1.07,-0.348c-0.392,0.199 -0.548,0.678 -0.348,1.069l2.16,4.244c-1.798,0.764 -3.321,2.202 -4.346,4.053c-1.634,-0.218 -2.899,-1.62 -2.899,-3.312c0,-0.44 -0.356,-0.796 -0.796,-0.796c-0.439,0 -0.795,0.356 -0.795,0.796c0,2.333 1.629,4.291 3.808,4.802c-0.372,1.006 -0.609,2.095 -0.685,3.236l-3.105,0c-0.439,0 -0.795,0.357 -0.795,0.796c0,0.439 0.356,0.796 0.795,0.796Z" style="fill:#16a984;fill-rule:nonzero;"/><path d="M25.626,15.472l-3.083,0c-0.075,-1.12 -0.307,-2.216 -0.684,-3.242c2.168,-0.519 3.786,-2.472 3.786,-4.797c0,-0.44 -0.357,-0.796 -0.796,-0.796c-0.439,0 -0.795,0.356 -0.795,0.796c0,1.814 -1.454,3.294 -3.258,3.34c-0.144,-0.016 -0.293,0.007 -0.433,0.076c-0.231,0.112 -0.382,0.323 -0.43,0.557c-0.001,0.004 -0.001,0.008 -0.002,0.012c-0.004,0.019 -0.007,0.038 -0.009,0.057c-0.001,0.012 -0.002,0.024 -0.003,0.036c-0.001,0.011 -0.002,0.022 -0.002,0.033c0,0.009 -0.001,0.017 -0.001,0.027c0,0.011 0.001,0.022 0.001,0.033c0.001,0.002 0.001,0.004 0.001,0.005c0.006,0.132 0.044,0.255 0.107,0.362c0.624,1.302 0.955,2.786 0.955,4.299c0,4.739 -3.188,8.594 -7.107,8.594c-1.665,0 -3.285,-0.713 -4.561,-2.008c-0.309,-0.313 -0.812,-0.317 -1.125,-0.008c-0.313,0.308 -0.317,0.812 -0.008,1.125c1.578,1.6 3.6,2.482 5.694,2.482c3.024,0 5.692,-1.817 7.251,-4.567l2.082,2.082c0.155,0.155 0.359,0.233 0.562,0.233c0.204,0 0.408,-0.078 0.563,-0.233c0.311,-0.311 0.311,-0.814 0,-1.125l-2.491,-2.491c0.383,-1.021 0.628,-2.129 0.705,-3.292l3.081,0c0.44,0 0.796,-0.356 0.796,-0.795c0,-0.439 -0.357,-0.795 -0.796,-0.795Z" style="fill:#16a984;fill-rule:nonzero;"/><path d="M27.38,1.392c-0.311,-0.311 -0.815,-0.311 -1.125,0l-25.911,25.911c-0.311,0.311 -0.311,0.814 0,1.125c0.155,0.155 0.359,0.233 0.562,0.233c0.204,0 0.407,-0.078 0.563,-0.233l25.911,-25.911c0.31,-0.311 0.31,-0.815 0,-1.125Z" style="fill:#16a984;fill-rule:nonzero;"/></g></g></svg>