<?xml version="1.0" encoding="UTF-8" standalone="no"?>
<!DOCTYPE svg PUBLIC "-//W3C//DTD SVG 1.1//EN" "http://www.w3.org/Graphics/SVG/1.1/DTD/svg11.dtd">
<svg width="100%" height="100%" viewBox="0 0 1935 443" version="1.1" xmlns="http://www.w3.org/2000/svg" xmlns:xlink="http://www.w3.org/1999/xlink" xml:space="preserve" xmlns:serif="http://www.serif.com/" style="fill-rule:evenodd;clip-rule:evenodd;stroke-miterlimit:1.5;">
    <g id="Artboard2" transform="matrix(0.957338,0,0,0.985353,10.7385,8.60926)">
        <rect x="-11.217" y="-8.737" width="2020.64" height="448.681" style="fill:none;"/>
        <clipPath id="_clip1">
            <rect x="-11.217" y="-8.737" width="2020.64" height="448.681"/>
        </clipPath>
        <g clip-path="url(#_clip1)">
            <g id="Artboard1" transform="matrix(0.937277,0,0,0.890583,-26.3151,4.54966)">
                <rect x="-7.004" y="-13.023" width="2202.97" height="486.046" style="fill:none;"/>
                <g transform="matrix(1.11447,0,0,1.76498,15.7106,-1930.75)">
                    <g>
                        <g id="SG-1920px" serif:id="SG 1920px">
                            <rect x="0" y="0" width="1920" height="5000" style="fill:none;"/>
                            <g>
                                <g transform="matrix(1,0,0,0.736034,0,8.40437e-13)">
                                    <g transform="matrix(1.01812,0,0,0.893086,-6663.86,-1209.78)">
                                        <path d="M6545.63,3008.52C6565.56,3007.37 6582.11,3016.2 6595.53,3030.68C6627.77,3065.44 6642.01,3132.73 6642.01,3172.4C6642.01,3244.58 6725.88,3282.76 6800.63,3283.67C6844.48,3284.2 6886.87,3252.28 6965.63,3253.94C7044.38,3255.61 7067.8,3346.76 7178.27,3360.04C7307.6,3375.59 7436.71,3289.24 7565.11,3290.81C7693.52,3292.38 7826.43,3381.91 7942.94,3384.79C8052.99,3387.51 8177.05,3309.99 8264.16,3308.09C8334.74,3306.55 8398.47,3351.63 8465.63,3373.39" style="fill:none;stroke:rgb(74,247,213);stroke-width:0.98px;"/>
                                    </g>
                                    <g transform="matrix(1.01812,0,0,0.893086,-6674.04,-1191.92)">
                                        <path d="M6545.63,3008.52C6565.56,3007.37 6582.11,3016.2 6595.53,3030.68C6627.77,3065.44 6642.01,3132.73 6642.01,3172.4C6642.01,3244.58 6725.88,3282.76 6800.63,3283.67C6844.48,3284.2 6886.87,3252.28 6965.63,3253.94C7044.38,3255.61 7067.8,3346.76 7178.27,3360.04C7307.6,3375.59 7436.71,3289.24 7565.11,3290.81C7693.52,3292.38 7826.43,3381.91 7942.94,3384.79C8052.99,3387.51 8177.05,3309.99 8264.16,3308.09C8334.74,3306.55 8398.47,3351.63 8465.63,3373.39" style="fill:none;stroke:rgb(74,247,213);stroke-width:0.98px;"/>
                                    </g>
                                    <g transform="matrix(1.01812,0,0,0.893086,-6684.22,-1174.06)">
                                        <path d="M6545.63,3008.52C6565.56,3007.37 6582.11,3016.2 6595.53,3030.68C6627.77,3065.44 6642.01,3132.73 6642.01,3172.4C6642.01,3244.58 6725.88,3282.76 6800.63,3283.67C6844.48,3284.2 6886.87,3252.28 6965.63,3253.94C7044.38,3255.61 7067.8,3346.76 7178.27,3360.04C7307.6,3375.59 7436.71,3289.24 7565.11,3290.81C7693.52,3292.38 7826.43,3381.91 7942.94,3384.79C8052.99,3387.51 8177.05,3309.99 8264.16,3308.09C8334.74,3306.55 8398.47,3351.63 8465.63,3373.39" style="fill:none;stroke:rgb(74,247,213);stroke-width:0.98px;"/>
                                    </g>
                                </g>
                            </g>
                        </g>
                    </g>
                </g>
            </g>
        </g>
    </g>
</svg>
