<?xml version="1.0" encoding="UTF-8" standalone="no"?>
<!DOCTYPE svg PUBLIC "-//W3C//DTD SVG 1.1//EN" "http://www.w3.org/Graphics/SVG/1.1/DTD/svg11.dtd">
<svg width="100%" height="100%" viewBox="0 0 540 347" version="1.1" xmlns="http://www.w3.org/2000/svg" xmlns:xlink="http://www.w3.org/1999/xlink" xml:space="preserve" xmlns:serif="http://www.serif.com/" style="fill-rule:evenodd;clip-rule:evenodd;stroke-miterlimit:1.5;">
    <g id="Artboard1" transform="matrix(0.954347,0,0,0.940659,13.3541,3.41395)">
        <rect x="-13.993" y="-3.629" width="565.059" height="368.517" style="fill:none;"/>
        <clipPath id="_clip1">
            <rect x="-13.993" y="-3.629" width="565.059" height="368.517"/>
        </clipPath>
        <g clip-path="url(#_clip1)">
            <g transform="matrix(1.04784,0,0,1.64655,-14.0484,-7871.52)">
                <g id="SG-1920px" serif:id="SG 1920px">
                    <rect x="0" y="0" width="1920" height="5000" style="fill:none;"/>
                    <g>
                        <g transform="matrix(1,0,0,0.736034,1.81899e-12,4581.09)">
                            <g transform="matrix(1,0,0,0.877193,-6545.62,-2335.2)">
                                <path d="M6545.63,2968.52C6565.56,2967.37 6582.11,2976.2 6595.53,2990.68C6627.77,3025.44 6642.01,3112.73 6642.01,3152.4C6642.01,3224.58 6713.78,3282.62 6800.63,3283.67C6844.48,3284.2 6886.87,3252.28 6965.63,3253.94C7044.38,3255.61 7067.8,3346.76 7178.27,3360.04C7307.6,3375.59 7436.71,3319.24 7565.11,3320.81C7693.52,3322.38 7826.43,3381.91 7942.94,3384.79C8052.99,3387.51 8177.05,3309.99 8264.16,3308.09C8334.74,3306.55 8398.47,3351.63 8465.63,3373.39" style="fill:none;stroke:rgb(74,247,213);stroke-width:1px;"/>
                            </g>
                            <g transform="matrix(1,0,0,0.877193,-6555.62,-2317.65)">
                                <path d="M6545.63,2968.52C6565.56,2967.37 6582.11,2976.2 6595.53,2990.68C6627.77,3025.44 6642.01,3112.73 6642.01,3152.4C6642.01,3224.58 6716.35,3282.65 6800.63,3283.67C6844.48,3284.2 6886.87,3252.28 6965.63,3253.94C7044.38,3255.61 7067.8,3346.76 7178.27,3360.04C7307.6,3375.59 7436.71,3319.24 7565.11,3320.81C7693.52,3322.38 7826.43,3381.91 7942.94,3384.79C8052.99,3387.51 8177.05,3309.99 8264.16,3308.09C8334.74,3306.55 8398.47,3351.63 8465.63,3373.39" style="fill:none;stroke:rgb(74,247,213);stroke-width:1px;"/>
                            </g>
                            <g transform="matrix(1,0,0,0.877193,-6565.62,-2300.11)">
                                <path d="M6545.63,2968.52C6565.56,2967.37 6582.11,2976.2 6595.53,2990.68C6627.77,3025.44 6642.01,3112.73 6642.01,3152.4C6642.01,3224.58 6716.71,3282.65 6800.63,3283.67C6844.48,3284.2 6886.87,3252.28 6965.63,3253.94C7044.38,3255.61 7067.8,3346.76 7178.27,3360.04C7307.6,3375.59 7436.71,3319.24 7565.11,3320.81C7693.52,3322.38 7826.43,3381.91 7942.94,3384.79C8052.99,3387.51 8177.05,3309.99 8264.16,3308.09C8334.74,3306.55 8398.47,3351.63 8465.63,3373.39" style="fill:none;stroke:rgb(74,247,213);stroke-width:1px;"/>
                            </g>
                        </g>
                        <g transform="matrix(1.33333,0,0,5.83471,824.77,2939.55)">
                            <g>
                                <g id="_1" serif:id="1">
                                </g>
                            </g>
                        </g>
                        <g transform="matrix(1.33333,0,0,5.83471,937.544,-354.227)">
                            <g>
                                <g>
                                    <g>
                                        <g id="Menu">
                                        </g>
                                    </g>
                                </g>
                            </g>
                        </g>
                    </g>
                </g>
            </g>
        </g>
    </g>
</svg>
