<?xml version="1.0" encoding="UTF-8" standalone="no"?>
<!DOCTYPE svg PUBLIC "-//W3C//DTD SVG 1.1//EN" "http://www.w3.org/Graphics/SVG/1.1/DTD/svg11.dtd">
<svg width="100%" height="100%" viewBox="0 0 406 465" version="1.1" xmlns="http://www.w3.org/2000/svg" xmlns:xlink="http://www.w3.org/1999/xlink" xml:space="preserve" xmlns:serif="http://www.serif.com/" style="fill-rule:evenodd;clip-rule:evenodd;stroke-linecap:round;stroke-miterlimit:1.5;">
    <g transform="matrix(1,0,0,1,-3481,-3288)">
        <g id="SG-1920px" serif:id="SG 1920px" transform="matrix(1,0,0,1.54884,3280,0)">
            <rect x="0" y="0" width="1920" height="5000" style="fill:none;"/>
            <g transform="matrix(1,0,0,0.736034,1.81899e-12,4581.09)">
                <g id="cta">
                </g>
            </g>
            <g transform="matrix(1,0,0,0.736034,0,1665.98)">
                <g transform="matrix(0.662252,0,0,0.662252,166.154,1327.21)">
                    <g id="Logo">
                    </g>
                </g>
            </g>
            <g transform="matrix(1.33333,0,0,5.83471,963.192,3578.68)">
                <g id="cta1" serif:id="cta">
                </g>
            </g>
            <g transform="matrix(1,0,0,0.736034,-600,801.102)">
                <g id="_1" serif:id="1">
                    <g transform="matrix(1.33333,0,0,7.92723,1424.77,2905.37)">
                        <g>
                            <g id="cta2" serif:id="cta">
                            </g>
                        </g>
                    </g>
                </g>
            </g>
            <g transform="matrix(1,0,0,0.736034,449.745,653.242)">
                <g>
                    <g transform="matrix(0.17031,0.557549,0.985792,-0.231704,-2507.62,2386.18)">
                        <path d="M915.297,2505.09C1064.42,2409.14 1002.26,2181.21 707.284,2181.21C443.926,2181.21 165.029,2349.97 377.806,2474.14C477.846,2532.53 695.18,2646.72 915.297,2505.09Z" style="fill:none;stroke:rgb(0,224,180);stroke-width:1.16px;"/>
                    </g>
                    <g transform="matrix(0.134735,0.441087,0.779877,-0.183305,-1995.08,2346.59)">
                        <path d="M915.297,2505.09C1064.42,2409.14 1002.26,2181.21 707.284,2181.21C443.926,2181.21 165.029,2349.97 377.806,2474.14C477.846,2532.53 695.18,2646.72 915.297,2505.09Z" style="fill:none;stroke:rgb(0,224,180);stroke-width:1.47px;"/>
                    </g>
                    <g transform="matrix(0.106591,0.348951,0.616974,-0.145016,-1589.59,2315.26)">
                        <path d="M915.297,2505.09C1064.42,2409.14 1002.26,2181.21 707.284,2181.21C443.926,2181.21 165.029,2349.97 377.806,2474.14C477.846,2532.53 695.18,2646.72 915.297,2505.09Z" style="fill:none;stroke:rgb(0,224,180);stroke-width:1.86px;"/>
                    </g>
                </g>
            </g>
            <g transform="matrix(1,0,0,0.736034,0,8.40437e-13)">
                <g transform="matrix(1,0,0,1,-720,353.594)">
                    <g id="cta3" serif:id="cta">
                    </g>
                </g>
                <g transform="matrix(0.965537,0,0,5.74052,361.129,1252.18)">
                    <g id="cta4" serif:id="cta">
                    </g>
                </g>
                <g transform="matrix(1,0,0,1,240,380.439)">
                    <g id="cta5" serif:id="cta">
                    </g>
                </g>
                <g transform="matrix(1,0,0,1,-720,722.015)">
                    <g id="cta6" serif:id="cta">
                    </g>
                </g>
                <g transform="matrix(1.33333,0,0,7.92723,312.529,1457.32)">
                    <g id="cta7" serif:id="cta">
                    </g>
                </g>
            </g>
            <g transform="matrix(1,0,0,0.736034,0,-2.92028e-13)">
                <g id="cta8" serif:id="cta">
                </g>
                <g transform="matrix(1.33333,0,0,7.92723,937.544,-481.264)">
                    <g id="Menu">
                        <g id="cta9" serif:id="cta">
                        </g>
                    </g>
                </g>
                <g id="webo">
                </g>
            </g>
        </g>
    </g>
</svg>
