<?xml version="1.0" encoding="UTF-8" standalone="no"?>
<!DOCTYPE svg PUBLIC "-//W3C//DTD SVG 1.1//EN" "http://www.w3.org/Graphics/SVG/1.1/DTD/svg11.dtd">
<svg width="100%" height="100%" viewBox="0 0 47 54" version="1.1" xmlns="http://www.w3.org/2000/svg" xmlns:xlink="http://www.w3.org/1999/xlink" xml:space="preserve" xmlns:serif="http://www.serif.com/" style="fill-rule:evenodd;clip-rule:evenodd;stroke-linejoin:round;stroke-miterlimit:1.41421;">
    <rect id="Artboard1" x="-231.12" y="-294.72" width="345.6" height="1464" style="fill:none;"/>
    <g id="WHAT-WE-ARE-DOING" serif:id="WHAT WE ARE DOING">
        <g transform="matrix(1,0,0,1,13.016,47.52)">
            <text x="0px" y="0px" style="font-family:'AdobeGothicStd-Bold', 'Adobe Gothic Std', sans-serif;font-weight:700;font-size:5.374px;fill:white;">Support</text>
        </g>
        <path d="M39.999,17.988L39.999,25.212L37.141,25.212C36.806,26.512 36.294,27.751 35.611,28.909L37.623,30.921L37.611,30.934L37.623,30.947L32.533,36.037L30.511,34.016C29.348,34.703 28.104,35.219 26.799,35.555L26.799,38.412L19.599,38.412L19.599,35.555C18.294,35.219 17.049,34.703 15.886,34.016L13.865,36.037L8.774,30.947L8.786,30.934L8.774,30.922L10.786,28.909C10.104,27.751 9.591,26.512 9.257,25.212L6.399,25.212L6.399,17.988L9.257,17.988C9.59,16.688 10.104,15.449 10.786,14.291L8.774,12.278L8.786,12.266L8.774,12.253L13.865,7.163L15.886,9.184C17.049,8.497 18.294,7.981 19.599,7.645L19.599,4.788L26.799,4.788L26.799,7.645C28.104,7.981 29.348,8.497 30.511,9.184L32.533,7.163L37.623,12.253L37.611,12.266L37.623,12.279L35.611,14.291C36.293,15.449 36.806,16.688 37.141,17.988L39.999,17.988ZM25.599,5.988L20.799,5.988L20.799,8.6L20.329,8.704C18.832,9.036 17.416,9.623 16.119,10.449L15.759,10.679L15.759,10.704L15.713,10.733L13.865,8.885L10.483,12.266L12.319,14.102L12.309,14.117L12.319,14.127L12.06,14.533C11.234,15.83 10.647,17.246 10.316,18.743L10.211,19.213L7.599,19.213L7.599,23.987L10.211,23.987L10.316,24.457C10.647,25.954 11.234,27.37 12.06,28.667L12.319,29.073L12.309,29.083L12.319,29.098L10.483,30.934L13.865,34.315L15.713,32.467L15.759,32.496L15.759,32.521L16.119,32.751C17.416,33.577 18.832,34.164 20.329,34.496L20.799,34.6L20.799,37.212L25.599,37.212L25.599,34.6L26.069,34.496C27.565,34.164 28.981,33.577 30.278,32.751L30.639,32.521L30.639,32.497L30.685,32.467L32.533,34.316L35.914,30.934L34.079,29.098L34.088,29.083L34.079,29.073L34.337,28.667C35.163,27.37 35.75,25.954 36.082,24.458L36.186,23.988L38.799,23.988L38.799,19.212L36.186,19.212L36.082,18.742C35.75,17.246 35.163,15.83 34.337,14.533L34.079,14.127L34.088,14.117L34.079,14.102L35.914,12.266L32.533,8.884L30.685,10.733L30.639,10.703L30.639,10.679L30.278,10.449C28.981,9.623 27.565,9.036 26.069,8.704L25.599,8.6L25.599,5.988Z" style="fill:white;fill-opacity:0.5;"/>
        <path d="M23.199,13.192C27.832,13.192 31.594,16.954 31.594,21.588C31.594,26.221 27.832,29.983 23.199,29.983C18.565,29.983 14.803,26.221 14.803,21.588C14.803,16.954 18.565,13.192 23.199,13.192ZM21.661,19.783L24.278,17.996C24.533,17.82 24.841,17.759 25.145,17.823C25.449,17.887 25.706,18.068 25.869,18.331C26.153,18.787 26.073,19.384 25.681,19.749L25.027,20.358L25.049,20.364L26.136,20.072L26.287,18.804C26.336,18.39 26.628,18.053 27.03,17.945C27.345,17.86 27.683,17.933 27.935,18.139C28.186,18.346 28.325,18.663 28.304,18.988L28.282,19.332L28.941,18.703C29.152,18.503 29.438,18.398 29.728,18.416C30.017,18.434 30.289,18.572 30.473,18.797C30.832,19.235 30.78,19.873 30.354,20.247L28.767,21.623L25.403,23.286L20.717,24.534L19.303,24.626L19.565,25.606L17.101,26.266L15.686,20.986L18.15,20.326L18.433,21.382L20.798,20.748L21.661,19.783ZM17.635,21.218L16.579,21.501L17.616,25.374L18.672,25.091L17.635,21.218ZM28.413,20.217L25.071,21.112L23.496,20.79L25.184,19.216C25.322,19.087 25.35,18.876 25.25,18.716C25.193,18.623 25.102,18.559 24.995,18.537C24.888,18.514 24.779,18.536 24.689,18.597L22.11,20.359L21.2,21.395L18.622,22.086L19.11,23.908L20.638,23.809L25.145,22.602L28.401,20.991L29.873,19.699C30.002,19.585 30.018,19.392 29.909,19.259C29.852,19.19 29.772,19.149 29.683,19.144C29.594,19.138 29.509,19.17 29.445,19.231L28.413,20.217ZM27.529,19.699L27.577,18.943C27.583,18.85 27.544,18.763 27.473,18.704C27.31,18.57 27.035,18.682 27.01,18.891L26.894,19.869L27.529,19.699Z" style="fill:white;fill-opacity:0.5;"/>
    </g>
</svg>
