<?xml version="1.0" encoding="UTF-8" standalone="no"?><!DOCTYPE svg PUBLIC "-//W3C//DTD SVG 1.1//EN" "http://www.w3.org/Graphics/SVG/1.1/DTD/svg11.dtd"><svg width="100%" height="100%" viewBox="0 0 24 29" version="1.1" xmlns="http://www.w3.org/2000/svg" xmlns:xlink="http://www.w3.org/1999/xlink" xml:space="preserve" xmlns:serif="http://www.serif.com/" style="fill-rule:evenodd;clip-rule:evenodd;stroke-linejoin:round;stroke-miterlimit:1.41421;"><rect id="Artboard1" x="-76.58" y="-216.48" width="460.8" height="1952" style="fill:none;"/><g id="Opis"><path d="M11.828,0.47l-11.25,5l0,7.5c0,6.937 4.8,13.425 11.25,15c6.45,-1.575 11.25,-8.063 11.25,-15l0,-7.5l-11.25,-5Zm0,13.737l8.75,0c-0.663,5.15 -4.1,9.738 -8.75,11.175l0,-11.162l-8.75,0l0,-7.125l8.75,-3.888l0,11Z" style="fill:#c5d92d;fill-rule:nonzero;"/><path d="M11.528,0.17l-11.25,5l0,7.5c0,6.937 4.8,13.425 11.25,15c6.45,-1.575 11.25,-8.063 11.25,-15l0,-7.5l-11.25,-5Zm0,13.737l8.75,0c-0.663,5.15 -4.1,9.738 -8.75,11.175l0,-11.162l-8.75,0l0,-7.125l8.75,-3.888l0,11Z" style="fill:#00ab88;fill-rule:nonzero;"/></g></svg>