<?xml version="1.0" encoding="UTF-8" standalone="no"?>
<!DOCTYPE svg PUBLIC "-//W3C//DTD SVG 1.1//EN" "http://www.w3.org/Graphics/SVG/1.1/DTD/svg11.dtd">
<svg width="100%" height="100%" viewBox="0 0 649 926" version="1.1" xmlns="http://www.w3.org/2000/svg" xmlns:xlink="http://www.w3.org/1999/xlink" xml:space="preserve" xmlns:serif="http://www.serif.com/" style="fill-rule:evenodd;clip-rule:evenodd;stroke-linecap:round;stroke-linejoin:round;stroke-miterlimit:1.5;">
    <g transform="matrix(1,0,0,1,-3223.95,-1320.74)">
        <g transform="matrix(1,0,0,1.14,1690,1.51095e-12)">
            <g transform="matrix(1.70393,0,0,1.49468,1534.65,1250.37)">
                <g transform="matrix(1.38022,0.557646,7.57486e-17,1.60553,-2755.43,-3216.37)">
                    <path d="M2232.72,1526.09L2197.28,1526.09L2197.28,1467.03L2256.34,1467.03L2256.34,1502.46C2256.34,1515.5 2245.75,1526.09 2232.72,1526.09ZM2173.66,1502.46L2173.66,1526.04L2061.45,1526.09C2025.6,1526.09 1996.5,1496.98 1996.5,1461.13L1996.5,1331.21C1996.5,1295.35 2025.6,1266.25 2061.45,1266.25L2191.38,1266.25C2227.23,1266.25 2256.34,1295.35 2256.34,1331.21L2256.34,1443.37L2232.72,1443.37L2232.72,1337.92C2232.72,1308.58 2214,1289.87 2184.67,1289.87L2068.17,1289.87C2038.83,1289.87 2020.12,1308.58 2020.12,1337.92L2020.12,1454.42C2020.12,1483.75 2038.83,1502.46 2068.17,1502.46L2173.66,1502.46Z" style="fill:none;stroke:rgb(242,242,242);stroke-width:0.65px;"/>
                </g>
                <g transform="matrix(0.24,0,0,0.24,-1333.7,-2434.39)">
                    <path d="M7052.14,11798.4L7139.22,11711.4" style="fill:none;stroke:rgb(242,242,242);stroke-width:4.89px;"/>
                </g>
                <g transform="matrix(0.24,0,0,0.24,-1333.7,-2434.39)">
                    <path d="M6712.52,11661.2L6799.6,11574.1" style="fill:none;stroke:rgb(242,242,242);stroke-width:4.89px;"/>
                </g>
                <g transform="matrix(0.24,0,0,0.24,-1333.7,-2434.39)">
                    <path d="M6576.67,11843.4L6663.75,11756.6" style="fill:none;stroke:rgb(242,242,242);stroke-width:4.89px;"/>
                </g>
                <g transform="matrix(1.38022,0.557646,7.57486e-17,1.60553,-2734.53,-3237.27)">
                    <path d="M2197.28,1485.32L2197.28,1467.03L2256.34,1467.03L2256.34,1502.46C2256.34,1512.63 2249.9,1521.31 2240.89,1524.63M2024.3,1316.05C2021.57,1322.4 2020.12,1329.75 2020.12,1337.92L2020.12,1454.42C2020.12,1483.75 2038.83,1502.46 2068.17,1502.46L2173.66,1502.46L2173.66,1526.04L2158.52,1544.32" style="fill:none;stroke:rgb(242,242,242);stroke-width:0.65px;"/>
                </g>
                <g transform="matrix(1.38022,0.557646,7.57486e-17,1.60553,-2734.53,-3237.27)">
                    <path d="M2004.53,1299.91C2015.59,1279.85 2036.94,1266.25 2061.45,1266.25L2191.38,1266.25C2227.23,1266.25 2256.34,1295.35 2256.34,1331.21L2256.34,1443.37L2241.2,1461.64" style="fill:none;stroke:rgb(242,242,242);stroke-width:0.65px;"/>
                </g>
            </g>
        </g>
    </g>
</svg>
