<?xml version="1.0" standalone="no"?>
<!DOCTYPE svg PUBLIC "-//W3C//DTD SVG 20010904//EN"
 "http://www.w3.org/TR/2001/REC-SVG-20010904/DTD/svg10.dtd">
<svg version="1.0" xmlns="http://www.w3.org/2000/svg"
 width="1771.000000pt" height="1771.000000pt" viewBox="0 0 1771.000000 1771.000000"
 preserveAspectRatio="xMidYMid meet">
<metadata>
Created by potrace 1.11, written by Peter Selinger 2001-2013
</metadata>
<g transform="translate(0.000000,1771.000000) scale(0.100000,-0.100000)"
fill="#000000" stroke="none">
<path d="M7167 12114 c-1 -1 -38 -4 -82 -8 -210 -16 -405 -71 -594 -167 -373
-188 -649 -498 -794 -889 -54 -147 -81 -266 -94 -420 -9 -108 -9 -3406 0
-3520 7 -89 10 -112 28 -195 6 -27 13 -60 15 -72 18 -91 118 -332 173 -418 14
-22 31 -51 38 -63 48 -89 248 -308 351 -385 32 -23 59 -44 62 -47 20 -23 127
-86 240 -143 151 -76 284 -117 480 -147 107 -17 218 -19 1573 -19 801 -1 1457
2 1458 6 0 5 1 137 2 296 l2 287 -110 0 c-60 0 -661 2 -1335 3 l-1225 2 -105
24 c-124 27 -217 60 -321 111 -79 39 -182 102 -206 126 -8 8 -18 14 -22 14
-15 0 -195 184 -243 247 -154 204 -255 473 -268 713 -6 114 -3 2798 3 2865 60
651 575 1155 1227 1203 115 8 2865 6 2900 -2 14 -3 48 -9 75 -12 73 -9 238
-60 325 -100 71 -33 203 -111 244 -144 196 -159 305 -292 401 -489 30 -61 81
-197 89 -236 13 -63 27 -126 33 -150 3 -16 8 -617 10 -1335 1 -718 3 -1318 3
-1335 l0 -30 248 2 c136 1 268 2 295 3 l47 0 -1 1463 c-1 1552 -1 1530 -49
1727 -100 407 -368 773 -730 996 -196 121 -418 196 -680 230 -43 6 -3457 13
-3463 8z"/>
<path d="M10622 7091 c-5 -4 -9 -315 -9 -739 l0 -733 501 4 c544 3 528 2 649
62 114 57 201 145 259 259 64 127 66 145 67 677 l1 476 -729 0 c-402 0 -734
-3 -739 -6z"/>
</g>
</svg>
