<?xml version="1.0" encoding="UTF-8" standalone="no"?>
<!DOCTYPE svg PUBLIC "-//W3C//DTD SVG 1.1//EN" "http://www.w3.org/Graphics/SVG/1.1/DTD/svg11.dtd">
<svg width="100%" height="100%" viewBox="0 0 52 42" version="1.1" xmlns="http://www.w3.org/2000/svg" xmlns:xlink="http://www.w3.org/1999/xlink" xml:space="preserve" xmlns:serif="http://www.serif.com/" style="fill-rule:evenodd;clip-rule:evenodd;stroke-linejoin:round;stroke-miterlimit:2;">
    <g transform="matrix(1,0,0,1,-625,-2773.58)">
        <g transform="matrix(1,0,0,1.14,-360,1619.26)">
            <g transform="matrix(1,0,0,0.877193,-6780.52,-378.026)">
                <path d="M7810.55,1604.85C7808.6,1602.89 7805.95,1601.79 7803.19,1601.79C7797.49,1601.79 7792.8,1606.48 7792.8,1612.18C7792.8,1617.89 7797.49,1622.58 7803.19,1622.58C7805.46,1622.58 7807.67,1621.83 7809.47,1620.46C7809.63,1620.34 7809.86,1620.36 7810,1620.5C7810,1620.5 7815.64,1626.13 7815.64,1626.13C7815.84,1626.33 7816.11,1626.44 7816.39,1626.44C7816.97,1626.44 7817.45,1625.96 7817.45,1625.38C7817.45,1625.1 7817.34,1624.83 7817.14,1624.63L7811.51,1618.99C7811.36,1618.85 7811.35,1618.63 7811.47,1618.47C7814.59,1614.35 7814.19,1608.51 7810.55,1604.85ZM7789.44,1626.44C7790.03,1626.44 7790.51,1625.96 7790.51,1625.37C7790.51,1624.79 7790.03,1624.31 7789.44,1624.31C7789.44,1624.31 7771.52,1624.31 7771.52,1624.31C7769.4,1624.31 7767.65,1622.56 7767.65,1620.44C7767.65,1620.44 7767.65,1620.44 7767.65,1620.44C7767.65,1620.44 7767.65,1591.27 7767.65,1591.27C7767.65,1589.14 7769.4,1587.4 7771.52,1587.39C7771.52,1587.39 7771.52,1587.39 7771.52,1587.39C7771.52,1587.39 7798.93,1587.39 7798.93,1587.39C7801.06,1587.4 7802.8,1589.14 7802.81,1591.27L7802.81,1593.76C7802.81,1594.35 7803.29,1594.83 7803.87,1594.83C7804.45,1594.83 7804.94,1594.35 7804.94,1593.76C7804.94,1593.76 7804.94,1591.27 7804.94,1591.27C7804.93,1587.98 7802.22,1585.27 7798.93,1585.27C7798.93,1585.27 7771.52,1585.27 7771.52,1585.27C7768.23,1585.27 7765.52,1587.98 7765.52,1591.27L7765.52,1620.44L7765.52,1620.51C7765.53,1621.16 7765.64,1621.81 7765.86,1622.42C7766.47,1624.12 7767.84,1625.49 7769.54,1626.1C7770.18,1626.32 7770.85,1626.43 7771.52,1626.44L7789.44,1626.44ZM7797.36,1618.04C7800.57,1621.23 7805.84,1621.23 7809.04,1618.04C7810.59,1616.49 7811.46,1614.38 7811.46,1612.19C7811.46,1607.66 7807.73,1603.93 7803.2,1603.93C7798.67,1603.93 7794.94,1607.66 7794.94,1612.19C7794.94,1614.38 7795.81,1616.49 7797.36,1618.03L7797.36,1618.04ZM7773.99,1608.37C7774.57,1608.37 7775.05,1608.85 7775.05,1609.43L7775.05,1616.09C7775.05,1616.67 7774.57,1617.15 7773.98,1617.15C7773.4,1617.15 7772.92,1616.67 7772.92,1616.09L7772.92,1609.43C7772.92,1608.85 7773.4,1608.37 7773.98,1608.37L7773.99,1608.37ZM7780.78,1602.31C7781.36,1602.31 7781.84,1602.79 7781.84,1603.37L7781.84,1616.09C7781.84,1616.67 7781.36,1617.15 7780.78,1617.15C7780.19,1617.15 7779.71,1616.67 7779.71,1616.09L7779.71,1603.37C7779.71,1602.79 7780.19,1602.31 7780.77,1602.31L7780.78,1602.31ZM7787.58,1597.64C7788.16,1597.64 7788.64,1598.12 7788.64,1598.71L7788.64,1616.09C7788.64,1616.67 7788.15,1617.15 7787.57,1617.15C7786.99,1617.15 7786.51,1616.67 7786.51,1616.09L7786.51,1598.71C7786.51,1598.12 7786.98,1597.64 7787.56,1597.64L7787.58,1597.64Z" style="fill:rgb(0,224,180);"/>
            </g>
        </g>
    </g>
</svg>
