<?xml version="1.0" encoding="UTF-8" standalone="no"?>
<!DOCTYPE svg PUBLIC "-//W3C//DTD SVG 1.1//EN" "http://www.w3.org/Graphics/SVG/1.1/DTD/svg11.dtd">
<svg width="100%" height="100%" viewBox="0 0 48 48" version="1.1" xmlns="http://www.w3.org/2000/svg" xmlns:xlink="http://www.w3.org/1999/xlink" xml:space="preserve" xmlns:serif="http://www.serif.com/" style="fill-rule:evenodd;clip-rule:evenodd;stroke-linejoin:round;stroke-miterlimit:2;">
    <g transform="matrix(1,0,0,1,-3545,-1970.59)">
        <g transform="matrix(1,0,0,1,3545,1970.59)">
            <path d="M24,10C16.3,10 10,16.3 10,24C10,31.7 16.3,38 24,38C31.7,38 38,31.7 38,24C38,16.3 31.7,10 24,10ZM24,36C17.4,36 12,30.6 12,24C12,17.4 17.4,12 24,12C30.6,12 36,17.4 36,24C36,30.6 30.6,36 24,36Z" style="fill:rgb(0,224,180);fill-rule:nonzero;"/>
            <path d="M47,19.7L43.1,19.7C42.6,17.5 41.7,15.4 40.5,13.5L43.2,10.8C43.4,10.6 43.5,10.4 43.5,10.1C43.5,9.8 43.4,9.6 43.2,9.4L38.6,4.8C38.2,4.4 37.6,4.4 37.2,4.8L34.5,7.5C32.6,6.3 30.5,5.4 28.3,4.9L28.3,1C28.3,0.4 27.9,0 27.3,0L20.7,0C20.1,0 19.7,0.4 19.7,1L19.7,4.9C17.5,5.4 15.4,6.3 13.5,7.5L10.8,4.8C10.4,4.4 9.8,4.4 9.4,4.8L4.7,9.4C4.5,9.6 4.4,9.8 4.4,10.1C4.4,10.4 4.5,10.6 4.7,10.8L7.4,13.5C6.2,15.4 5.3,17.5 4.8,19.7L1,19.7C0.4,19.7 0,20.1 0,20.7L0,27.3C0,27.9 0.4,28.3 1,28.3L4.9,28.3C5.4,30.5 6.3,32.6 7.5,34.5L4.8,37.2C4.6,37.4 4.5,37.6 4.5,37.9C4.5,38.2 4.6,38.4 4.8,38.6L9.4,43.2C9.8,43.6 10.4,43.6 10.8,43.2L13.5,40.5C15.4,41.7 17.5,42.6 19.7,43.1L19.7,47C19.7,47.6 20.1,48 20.7,48L27.3,48C27.9,48 28.3,47.6 28.3,47L28.3,43.1C30.5,42.6 32.6,41.7 34.5,40.5L37.2,43.2C37.6,43.6 38.2,43.6 38.6,43.2L43.2,38.6C43.4,38.4 43.5,38.2 43.5,37.9C43.5,37.6 43.4,37.4 43.2,37.2L40.5,34.5C41.7,32.6 42.6,30.5 43.1,28.3L47,28.3C47.6,28.3 48,27.9 48,27.3L48,20.7C48,20.2 47.6,19.7 47,19.7ZM46,26.3L42.3,26.3C41.8,26.3 41.4,26.6 41.3,27.1C40.9,29.6 39.9,32 38.4,34C38.1,34.4 38.2,34.9 38.5,35.3L41.1,37.9L37.9,41.1L35.3,38.5C35,38.2 34.4,38.1 34,38.4C31.9,39.9 29.6,40.8 27.1,41.3C26.6,41.4 26.3,41.8 26.3,42.3L26.3,46L21.7,46L21.7,42.3C21.7,41.8 21.4,41.4 20.9,41.3C18.4,40.9 16,39.9 14,38.4C13.6,38.1 13.1,38.2 12.7,38.5L10.1,41.1L6.9,37.9L9.5,35.3C9.8,35 9.9,34.4 9.6,34C8.1,31.9 7.2,29.6 6.7,27.1C6.6,26.6 6.2,26.3 5.7,26.3L2,26.3L2,21.7L5.7,21.7C6.2,21.7 6.6,21.4 6.7,20.9C7.1,18.4 8.1,16 9.6,14C9.9,13.6 9.8,13.1 9.5,12.7L6.9,10.1L10.1,6.9L12.7,9.5C13,9.8 13.6,9.9 14,9.6C16.1,8.1 18.4,7.2 20.9,6.7C21.4,6.6 21.7,6.2 21.7,5.7L21.7,2L26.3,2L26.3,5.7C26.3,6.2 26.6,6.6 27.1,6.7C29.6,7.1 32,8.1 34,9.6C34.4,9.9 34.9,9.8 35.3,9.5L37.9,6.9L41.1,10.1L38.5,12.7C38.2,13 38.1,13.6 38.4,14C39.9,16.1 40.8,18.4 41.3,20.9C41.4,21.4 41.8,21.7 42.3,21.7L46,21.7L46,26.3Z" style="fill:rgb(0,224,180);fill-rule:nonzero;"/>
            <path d="M28,19.8C27.6,20.2 27.7,20.9 28.1,21.2L31.5,24L28.1,26.8C27.7,27.2 27.6,27.8 28,28.2C28.2,28.4 28.5,28.6 28.8,28.6C29,28.6 29.3,28.5 29.4,28.4L33.7,24.8C33.9,24.6 34.1,24.3 34.1,24C34.1,23.7 34,23.4 33.7,23.2L29.4,19.6C28.9,19.3 28.3,19.4 28,19.8Z" style="fill:rgb(0,224,180);fill-rule:nonzero;"/>
            <path d="M20,19.8C19.6,19.4 19,19.3 18.6,19.7L14.3,23.3C14.1,23.4 14,23.7 14,24C14,24.3 14.1,24.6 14.4,24.8L18.7,28.4C18.9,28.6 19.1,28.6 19.3,28.6C19.6,28.6 19.9,28.5 20.1,28.2C20.5,27.8 20.4,27.1 20,26.8L16.6,24L20,21.2C20.3,20.8 20.4,20.2 20,19.8Z" style="fill:rgb(0,224,180);fill-rule:nonzero;"/>
            <path d="M26.5,19.6C26,19.3 25.4,19.5 25.1,20L21.1,27.1C20.8,27.6 21,28.2 21.5,28.5C21.7,28.6 21.8,28.6 22,28.6C22.3,28.6 22.7,28.4 22.9,28.1L26.9,21C27.2,20.4 27,19.8 26.5,19.6Z" style="fill:rgb(0,224,180);fill-rule:nonzero;"/>
        </g>
    </g>
</svg>
