<?xml version="1.0" encoding="UTF-8" standalone="no"?>
<!DOCTYPE svg PUBLIC "-//W3C//DTD SVG 1.1//EN" "http://www.w3.org/Graphics/SVG/1.1/DTD/svg11.dtd">
<svg width="100%" height="100%" viewBox="0 0 48 48" version="1.1" xmlns="http://www.w3.org/2000/svg" xmlns:xlink="http://www.w3.org/1999/xlink" xml:space="preserve" xmlns:serif="http://www.serif.com/" style="fill-rule:evenodd;clip-rule:evenodd;stroke-linejoin:round;stroke-miterlimit:2;">
    <g transform="matrix(1,0,0,1,-265,-2766.75)">
        <g transform="matrix(1,0,0,1.14,-720,1618.12)">
            <g transform="matrix(1,0,0,0.877193,984,1006.7)">
                <path d="M26.293,20.293L22.586,24L10.5,24C5.262,24 1,28.262 1,33.5C1,38.738 5.262,43 10.5,43L13.08,43C13.568,46.387 16.481,49 20,49C23.519,49 26.432,46.387 26.92,43L35.08,43C35.568,46.387 38.481,49 42,49C45.859,49 49,45.86 49,42C49,38.14 45.859,35 42,35C38.481,35 35.568,37.613 35.08,41L26.92,41C26.432,37.613 23.519,35 20,35C16.481,35 13.568,37.613 13.08,41L10.5,41C6.364,41 3,37.636 3,33.5C3,29.364 6.364,26 10.5,26L22.586,26L26.293,29.707L27.707,28.293L25.414,26L39.5,26C44.738,26 49,21.738 49,16.5C49,11.262 44.738,7 39.5,7L36.92,7C36.432,3.613 33.519,1 30,1C26.481,1 23.568,3.613 23.08,7L14.92,7C14.432,3.613 11.519,1 8,1C4.141,1 1,4.14 1,8C1,11.86 4.141,15 8,15C11.519,15 14.432,12.387 14.92,9L23.08,9C23.568,12.387 26.481,15 30,15C33.519,15 36.432,12.387 36.92,9L39.5,9C43.636,9 47,12.364 47,16.5C47,20.636 43.636,24 39.5,24L25.414,24L27.707,21.707L26.293,20.293ZM42,37C44.757,37 47,39.243 47,42C47,44.757 44.757,47 42,47C39.243,47 37,44.757 37,42C37,39.243 39.243,37 42,37ZM20,37C22.757,37 25,39.243 25,42C25,44.757 22.757,47 20,47C17.243,47 15,44.757 15,42C15,39.243 17.243,37 20,37ZM8,13C5.243,13 3,10.757 3,8C3,5.243 5.243,3 8,3C10.757,3 13,5.243 13,8C13,10.757 10.757,13 8,13ZM30,13C27.243,13 25,10.757 25,8C25,5.243 27.243,3 30,3C32.757,3 35,5.243 35,8C35,10.757 32.757,13 30,13Z" style="fill:rgb(0,224,180);fill-rule:nonzero;"/>
            </g>
        </g>
    </g>
</svg>
