<?xml version="1.0" encoding="UTF-8" standalone="no"?><!DOCTYPE svg PUBLIC "-//W3C//DTD SVG 1.1//EN" "http://www.w3.org/Graphics/SVG/1.1/DTD/svg11.dtd"><svg width="100%" height="100%" viewBox="0 0 70 57" version="1.1" xmlns="http://www.w3.org/2000/svg" xmlns:xlink="http://www.w3.org/1999/xlink" xml:space="preserve" xmlns:serif="http://www.serif.com/" style="fill-rule:evenodd;clip-rule:evenodd;stroke-linejoin:round;stroke-miterlimit:2;"><rect id="SG-1920px-2" serif:id="SG 1920px 2" x="-1024.75" y="-1546" width="1920" height="9096.12" style="fill:none;"/><g><g id="cta"></g></g><g><g><g id="Logo"></g></g></g><g><g id="cta1" serif:id="cta"></g></g><g><g id="_1" serif:id="1"><g><g><g id="cta2" serif:id="cta"></g></g></g></g></g><g><g id="cta3" serif:id="cta"></g><g><g id="vue"></g><g><g id="js"></g></g></g></g><g><g id="Strony-www" serif:id="Strony www"><g id="cta4" serif:id="cta"></g></g><g id="Ecommerce"><path d="M33.527,50.048c0,3.342 -2.708,6.05 -6.049,6.05c-3.341,0 -6.05,-2.708 -6.05,-6.05c0,-3.341 2.709,-6.049 6.05,-6.049c3.341,0 6.049,2.708 6.049,6.049Zm24.981,0c0,3.342 -2.709,6.05 -6.05,6.05c-3.341,0 -6.05,-2.708 -6.05,-6.05c0,-3.341 2.709,-6.049 6.05,-6.049c3.341,0 6.05,2.708 6.05,6.049Zm-34.755,0c0,2.058 1.667,3.726 3.725,3.726c2.057,0 3.725,-1.668 3.725,-3.726c0,-2.057 -1.668,-3.725 -3.725,-3.725c-2.058,0 -3.725,1.668 -3.725,3.725Zm24.98,0c0,2.058 1.668,3.726 3.725,3.726c2.057,0 3.725,-1.668 3.725,-3.726c0,-2.057 -1.668,-3.725 -3.725,-3.725c-2.057,0 -3.725,1.668 -3.725,3.725Zm18.93,-41.89c0.791,0 1.351,0.772 1.105,1.523c0,0 -9.232,28.239 -9.232,28.239c-0.156,0.477 -0.602,0.801 -1.104,0.801l-34.755,0c-0.522,0 -0.98,-0.348 -1.12,-0.851c0,0 -8.857,-31.78 -8.857,-31.78c-0.105,-0.377 -0.419,-0.66 -0.806,-0.725l-11.672,-1.958c-0.001,0 -0.001,0 -0.001,0c-0.634,-0.106 -1.061,-0.705 -0.956,-1.338c0.106,-0.633 0.705,-1.06 1.338,-0.955c0,0 13.033,2.172 13.033,2.172c0.445,0.074 0.807,0.4 0.928,0.835c0,0 8.989,32.255 8.989,32.255l33.046,0.021l2.433,-7.451l-27.028,0c-0.642,0 -1.162,-0.521 -1.162,-1.162c0,-0.642 0.52,-1.163 1.162,-1.163l27.787,0l2.078,-6.364l-31.59,0c-0.642,0 -1.162,-0.52 -1.162,-1.162c0,-0.642 0.52,-1.162 1.162,-1.162l32.349,0l2.435,-7.459l-36.956,0.008c-0.642,0 -1.162,-0.52 -1.162,-1.162c0,-0.642 0.52,-1.162 1.162,-1.162l38.556,0Z" style="fill:#00e0b4;"/><g id="cta5" serif:id="cta"></g></g><g id="Aplikacje-internetowe" serif:id="Aplikacje internetowe"><g id="cta6" serif:id="cta"></g></g><g id="MVP"><g id="cta7" serif:id="cta"></g></g><g id="Audyt"><g id="cta8" serif:id="cta"></g></g><g id="CTA"><g id="cta9" serif:id="cta"></g></g></g><g><g id="cta10" serif:id="cta"></g><g id="Menu"><g id="cta11" serif:id="cta"></g></g><g id="webo"></g></g></svg>