<?xml version="1.0" encoding="UTF-8" standalone="no"?>
<!DOCTYPE svg PUBLIC "-//W3C//DTD SVG 1.1//EN" "http://www.w3.org/Graphics/SVG/1.1/DTD/svg11.dtd">
<svg width="100%" height="100%" viewBox="0 0 34 48" version="1.1" xmlns="http://www.w3.org/2000/svg" xmlns:xlink="http://www.w3.org/1999/xlink" xml:space="preserve" xmlns:serif="http://www.serif.com/" style="fill-rule:evenodd;clip-rule:evenodd;stroke-linejoin:round;stroke-miterlimit:2;">
    <g transform="matrix(1,0,0,1,-4135,-4913.37)">
        <g transform="matrix(0.508125,0,0,0.508125,4126.18,4912.06)">
            <path d="M41.5,21.3C42.2,21.1 42.6,20.3 42.3,19.6L42.3,19.5C41.9,18.2 41.6,17.1 41.6,16.1C41.7,15.1 42,14 42.6,12.7C42.9,12.1 43.2,11.4 43.4,10.7C43.7,9.9 44,9 44,8C44.1,7.1 43.9,6.1 43.6,5.3C43.4,4.9 43.3,4.5 43,4.1C42.8,3.7 42.5,3.4 42.1,3C41.8,2.7 41.3,2.5 40.9,2.6C40.2,2.8 39.8,3.4 39.9,4.1L40,4.6C40,4.8 40.2,5.1 40.2,5.3C40.3,5.6 40.3,5.8 40.4,6.1C40.5,6.6 40.4,7.2 40.4,7.7C40.3,8.2 40.1,8.7 39.9,9.2L39,11.2C38.7,11.9 38.4,12.7 38.2,13.5C38,14.3 37.9,15.3 38,16.2C38.1,18.1 39,19.7 40,20.9C40.4,21.3 40.9,21.5 41.5,21.3Z" style="fill:rgb(0,224,180);fill-rule:nonzero;"/>
            <path d="M50.5,21.3C51.2,21.1 51.6,20.3 51.3,19.6L51.3,19.5C50.9,18.2 50.6,17.1 50.6,16.1C50.7,15.1 51,14 51.6,12.7C51.9,12.1 52.2,11.4 52.4,10.7C52.7,9.9 53,9 53,8C53.1,7.1 52.9,6.1 52.6,5.3C52.4,4.9 52.3,4.5 52,4.1C51.8,3.7 51.5,3.4 51.1,3C50.8,2.7 50.3,2.5 49.9,2.6C49.2,2.8 48.8,3.4 48.9,4.1L49,4.6C49,4.8 49.2,5.1 49.2,5.3C49.3,5.6 49.3,5.8 49.3,6.1C49.4,6.6 49.3,7.2 49.3,7.7C49.2,8.2 49,8.7 48.8,9.2L47.9,11.2C47.6,11.9 47.3,12.7 47.1,13.5C46.9,14.3 46.8,15.3 46.9,16.2C47,18.1 47.9,19.7 48.9,20.9C49.4,21.3 49.9,21.5 50.5,21.3Z" style="fill:rgb(0,224,180);fill-rule:nonzero;"/>
            <path d="M59.5,21.3C60.2,21.1 60.6,20.3 60.3,19.6L60.3,19.5C59.9,18.2 59.6,17.1 59.6,16.1C59.7,15.1 60,14 60.6,12.7C60.9,12.1 61.2,11.4 61.4,10.7C61.7,9.9 62,9 62,8C62.1,7.1 61.9,6.1 61.6,5.3C61.4,4.9 61.3,4.5 61,4.1C60.8,3.7 60.5,3.4 60.1,3C59.8,2.7 59.3,2.5 58.9,2.6C58.2,2.8 57.8,3.4 57.9,4.1L58,4.6C58,4.8 58.2,5.1 58.2,5.3C58.3,5.6 58.3,5.8 58.4,6.1C58.5,6.6 58.4,7.2 58.4,7.7C58.3,8.2 58.1,8.7 57.9,9.2L57,11.2C56.7,11.9 56.4,12.7 56.2,13.5C56,14.3 55.9,15.3 56,16.2C56.1,18.1 57,19.7 58,20.9C58.4,21.3 59,21.5 59.5,21.3Z" style="fill:rgb(0,224,180);fill-rule:nonzero;"/>
            <g transform="matrix(1.89852,0,0,1.89852,-12924.5,-12578.7)">
                <path d="M6826.7,6641.76C6825.42,6641.74 6825.62,6639.74 6826.7,6639.73C6831.6,6639.73 6836.5,6639.59 6841.39,6639.73C6842.27,6639.79 6842.62,6640.99 6842.01,6641.51C6841.39,6642.05 6840.15,6641.46 6839.99,6642C6839.99,6642 6839.99,6650.54 6839.99,6650.54C6839.99,6650.54 6840.08,6651.54 6840.42,6652.14C6843.77,6657.6 6847.24,6662.99 6850.56,6668.48C6852.66,6672.03 6849.79,6676.48 6846.07,6676.57C6838.05,6676.65 6830.03,6676.65 6822.02,6676.57C6817.77,6676.47 6815.67,6671.57 6817.47,6668.47C6820.78,6663.01 6824.2,6657.61 6827.59,6652.19C6827.87,6651.73 6828.02,6651.2 6828.05,6650.66C6828.1,6647.79 6828.05,6644.92 6828.05,6642.06C6828.03,6641.84 6828,6641.78 6827.75,6641.76L6826.7,6641.76ZM6837.66,6641.76C6837.88,6641.83 6837.89,6641.92 6837.9,6642.06C6837.9,6644.92 6837.87,6647.77 6837.9,6650.63C6837.93,6651.57 6838.2,6652.49 6838.65,6653.31C6838.65,6653.31 6842.31,6659.18 6842.31,6659.18C6842.4,6659.56 6842.41,6659.58 6841.67,6659.59C6836.9,6659.58 6832.61,6656.71 6827.73,6657.73C6826.3,6658.03 6826.63,6657.72 6826.76,6657.44C6828.17,6655.14 6830.07,6652.98 6830.08,6650.49L6830.08,6642.06C6830.11,6641.81 6830.16,6641.78 6830.38,6641.76L6837.6,6641.76C6837.62,6641.76 6837.64,6641.76 6837.66,6641.76Z" style="fill:rgb(0,224,180);"/>
            </g>
        </g>
    </g>
</svg>
