<?xml version="1.0" encoding="UTF-8" standalone="no"?>
<!DOCTYPE svg PUBLIC "-//W3C//DTD SVG 1.1//EN" "http://www.w3.org/Graphics/SVG/1.1/DTD/svg11.dtd">
<svg width="100%" height="100%" viewBox="0 0 48 48" version="1.1" xmlns="http://www.w3.org/2000/svg" xmlns:xlink="http://www.w3.org/1999/xlink" xml:space="preserve" xmlns:serif="http://www.serif.com/" style="fill-rule:evenodd;clip-rule:evenodd;stroke-linejoin:round;stroke-miterlimit:2;">
    <g transform="matrix(1,0,0,1,-4505,-1550.24)">
        <g transform="matrix(1,0,0,1,4505,1550.24)">
            <path d="M31.9,9.7C31.5,9.3 30.9,9.4 30.5,9.8C30.1,10.2 30.2,10.8 30.6,11.2L36.3,16.2L30.6,21.2C30.2,21.6 30.1,22.2 30.5,22.6C30.7,22.8 31,22.9 31.3,22.9C31.5,22.9 31.8,22.8 32,22.7L38.6,17C38.8,16.8 38.9,16.5 38.9,16.2C38.9,15.9 38.8,15.6 38.6,15.4L31.9,9.7Z" style="fill:rgb(0,224,180);fill-rule:nonzero;"/>
            <path d="M17.5,9.8C17.1,9.4 16.5,9.3 16.1,9.7L9.5,15.4C9.3,15.6 9.2,15.9 9.2,16.2C9.2,16.5 9.3,16.8 9.5,17L16.1,22.7C16.3,22.9 16.5,22.9 16.8,22.9C17.1,22.9 17.4,22.8 17.6,22.6C18,22.2 17.9,21.6 17.5,21.2L11.8,16.2L17.5,11.2C17.8,10.8 17.9,10.2 17.5,9.8Z" style="fill:rgb(0,224,180);fill-rule:nonzero;"/>
            <path d="M27.6,9.6C27.1,9.3 26.5,9.5 26.2,10L20,21.4C19.7,21.9 19.9,22.5 20.4,22.8C20.9,23 21.4,22.9 21.8,22.4L28,10.9C28.2,10.4 28.1,9.8 27.6,9.6Z" style="fill:rgb(0,224,180);fill-rule:nonzero;"/>
            <path d="M47.9,40.7L44,31.1L44,1C44,0.4 43.6,0 43,0L4.9,0C4.3,0 3.9,0.4 3.9,1L3.9,31.1L0,40.8L0,44C0,46.2 1.7,48 3.8,48L44.1,48C46.2,48 47.9,46.2 47.9,44L47.9,41.2C48,41.1 48,40.9 47.9,40.7ZM5.9,2L42,2L42,30.3L5.9,30.3L5.9,2ZM5.6,32.3L42.4,32.3L45.5,40.2L2.5,40.2L5.6,32.3ZM46,44C46,45.1 45.2,46 44.2,46L3.8,46C2.8,46 2,45.1 2,44L2,42.2L46,42.2L46,44Z" style="fill:rgb(0,224,180);fill-rule:nonzero;"/>
            <path d="M26.7,35.8L21.3,35.8C20.7,35.8 20.3,36.2 20.3,36.8C20.3,37.4 20.7,37.8 21.3,37.8L26.7,37.8C27.3,37.8 27.7,37.4 27.7,36.8C27.7,36.2 27.3,35.8 26.7,35.8Z" style="fill:rgb(0,224,180);fill-rule:nonzero;"/>
        </g>
    </g>
</svg>
