<?xml version="1.0" encoding="UTF-8" standalone="no"?><!DOCTYPE svg PUBLIC "-//W3C//DTD SVG 1.1//EN" "http://www.w3.org/Graphics/SVG/1.1/DTD/svg11.dtd"><svg width="100%" height="100%" viewBox="0 0 55 56" version="1.1" xmlns="http://www.w3.org/2000/svg" xmlns:xlink="http://www.w3.org/1999/xlink" xml:space="preserve" xmlns:serif="http://www.serif.com/" style="fill-rule:evenodd;clip-rule:evenodd;stroke-miterlimit:1.5;"><rect id="SG-1920px-2" serif:id="SG 1920px 2" x="-86.751" y="-2017" width="1920" height="9096.12" style="fill:none;"/><clipPath id="_clip1"><rect x="-86.751" y="-2017" width="1920" height="9096.12"/></clipPath><g clip-path="url(#_clip1)"><g><g id="cta"></g></g><g><g><g id="Logo"></g></g></g><g><g id="cta1" serif:id="cta"></g></g><g><g id="_1" serif:id="1"><g><g><g id="cta2" serif:id="cta"></g></g></g></g></g><g><g id="cta3" serif:id="cta"></g><g><g id="vue"></g><g><g id="js"></g></g></g></g><g><g><g id="cta4" serif:id="cta"></g></g></g><g><g><path d="M-86.388,-382.143c20.297,-1.169 37.142,7.825 50.809,22.561c32.826,35.391 47.327,103.905 47.327,144.289c0,73.487 85.38,112.367 161.484,113.287c44.65,0.539 87.809,-31.96 167.989,-30.265c80.181,1.695 104.029,94.505 216.496,108.025c131.672,15.828 263.126,-72.089 393.854,-70.488c130.729,1.601 266.051,92.751 384.67,95.684c112.045,2.77 238.351,-76.154 327.044,-78.088c71.856,-1.567 136.743,44.321 205.114,66.481" style="fill:none;stroke:#4af7d5;stroke-width:1px;"/><path d="M-96.57,-361.78c20.298,-1.169 37.142,7.824 50.81,22.56c32.826,35.392 47.326,103.905 47.326,144.289c0,73.488 85.381,112.368 161.485,113.287c44.65,0.539 87.808,-31.96 167.989,-30.264c80.181,1.695 104.029,94.505 216.496,108.024c131.672,15.828 263.126,-72.088 393.854,-70.488c130.728,1.601 266.051,92.751 384.67,95.684c112.045,2.77 238.351,-76.153 327.044,-78.088c71.856,-1.567 136.742,44.321 205.114,66.482" style="fill:none;stroke:#4af7d5;stroke-width:1px;"/><path d="M-106.751,-341.418c20.298,-1.169 37.142,7.825 50.81,22.56c32.826,35.392 47.326,103.905 47.326,144.289c0,73.488 85.38,112.368 161.484,113.287c44.651,0.54 87.809,-31.959 167.99,-30.264c80.181,1.695 104.029,94.505 216.495,108.025c131.672,15.828 263.126,-72.089 393.855,-70.488c130.728,1.601 266.051,92.751 384.67,95.683c112.044,2.77 238.351,-76.153 327.044,-78.087c71.856,-1.568 136.742,44.321 205.114,66.481" style="fill:none;stroke:#4af7d5;stroke-width:1px;"/></g><g><path d="M-86.388,-382.143c20.297,-1.169 37.142,7.825 50.809,22.561c32.826,35.391 47.327,103.905 47.327,144.289c0,73.487 85.38,112.367 161.484,113.287c44.65,0.539 87.809,-31.96 167.989,-30.265c80.181,1.695 104.029,94.505 216.496,108.025c131.672,15.828 263.126,-72.089 393.854,-70.488c130.729,1.601 266.051,92.751 384.67,95.684c112.045,2.77 238.351,-76.154 327.044,-78.088c71.856,-1.567 136.743,44.321 205.114,66.481" style="fill:none;stroke:#4af7d5;stroke-width:1px;"/><path d="M-96.57,-361.78c20.298,-1.169 37.142,7.824 50.81,22.56c32.826,35.392 47.326,103.905 47.326,144.289c0,73.488 85.381,112.368 161.485,113.287c44.65,0.539 87.808,-31.96 167.989,-30.264c80.181,1.695 104.029,94.505 216.496,108.024c131.672,15.828 263.126,-72.088 393.854,-70.488c130.728,1.601 266.051,92.751 384.67,95.684c112.045,2.77 238.351,-76.153 327.044,-78.088c71.856,-1.567 136.742,44.321 205.114,66.482" style="fill:none;stroke:#4af7d5;stroke-width:1px;"/><path d="M-106.751,-341.418c20.298,-1.169 37.142,7.825 50.81,22.56c32.826,35.392 47.326,103.905 47.326,144.289c0,73.488 85.38,112.368 161.484,113.287c44.651,0.54 87.809,-31.959 167.99,-30.264c80.181,1.695 104.029,94.505 216.495,108.025c131.672,15.828 263.126,-72.089 393.855,-70.488c130.728,1.601 266.051,92.751 384.67,95.683c112.044,2.77 238.351,-76.153 327.044,-78.087c71.856,-1.568 136.742,44.321 205.114,66.481" style="fill:none;stroke:#4af7d5;stroke-width:1px;"/></g><g id="Strony-www" serif:id="Strony www"><g id="cta5" serif:id="cta"></g></g><g id="Ecommerce"><g id="cta6" serif:id="cta"></g></g><g id="Aplikacje-internetowe" serif:id="Aplikacje internetowe"><g><path d="M26.444,24.082c-0.13,-0.014 -0.26,-0.03 -0.39,-0.049l-0.654,1.537c-0.114,0.269 -0.307,0.448 -0.532,0.537c-0.223,0.089 -0.486,0.094 -0.755,-0.021c0,0 -3.184,-1.355 -3.184,-1.355c-0.269,-0.115 -0.448,-0.307 -0.539,-0.529c-0.091,-0.224 -0.096,-0.487 0.018,-0.756l0.654,-1.538c-0.781,-0.606 -1.474,-1.322 -2.062,-2.112l-1.521,0.607c-0.516,0.205 -1.06,-0.026 -1.269,-0.54c0,0 -1.282,-3.148 -1.282,-3.148c-0.106,-0.259 -0.115,-0.478 0,-0.749c0.116,-0.271 0.28,-0.417 0.539,-0.52l1.517,-0.605c-0.129,-0.971 -0.131,-1.96 0.007,-2.931l-1.553,-0.661c-0.269,-0.115 -0.448,-0.307 -0.538,-0.529c-0.092,-0.224 -0.097,-0.487 0.018,-0.756c0,0 1.345,-3.161 1.345,-3.161c0.114,-0.269 0.307,-0.447 0.532,-0.537c0.223,-0.089 0.486,-0.093 0.755,0.021l1.504,0.64c0.604,-0.772 1.319,-1.457 2.108,-2.037l-0.616,-1.513c-0.105,-0.258 -0.115,-0.477 0.001,-0.748c0.115,-0.272 0.28,-0.417 0.539,-0.52c0.001,-0.001 0.003,-0.001 0.004,-0.002c0,0 3.206,-1.238 3.202,-1.236c0.515,-0.206 1.059,0.025 1.268,0.54l0.618,1.517c0.977,-0.124 1.974,-0.122 2.952,0.021l0.655,-1.538c0.114,-0.269 0.307,-0.447 0.532,-0.537c0.223,-0.088 0.485,-0.093 0.754,0.022c0,0 3.185,1.355 3.185,1.355c0.269,0.114 0.448,0.306 0.539,0.529c0.091,0.224 0.096,0.487 -0.018,0.756l-0.655,1.537c0.782,0.607 1.474,1.323 2.063,2.113l1.521,-0.607c0.516,-0.206 1.06,0.026 1.269,0.54c0,0 1.282,3.148 1.282,3.148c0.105,0.258 0.115,0.478 0,0.749c-0.116,0.271 -0.281,0.416 -0.54,0.519l-1.516,0.605c0.128,0.972 0.131,1.961 -0.007,2.932l1.553,0.661c0.543,0.231 0.711,0.835 0.52,1.285c0,0 -1.345,3.161 -1.345,3.161c-0.114,0.269 -0.308,0.447 -0.532,0.537c-0.223,0.089 -0.486,0.093 -0.755,-0.021l-1.552,-0.661c-0.605,0.773 -1.319,1.457 -2.108,2.038l0.615,1.512c0.106,0.258 0.115,0.478 0,0.749c-0.116,0.271 -0.28,0.416 -0.539,0.519c0,0 -3.158,1.259 -3.158,1.259c-0.515,0.206 -1.059,-0.026 -1.269,-0.54l-0.617,-1.517c-0.092,0.012 -0.183,0.022 -0.275,0.032l0,8.254l18.888,0l0,9.154l6.284,0c0.687,0 1.144,0.457 1.144,1.144l0,12.014c0,0.686 -0.457,1.144 -1.144,1.144l-14.857,0c-0.145,-0.001 -0.291,-0.021 -0.428,-0.068c-0.087,-0.03 -0.17,-0.07 -0.247,-0.121c-0.057,-0.038 -0.11,-0.081 -0.159,-0.13c-0.123,-0.126 -0.21,-0.283 -0.259,-0.451c-0.035,-0.121 -0.051,-0.248 -0.051,-0.374c0,-4.005 0,-8.01 0,-12.014c0,-0.127 0.016,-0.253 0.051,-0.375c0.049,-0.168 0.136,-0.325 0.259,-0.45c0.049,-0.049 0.102,-0.093 0.159,-0.131c0.077,-0.051 0.16,-0.091 0.247,-0.121c0.137,-0.047 0.283,-0.067 0.428,-0.067l6.285,0l0,-6.866l-16.6,0l0,6.866l6.284,0c0.687,0 1.145,0.457 1.145,1.144l0,12.014c0,0.686 -0.458,1.144 -1.145,1.144l-14.856,0c-0.146,-0.001 -0.291,-0.021 -0.429,-0.068c-0.087,-0.03 -0.17,-0.07 -0.246,-0.121c-0.058,-0.038 -0.111,-0.081 -0.16,-0.13c-0.123,-0.126 -0.21,-0.283 -0.259,-0.451c-0.035,-0.121 -0.051,-0.248 -0.051,-0.374c0,-4.005 0,-8.01 0,-12.014c0,-0.127 0.016,-0.253 0.051,-0.375c0.049,-0.168 0.136,-0.325 0.259,-0.45c0.049,-0.049 0.102,-0.093 0.16,-0.131c0.076,-0.051 0.159,-0.091 0.246,-0.121c0.138,-0.047 0.283,-0.067 0.429,-0.067l6.284,0l0,-6.866l-16.6,0l0,6.866l6.285,0c0.686,0 1.144,0.457 1.144,1.144l0,12.014c0,0.686 -0.458,1.144 -1.144,1.144l-14.857,0c-0.146,-0.001 -0.291,-0.021 -0.429,-0.068c-0.087,-0.03 -0.17,-0.07 -0.246,-0.121c-0.058,-0.038 -0.111,-0.081 -0.159,-0.13c-0.124,-0.126 -0.211,-0.283 -0.26,-0.451c-0.035,-0.121 -0.05,-0.248 -0.05,-0.374c0,-4.005 0,-8.01 0,-12.014c0,-0.127 0.015,-0.253 0.05,-0.375c0.049,-0.168 0.136,-0.325 0.26,-0.45c0.048,-0.049 0.101,-0.093 0.159,-0.131c0.076,-0.051 0.159,-0.091 0.246,-0.121c0.138,-0.047 0.283,-0.067 0.429,-0.067l6.284,0l0,-9.154l18.888,0l0,-8.258Zm7.428,19.7l-12.568,0l0,9.726l12.568,0l0,-9.726Zm18.888,0l-12.568,0l0,9.726l12.568,0l0,-9.726Zm-37.776,0l-12.568,0l0,9.726l12.568,0l0,-9.726Zm9.134,-40.743l-1.346,0.537l0.551,1.352c0.008,0.02 0.015,0.041 0.02,0.062c0.115,0.458 -0.023,0.915 -0.433,1.151c-1.067,0.613 -1.984,1.504 -2.646,2.556c-0.004,0.005 -0.007,0.01 -0.01,0.015c-0.28,0.409 -0.752,0.532 -1.203,0.34l-1.364,-0.58l-0.579,1.361l1.364,0.581c0.45,0.191 0.689,0.617 0.589,1.102c-0.255,1.236 -0.29,2.459 -0.012,3.697c0.12,0.478 -0.199,0.983 -0.587,1.138l-1.357,0.541l0.547,1.342l1.362,-0.543c0.021,-0.008 0.041,-0.014 0.062,-0.02c0.457,-0.11 0.914,0.027 1.151,0.434c0.622,1.066 1.524,1.983 2.586,2.649c0.005,0.003 0.01,0.006 0.015,0.009c0.413,0.282 0.536,0.753 0.345,1.201l-0.575,1.351l1.378,0.586l0.575,-1.351c0.19,-0.448 0.616,-0.686 1.105,-0.584c1.244,0.261 2.474,0.302 3.719,0.031c0.476,-0.115 0.982,0.203 1.138,0.587l0.554,1.359l1.346,-0.537l-0.551,-1.352c-0.008,-0.02 -0.015,-0.041 -0.02,-0.062c-0.115,-0.459 0.023,-0.915 0.433,-1.151c1.067,-0.613 1.983,-1.504 2.646,-2.557c0.003,-0.005 0.007,-0.01 0.01,-0.015c0.28,-0.408 0.752,-0.531 1.202,-0.34l1.365,0.581l0.579,-1.361l-1.364,-0.581c-0.451,-0.192 -0.689,-0.617 -0.589,-1.102c0.255,-1.236 0.29,-2.459 0.011,-3.698c-0.119,-0.477 0.2,-0.983 0.588,-1.138l1.357,-0.541l-0.547,-1.342l-1.363,0.544c-0.02,0.008 -0.04,0.014 -0.061,0.019c-0.457,0.111 -0.914,-0.027 -1.151,-0.433c-0.623,-1.066 -1.524,-1.983 -2.586,-2.649c-0.005,-0.003 -0.01,-0.006 -0.015,-0.009c-0.413,-0.282 -0.536,-0.754 -0.346,-1.201l0.575,-1.351l-1.377,-0.587l-0.575,1.352c-0.19,0.447 -0.616,0.686 -1.105,0.583c-1.244,-0.26 -2.475,-0.302 -3.719,-0.031c-0.476,0.116 -0.982,-0.202 -1.139,-0.587l-0.553,-1.358Zm5.866,4.832c-3.1,-1.319 -6.712,0.131 -8.027,3.222c-1.315,3.091 0.144,6.699 3.244,8.018c3.1,1.319 6.711,-0.131 8.027,-3.222c1.315,-3.091 -0.144,-6.699 -3.244,-8.018Zm-4.109,9.655c-2.226,-0.947 -3.275,-3.538 -2.331,-5.758c0.945,-2.219 3.539,-3.26 5.766,-2.312c2.226,0.947 3.275,3.538 2.33,5.757c-0.944,2.22 -3.539,3.26 -5.765,2.313Z" style="fill:#00e0b4;fill-rule:nonzero;"/></g><g id="cta7" serif:id="cta"></g></g><g id="MVP"><g id="cta8" serif:id="cta"></g></g><g id="Audyt"><g id="cta9" serif:id="cta"></g></g><g id="CTA"><g id="cta10" serif:id="cta"></g></g></g><g><g id="cta11" serif:id="cta"></g><g id="Menu"><g id="cta12" serif:id="cta"></g></g><g id="webo"></g></g></g></svg>