<?xml version="1.0" encoding="UTF-8" standalone="no"?>
<!DOCTYPE svg PUBLIC "-//W3C//DTD SVG 1.1//EN" "http://www.w3.org/Graphics/SVG/1.1/DTD/svg11.dtd">
<svg width="100%" height="100%" viewBox="0 0 48 50" version="1.1" xmlns="http://www.w3.org/2000/svg" xmlns:xlink="http://www.w3.org/1999/xlink" xml:space="preserve" xmlns:serif="http://www.serif.com/" style="fill-rule:evenodd;clip-rule:evenodd;stroke-linejoin:round;stroke-miterlimit:2;">
    <g transform="matrix(1,0,0,1,-3655,-4586.24)">
        <g transform="matrix(1.04167,0,0,1.04167,3653.85,4586.24)">
            <path d="M24,10C26.8,10 29,7.8 29,5C29,2.2 26.8,0 24,0C21.2,0 19,2.2 19,5C19,7.8 21.2,10 24,10ZM24,2C25.7,2 27,3.3 27,5C27,6.7 25.7,8 24,8C22.3,8 21,6.7 21,5C21,3.3 22.3,2 24,2Z" style="fill:rgb(0,224,180);fill-rule:nonzero;"/>
            <path d="M39,10C41.5,10 43.5,8 43.5,5.5C43.4,3 41.4,1 39,1C36.5,1 34.5,3 34.5,5.5C34.5,7.9 36.5,10 39,10ZM39,3C40.4,3 41.5,4.1 41.5,5.5C41.4,6.8 40.3,8 39,8C37.6,8 36.5,6.9 36.5,5.5C36.5,4.1 37.6,3 39,3Z" style="fill:rgb(0,224,180);fill-rule:nonzero;"/>
            <path d="M39,11.4C35.7,11.4 32.9,13.4 31.7,16.2C30.1,13.7 27.2,12 24,12C20.8,12 17.9,13.7 16.4,16.3C15.2,13.5 12.4,11.5 9.1,11.5C4.7,11.5 1.1,15.1 1.1,19.5L1.1,28.2C1.1,29.7 2.3,30.9 3.8,30.9C4.1,30.9 4.3,30.9 4.5,30.8L4.5,40.3C4.5,41.8 5.7,43 7.2,43C8,43 8.6,42.8 9,42.4C9.5,42.8 10.1,43 10.7,43C12.2,43 13.4,41.8 13.4,40.3L13.4,19.4C13.4,18.8 13,18.4 12.4,18.4C11.8,18.4 11.4,18.8 11.4,19.4L11.4,40.3C11.4,40.7 11.1,41 10.7,41C10.3,41 10,40.7 10,40.3L10,30.6C10,30 9.6,29.6 9,29.6C8.4,29.6 8,30 8,30.6L8,40.3C8,40.7 7.7,41 7.3,41C6.9,41 6.6,40.7 6.6,40.3L6.6,19.4C6.6,18.8 6.2,18.4 5.6,18.4C5,18.4 4.6,18.8 4.6,19.4L4.6,28.1C4.6,28.5 4.3,28.8 3.9,28.8C3.5,28.8 3.2,28.5 3.2,28.1L3.2,19.4C3.2,16.1 5.9,13.4 9.2,13.4C12.5,13.4 15.2,16.1 15.2,19.4L15.2,31C15.2,32.7 16.5,34 18.2,34C18.6,34 18.9,33.9 19.2,33.8L19.2,45C19.2,46.7 20.5,48 22.2,48C23,48 23.7,47.7 24.2,47.2C24.7,47.7 25.4,48 26.2,48C27.9,48 29.2,46.7 29.2,45L29.2,33.8C29.5,33.9 29.8,34 30.2,34C31.9,34 33.2,32.7 33.2,31L33.2,19.4C33.2,16.1 35.9,13.4 39.2,13.4C42.5,13.4 45.2,16.1 45.2,19.4L45.2,28.1C45.2,28.5 44.9,28.8 44.5,28.8C44.1,28.8 43.8,28.5 43.8,28.1L43.8,19.4C43.8,18.8 43.4,18.4 42.8,18.4C42.2,18.4 41.8,18.8 41.8,19.4L41.8,40.3C41.8,40.7 41.5,41 41.1,41C40.7,41 40,40.7 40,40.3L40,30.6C40,30 39.6,29.6 39,29.6C38.4,29.6 38,30 38,30.6L38,40.3C38,40.7 37.7,41 37.3,41C36.9,41 36.6,40.7 36.6,40.3L36.6,19.4C36.6,18.8 36.2,18.4 35.6,18.4C35,18.4 34.6,18.8 34.6,19.4L34.6,40.3C34.6,41.8 35.8,43 37.3,43C38,43 38.6,42.8 39,42.4C39.5,42.8 40.1,43 40.7,43C42.2,43 43.4,41.8 43.4,40.3L43.4,30.8C43.6,30.9 43.9,30.9 44.1,30.9C45.6,30.9 46.8,29.7 46.8,28.2L46.8,19.5C46.9,15 43.3,11.4 39,11.4ZM31,31C31,31.6 30.6,32 30,32C29.4,32 29,31.6 29,31L29,21C29,20.4 28.6,20 28,20C27.4,20 27,20.4 27,21L27,45C27,45.6 26.6,46 26,46C25.4,46 25,45.6 25,45L25,33.9C25,33.3 24.6,32.9 24,32.9C23.4,32.9 23,33.3 23,33.9L23,45C23,45.6 22.6,46 22,46C21.4,46 21,45.6 21,45L21,21C21,20.4 20.6,20 20,20C19.4,20 19,20.4 19,21L19,31C19,31.6 18.6,32 18,32C17.4,32 17,31.6 17,31L17,21C17,17.1 20.1,14 24,14C27.9,14 31,17.1 31,21L31,31Z" style="fill:rgb(0,224,180);fill-rule:nonzero;"/>
            <path d="M9,10C11.5,10 13.5,8 13.5,5.5C13.5,3 11.5,1 9,1C6.6,1 4.6,3 4.6,5.5C4.6,7.9 6.6,10 9,10ZM9,3C10.4,3 11.5,4.1 11.5,5.5C11.5,6.8 10.4,8 9,8C7.7,8 6.6,6.8 6.6,5.5C6.6,4.1 7.7,3 9,3Z" style="fill:rgb(0,224,180);fill-rule:nonzero;"/>
        </g>
    </g>
</svg>
