<?xml version="1.0" encoding="UTF-8" standalone="no"?><!DOCTYPE svg PUBLIC "-//W3C//DTD SVG 1.1//EN" "http://www.w3.org/Graphics/SVG/1.1/DTD/svg11.dtd"><svg width="100%" height="100%" viewBox="0 0 56 65" version="1.1" xmlns="http://www.w3.org/2000/svg" xmlns:xlink="http://www.w3.org/1999/xlink" xml:space="preserve" xmlns:serif="http://www.serif.com/" style="fill-rule:evenodd;clip-rule:evenodd;stroke-miterlimit:1.5;"><rect id="SG-1920px-2" serif:id="SG 1920px 2" x="-1140.75" y="-1860" width="1920" height="9096.12" style="fill:none;"/><clipPath id="_clip1"><rect x="-1140.75" y="-1860" width="1920" height="9096.12"/></clipPath><g clip-path="url(#_clip1)"><g><g id="cta"></g></g><g><g><g id="Logo"></g></g></g><g><g id="cta1" serif:id="cta"></g></g><g><g id="_1" serif:id="1"><g><g><g id="cta2" serif:id="cta"></g></g></g></g></g><g><g id="cta3" serif:id="cta"></g><g><g id="vue"></g><g><g id="js"></g></g></g></g><g><g><g id="cta4" serif:id="cta"></g></g></g><g><g><path d="M-1136.89,-223.045c20.297,-1.169 37.142,7.825 50.809,22.561c32.826,35.391 47.327,103.905 47.327,144.289c0,73.488 85.38,112.367 161.484,113.287c44.65,0.539 87.809,-31.96 167.989,-30.265c80.181,1.696 104.029,94.506 216.496,108.025c131.672,15.828 263.126,-72.089 393.854,-70.488c130.729,1.601 266.051,92.751 384.67,95.684c112.045,2.77 238.351,-76.154 327.044,-78.088c71.856,-1.567 136.743,44.321 205.114,66.482" style="fill:none;stroke:#4af7d5;stroke-width:1px;"/><path d="M-1147.07,-202.682c20.298,-1.169 37.142,7.825 50.81,22.56c32.826,35.392 47.326,103.905 47.326,144.289c0,73.488 85.381,112.368 161.485,113.287c44.65,0.539 87.808,-31.959 167.989,-30.264c80.181,1.695 104.029,94.505 216.496,108.024c131.672,15.828 263.125,-72.088 393.854,-70.487c130.728,1.601 266.051,92.751 384.67,95.683c112.045,2.77 238.351,-76.153 327.044,-78.088c71.856,-1.567 136.742,44.321 205.114,66.482" style="fill:none;stroke:#4af7d5;stroke-width:1px;"/><path d="M-1157.25,-182.32c20.298,-1.169 37.142,7.825 50.81,22.561c32.826,35.391 47.326,103.905 47.326,144.289c0,73.487 85.38,112.367 161.484,113.286c44.651,0.54 87.809,-31.959 167.99,-30.264c80.181,1.695 104.029,94.505 216.495,108.025c131.672,15.828 263.126,-72.089 393.855,-70.488c130.728,1.601 266.051,92.751 384.67,95.684c112.044,2.77 238.351,-76.154 327.044,-78.088c71.856,-1.567 136.742,44.321 205.114,66.481" style="fill:none;stroke:#4af7d5;stroke-width:1px;"/></g><g><path d="M-1136.89,-223.045c20.297,-1.169 37.142,7.825 50.809,22.561c32.826,35.391 47.327,103.905 47.327,144.289c0,73.488 85.38,112.367 161.484,113.287c44.65,0.539 87.809,-31.96 167.989,-30.265c80.181,1.696 104.029,94.506 216.496,108.025c131.672,15.828 263.126,-72.089 393.854,-70.488c130.729,1.601 266.051,92.751 384.67,95.684c112.045,2.77 238.351,-76.154 327.044,-78.088c71.856,-1.567 136.743,44.321 205.114,66.482" style="fill:none;stroke:#4af7d5;stroke-width:1px;"/><path d="M-1147.07,-202.682c20.298,-1.169 37.142,7.825 50.81,22.56c32.826,35.392 47.326,103.905 47.326,144.289c0,73.488 85.381,112.368 161.485,113.287c44.65,0.539 87.808,-31.959 167.989,-30.264c80.181,1.695 104.029,94.505 216.496,108.024c131.672,15.828 263.125,-72.088 393.854,-70.487c130.728,1.601 266.051,92.751 384.67,95.683c112.045,2.77 238.351,-76.153 327.044,-78.088c71.856,-1.567 136.742,44.321 205.114,66.482" style="fill:none;stroke:#4af7d5;stroke-width:1px;"/><path d="M-1157.25,-182.32c20.298,-1.169 37.142,7.825 50.81,22.561c32.826,35.391 47.326,103.905 47.326,144.289c0,73.487 85.38,112.367 161.484,113.286c44.651,0.54 87.809,-31.959 167.99,-30.264c80.181,1.695 104.029,94.505 216.495,108.025c131.672,15.828 263.126,-72.089 393.855,-70.488c130.728,1.601 266.051,92.751 384.67,95.684c112.044,2.77 238.351,-76.154 327.044,-78.088c71.856,-1.567 136.742,44.321 205.114,66.481" style="fill:none;stroke:#4af7d5;stroke-width:1px;"/></g><g id="Strony-www" serif:id="Strony www"><g id="cta5" serif:id="cta"></g></g><g id="Ecommerce"><g id="cta6" serif:id="cta"></g></g><g id="Aplikacje-internetowe" serif:id="Aplikacje internetowe"><g id="cta7" serif:id="cta"></g></g><g id="MVP"><path d="M33.254,63.705l-24.081,0c-0.438,0 -0.849,-0.254 -1.044,-0.646c-0.066,-0.133 -0.104,-0.276 -0.118,-0.424c0,0.002 -1.242,-14.81 -1.242,-14.81c-0.007,-0.078 -0.072,-0.138 -0.15,-0.138l-2.147,0c-0.644,0 -1.166,-0.522 -1.166,-1.166c0,0 0,-7.138 0,-7.138c0,-0.644 0.522,-1.166 1.166,-1.166l15.371,0c0.083,0 0.15,-0.067 0.15,-0.15l0,-1.861c0,-0.054 -0.029,-0.104 -0.077,-0.131l-5.235,-2.895c-0.033,-0.018 -0.071,-0.023 -0.108,-0.014c-0.723,0.172 -2.085,0.436 -3.683,0.436c-1.678,0 -3.605,-0.292 -5.295,-1.287l-0.061,-0.036c-0.101,-0.06 -0.2,-0.123 -0.305,-0.192c0,0 0,0 0,0c-4.024,-2.678 -4.666,-8.52 -4.691,-8.768c-0.057,-0.555 0.288,-1.072 0.821,-1.234c0.238,-0.072 5.869,-1.735 9.89,0.942c3.265,2.169 4.304,6.405 4.594,8.067c0.008,0.045 0.036,0.084 0.075,0.106l3.853,2.13c0.046,0.026 0.103,0.025 0.148,-0.002c0.046,-0.027 0.074,-0.076 0.074,-0.129l0,-11.427c0,-0.042 -0.017,-0.082 -0.048,-0.11c-1.341,-1.238 -5.066,-5.104 -5.066,-9.846c0,-5.656 5.315,-10.08 5.541,-10.266c0.43,-0.352 1.048,-0.352 1.479,0.001c0.226,0.185 5.54,4.609 5.54,10.265c0,4.742 -3.725,8.608 -5.065,9.846c-0.031,0.028 -0.049,0.068 -0.049,0.11l0,6.84c0,0.054 0.029,0.104 0.076,0.13c0.047,0.027 0.105,0.026 0.151,-0.001l3.314,-1.975c0.039,-0.023 0.065,-0.062 0.072,-0.106c0.389,-2.464 2.015,-10.031 7.66,-13.783c2.642,-1.758 6.308,-2.357 9.791,-2.434c5.217,-0.115 10.024,0.941 10.353,1.015c0.351,0.078 0.646,0.315 0.799,0.64c0.154,0.325 0.149,0.703 -0.014,1.024c-0.2,0.396 -4.985,9.754 -11.43,14.044c-0.183,0.121 -0.353,0.227 -0.533,0.335c-2.8,1.668 -6.01,2.158 -8.812,2.158c-3.081,0 -5.662,-0.59 -6.663,-0.854c-0.039,-0.011 -0.081,-0.005 -0.115,0.016l-4.576,2.726c-0.045,0.027 -0.073,0.076 -0.073,0.129l0,6.391l0.15,0.15l15.371,0c0.645,0 1.166,0.522 1.166,1.166c0,0 0,7.138 0,7.138c0,0.644 -0.521,1.166 -1.166,1.166l-2.038,0l-0.007,0.001c-0.075,0.005 -0.134,0.062 -0.142,0.137l-1.242,14.809c-0.018,0.149 -0.053,0.291 -0.119,0.425c-0.187,0.383 -0.583,0.622 -1.003,0.646l-0.041,0Zm0.076,-16.017l-24.233,0l1.148,13.685l21.937,0l1.148,-13.685Zm3.35,-7.139l-31.042,0l0,4.806l31.042,0l0,-4.806Zm-31.158,-16.708c-0.898,0.006 -1.717,0.11 -2.336,0.22c-0.041,0.007 -0.076,0.03 -0.099,0.064c-0.023,0.035 -0.03,0.077 -0.021,0.116c0.36,1.603 1.282,4.458 3.452,5.903c0.075,0.049 0.148,0.095 0.226,0.141c2.166,1.292 4.998,1.045 6.554,0.765c0.04,-0.007 0.076,-0.031 0.098,-0.065c0.023,-0.034 0.031,-0.076 0.022,-0.116c-0.36,-1.594 -1.277,-4.433 -3.434,-5.883l-0.026,-0.017c-1.322,-0.88 -2.947,-1.131 -4.381,-1.128l-0.055,0Zm38.704,-11.072c2.866,0.01 5.571,0.363 7.254,0.639c0.049,0.008 0.09,0.039 0.111,0.084c0.022,0.044 0.019,0.096 -0.005,0.139c-1.615,2.796 -5.336,8.635 -9.778,11.591c-0.148,0.098 -0.287,0.186 -0.437,0.275c-3.696,2.203 -8.426,1.97 -11.344,1.521c-0.06,-0.009 -0.108,-0.053 -0.123,-0.111c-0.014,-0.059 0.007,-0.12 0.055,-0.157c2.982,-2.251 8.205,-6.02 11.058,-7.06c0.605,-0.22 0.917,-0.889 0.696,-1.495c-0.22,-0.605 -0.889,-0.919 -1.495,-0.696c-2.978,1.085 -7.999,4.643 -11.139,6.993c-0.052,0.038 -0.122,0.04 -0.175,0.004c-0.053,-0.036 -0.077,-0.102 -0.06,-0.164c0.826,-2.975 2.557,-7.195 6.045,-9.513l0.044,-0.028c1.83,-1.201 4.318,-1.75 6.867,-1.94c0.751,-0.056 1.508,-0.081 2.254,-0.082l0.172,0Zm-22.959,-8.623c-0.028,-0.029 -0.066,-0.045 -0.106,-0.044c-0.04,0 -0.079,0.016 -0.107,0.044c-1.35,1.365 -3.843,4.337 -3.843,7.67c0,3.347 2.489,6.309 3.84,7.671c0.028,0.028 0.067,0.044 0.107,0.044c0.04,0 0.078,-0.016 0.106,-0.044c1.351,-1.365 3.843,-4.337 3.843,-7.671c0,-3.346 -2.489,-6.309 -3.84,-7.67Z" style="fill:#00e0b4;"/><g id="cta8" serif:id="cta"></g></g><g id="Audyt"><g id="cta9" serif:id="cta"></g></g><g id="CTA"><g id="cta10" serif:id="cta"></g></g></g><g><g id="cta11" serif:id="cta"></g><g id="Menu"><g id="cta12" serif:id="cta"></g></g><g id="webo"></g></g></g></svg>