<?xml version="1.0" encoding="UTF-8" standalone="no"?>
<!DOCTYPE svg PUBLIC "-//W3C//DTD SVG 1.1//EN" "http://www.w3.org/Graphics/SVG/1.1/DTD/svg11.dtd">
<svg width="100%" height="100%" viewBox="0 0 33 45" version="1.1" xmlns="http://www.w3.org/2000/svg" xmlns:xlink="http://www.w3.org/1999/xlink" xml:space="preserve" xmlns:serif="http://www.serif.com/" style="fill-rule:evenodd;clip-rule:evenodd;stroke-linejoin:round;stroke-miterlimit:2;">
    <g transform="matrix(1,0,0,1,-4045,-1970.59)">
        <g transform="matrix(62.7615,0,0,62.7615,4044.75,2015.15)">
            <path d="M0.222,-0.232C0.222,-0.268 0.23,-0.298 0.247,-0.322C0.263,-0.345 0.287,-0.371 0.318,-0.399C0.342,-0.42 0.36,-0.439 0.372,-0.455C0.383,-0.47 0.389,-0.488 0.389,-0.508C0.389,-0.536 0.378,-0.559 0.355,-0.576C0.332,-0.593 0.302,-0.602 0.264,-0.602C0.192,-0.602 0.138,-0.576 0.101,-0.525L0.004,-0.588C0.033,-0.627 0.07,-0.658 0.115,-0.679C0.16,-0.7 0.214,-0.71 0.275,-0.71C0.35,-0.71 0.409,-0.694 0.454,-0.662C0.498,-0.629 0.52,-0.585 0.52,-0.528C0.52,-0.501 0.516,-0.477 0.506,-0.456C0.498,-0.435 0.487,-0.418 0.474,-0.404C0.461,-0.389 0.445,-0.373 0.424,-0.354C0.399,-0.331 0.38,-0.311 0.368,-0.294C0.355,-0.277 0.349,-0.256 0.349,-0.232L0.222,-0.232ZM0.286,0.007C0.263,0.007 0.244,-0.001 0.229,-0.016C0.214,-0.031 0.206,-0.049 0.206,-0.071C0.206,-0.093 0.214,-0.111 0.229,-0.126C0.244,-0.141 0.263,-0.148 0.286,-0.148C0.309,-0.148 0.328,-0.141 0.343,-0.126C0.358,-0.111 0.365,-0.093 0.365,-0.071C0.365,-0.049 0.358,-0.031 0.343,-0.016C0.328,-0.001 0.309,0.007 0.286,0.007Z" style="fill:rgb(0,224,180);fill-rule:nonzero;"/>
        </g>
    </g>
</svg>
