<?xml version="1.0" encoding="UTF-8" standalone="no"?>
<!DOCTYPE svg PUBLIC "-//W3C//DTD SVG 1.1//EN" "http://www.w3.org/Graphics/SVG/1.1/DTD/svg11.dtd">
<svg width="100%" height="100%" viewBox="0 0 49 48" version="1.1" xmlns="http://www.w3.org/2000/svg" xmlns:xlink="http://www.w3.org/1999/xlink" xml:space="preserve" xmlns:serif="http://www.serif.com/" style="fill-rule:evenodd;clip-rule:evenodd;stroke-linejoin:round;stroke-miterlimit:2;">
    <g transform="matrix(1,0,0,1,-4025,-1550.59)">
        <g transform="matrix(1,0,0,1,4025,1550.59)">
            <path d="M47.4,32.9L46.5,32.5C47.5,29.8 48.1,26.9 48.1,24C48,10.8 37.2,0 24,0C10.8,0 0,10.8 0,24C0,37.2 10.8,48 24,48C26.9,48 29.8,47.5 32.5,46.4L32.9,47.3C33.2,47.9 33.9,47.9 33.9,47.9C34.3,47.8 34.7,47.5 34.8,47.1L36.5,36.5L47.1,34.8C47.5,34.7 47.9,34.4 47.9,33.9C48,33.5 47.8,33.1 47.4,32.9ZM35.5,34.7C35.1,34.8 34.7,35.1 34.7,35.5L33.4,43.4L25.9,25.9L43.4,33.4L35.5,34.7ZM24,10C16.3,10 10,16.3 10,24C10,31.7 16.3,38 24,38C25.6,38 27.1,37.7 28.6,37.2L29.8,40C28,40.7 26,41 24.1,41C14.7,41 7.1,33.4 7.1,24C7.1,14.6 14.6,7 24,7C33.4,7 41,14.6 41,24C41,26 40.7,27.9 40,29.7L37.2,28.5C37.7,27 38,25.5 38,23.9C38,16.3 31.7,10 24,10ZM24,15C19,15 15,19 15,24C15,29 19,33 24,33C24.9,33 25.7,32.9 26.6,32.6L27.8,35.4C26.6,35.8 25.3,36 24,36C17.4,36 12,30.6 12,24C12,17.4 17.4,12 24,12C30.6,12 36,17.4 36,24C36,25.3 35.8,26.6 35.4,27.8L32.6,26.6C32.9,25.8 33,24.9 33,24C33,19 29,15 24,15ZM23.1,24.4L25.8,30.8C25.2,30.9 24.6,31 24,31C20.1,31 17,27.9 17,24C17,20.1 20.1,17 24,17C27.9,17 31,20.1 31,24C31,24.6 30.9,25.2 30.8,25.8L26.9,24.2L24.4,23.1C24.3,23.1 23.8,22.8 23.3,23.3C23,23.6 22.9,24 23.1,24.4ZM44.6,31.7L41.8,30.5C42.6,28.4 43,26.2 43,24C43,13.5 34.5,5 24,5C13.5,5 5,13.5 5,24C5,34.5 13.5,43 24,43C26.3,43 28.4,42.6 30.5,41.8L31.7,44.6C29.2,45.5 26.7,46 24,46C11.9,46 2,36.1 2,24C2,11.9 11.9,2 24,2C36.1,2 46,11.9 46,24C46,26.6 45.5,29.2 44.6,31.7Z" style="fill:rgb(0,224,180);fill-rule:nonzero;"/>
        </g>
    </g>
</svg>
