<?xml version="1.0" encoding="UTF-8" standalone="no"?>
<!DOCTYPE svg PUBLIC "-//W3C//DTD SVG 1.1//EN" "http://www.w3.org/Graphics/SVG/1.1/DTD/svg11.dtd">
<svg width="100%" height="100%" viewBox="0 0 40 48" version="1.1" xmlns="http://www.w3.org/2000/svg" xmlns:xlink="http://www.w3.org/1999/xlink" xml:space="preserve" xmlns:serif="http://www.serif.com/" style="fill-rule:evenodd;clip-rule:evenodd;stroke-linejoin:round;stroke-miterlimit:2;">
    <g transform="matrix(1,0,0,1,-3655,-4913.37)">
        <g transform="matrix(0.507291,0,0,0.507291,3649.48,4911.9)">
            <g transform="matrix(1.99967,0,0,1.99967,-12661.8,-13251.6)">
                <path d="M6356.94,6628.33C6356.96,6628.33 6356.97,6628.33 6356.99,6628.32C6357.08,6628.32 6357.19,6628.39 6357.3,6628.43C6357.41,6628.47 6357.51,6628.51 6357.61,6628.56C6360.5,6629.8 6367.12,6632.84 6371.62,6634.88C6372.66,6635.33 6373.7,6635.78 6374.73,6636.24L6376.27,6636.92C6376.34,6636.94 6376.42,6636.97 6376.49,6637C6376.48,6637.86 6376.48,6638.71 6376.47,6639.57C6376.48,6641.65 6376.5,6643.27 6376.48,6645.34L6376.48,6649.63C6376.46,6651.81 6376.18,6653.97 6375.65,6656.07C6373.97,6663.96 6368.28,6670.9 6360.82,6674.34C6360.31,6674.57 6359.8,6674.79 6359.27,6674.99C6358.64,6675.23 6358,6675.51 6357.36,6675.61C6357.23,6675.63 6357.1,6675.64 6356.96,6675.64L6356.93,6675.64L6356.93,6675.64C6356.79,6675.64 6356.66,6675.63 6356.52,6675.61C6355.89,6675.51 6355.24,6675.23 6354.62,6674.99C6354.09,6674.79 6353.57,6674.57 6353.06,6674.34C6345.6,6670.9 6339.92,6663.96 6338.24,6656.07C6337.71,6653.97 6337.43,6651.81 6337.4,6649.63L6337.4,6645.34C6337.38,6643.27 6337.4,6641.65 6337.41,6639.57C6337.41,6638.71 6337.4,6637.86 6337.4,6637C6337.47,6636.97 6337.54,6636.94 6337.62,6636.92L6339.15,6636.24C6340.19,6635.78 6341.23,6635.33 6342.26,6634.88C6346.77,6632.84 6353.38,6629.8 6356.27,6628.56C6356.38,6628.51 6356.48,6628.47 6356.58,6628.43C6356.69,6628.39 6356.8,6628.32 6356.9,6628.32C6356.91,6628.33 6356.93,6628.33 6356.94,6628.33ZM6356.94,6630.19L6356.91,6630.19C6356.72,6630.2 6356.54,6630.23 6356.36,6630.28C6356.33,6630.29 6356.3,6630.3 6356.27,6630.31C6355.7,6630.55 6355.14,6630.79 6354.58,6631.03C6354.45,6631.09 6354.33,6631.15 6354.2,6631.21C6351.7,6632.35 6349.19,6633.45 6346.67,6634.55C6344.79,6635.4 6342.9,6636.26 6341.02,6637.11C6339.26,6637.89 6339.03,6638.21 6338.95,6639.15C6338.95,6639.42 6338.95,6639.69 6338.95,6639.96L6338.96,6640.67C6338.96,6643.55 6338.96,6646.37 6338.97,6649.25C6338.99,6650.09 6339.03,6650.92 6339.08,6651.75C6339.09,6651.9 6339.1,6652.05 6339.12,6652.2C6339.14,6652.4 6339.16,6652.6 6339.18,6652.78C6339.92,6658.81 6342.99,6664.7 6347.37,6668.83C6349.04,6670.34 6350.86,6671.65 6352.79,6672.55C6354.11,6673.16 6355.57,6673.9 6356.94,6673.94C6358.31,6673.9 6359.77,6673.16 6361.09,6672.55C6363.03,6671.65 6364.82,6670.34 6366.49,6668.83C6370.87,6664.7 6373.97,6658.81 6374.71,6652.78C6374.73,6652.6 6374.75,6652.4 6374.77,6652.2C6374.78,6652.05 6374.79,6651.9 6374.8,6651.75C6374.85,6650.92 6374.89,6650.09 6374.92,6649.25C6374.93,6646.37 6374.93,6643.55 6374.93,6640.67L6374.93,6639.96C6374.93,6639.69 6374.93,6639.42 6374.93,6639.15C6374.86,6638.21 6374.63,6637.89 6372.87,6637.11C6370.98,6636.26 6369.1,6635.4 6367.22,6634.55C6364.7,6633.45 6362.18,6632.35 6359.68,6631.21C6359.56,6631.15 6359.43,6631.09 6359.31,6631.03C6358.75,6630.79 6358.18,6630.55 6357.62,6630.31C6357.59,6630.3 6357.56,6630.29 6357.53,6630.28C6357.35,6630.23 6357.16,6630.2 6356.97,6630.19L6356.94,6630.19Z" style="fill:rgb(0,224,180);fill-rule:nonzero;"/>
            </g>
            <g transform="matrix(1.14808,0,0,1.14808,-7.4158,-7.40424)">
                <path d="M77.62,27.63C68.627,23.63 59.627,19.63 50.62,15.63C50.424,15.547 50.213,15.503 50,15.5L50,50L78.19,50C78.277,48.913 78.323,47.813 78.33,46.7L78.33,28.7C78.384,28.22 78.083,27.767 77.62,27.63Z" style="fill:rgb(0,224,180);fill-rule:nonzero;"/>
            </g>
            <g transform="matrix(1.14808,0,0,1.14808,-7.4158,-7.40424)">
                <path d="M22.19,53.12C23.201,59.448 25.733,65.437 29.57,70.57C34.247,77.122 40.966,81.945 48.67,84.28C49.1,84.418 49.548,84.492 50,84.5L50,50L21.82,50C21.9,51 22,52.09 22.19,53.12Z" style="fill:rgb(0,224,180);fill-rule:nonzero;"/>
            </g>
        </g>
    </g>
</svg>
