<?xml version="1.0" encoding="UTF-8" standalone="no"?>
<!DOCTYPE svg PUBLIC "-//W3C//DTD SVG 1.1//EN" "http://www.w3.org/Graphics/SVG/1.1/DTD/svg11.dtd">
<svg width="100%" height="100%" viewBox="0 0 49 48" version="1.1" xmlns="http://www.w3.org/2000/svg" xmlns:xlink="http://www.w3.org/1999/xlink" xml:space="preserve" xmlns:serif="http://www.serif.com/" style="fill-rule:evenodd;clip-rule:evenodd;stroke-linejoin:round;stroke-miterlimit:2;">
    <g transform="matrix(1,0,0,1,-4134.96,-4588.24)">
        <g transform="matrix(0.980685,0,0,0.980685,-2550.26,-1591.62)">
            <path d="M6825.53,6301.59C6821.06,6301.62 6817.01,6305.48 6816.91,6310.09C6816.88,6317.53 6816.88,6324.97 6816.91,6332.41C6817.01,6336.89 6820.83,6340.9 6825.4,6341.11C6825.4,6341.11 6826.29,6341.12 6826.29,6341.12C6826.31,6345.99 6830.06,6350.39 6835,6350.49C6842.44,6350.53 6849.88,6350.53 6857.32,6350.49C6861.75,6350.4 6865.72,6346.62 6865.81,6341.99C6865.85,6334.56 6865.85,6327.12 6865.81,6319.68C6865.72,6315.15 6861.83,6311.07 6857.1,6310.97L6856.44,6310.97C6856.42,6306.09 6852.67,6301.7 6847.73,6301.59C6840.33,6301.56 6832.93,6301.59 6825.53,6301.59ZM6857.08,6312.99C6860.59,6313.08 6863.7,6316.06 6863.79,6319.7C6863.85,6327.15 6863.91,6334.61 6863.79,6342.05C6863.68,6345.43 6860.69,6348.41 6857.29,6348.47C6849.87,6348.53 6842.45,6348.53 6835.03,6348.47C6831.5,6348.39 6828.37,6345.31 6828.32,6341.76L6828.31,6341.12C6834.85,6341.12 6841.4,6341.15 6847.94,6341.12C6852.43,6341.02 6856.41,6337.13 6856.44,6332.51L6856.44,6312.99C6856.65,6312.99 6856.86,6312.99 6857.08,6312.99ZM6847.7,6303.62C6851.2,6303.67 6854.36,6306.79 6854.41,6310.33L6854.42,6310.97C6847.95,6310.97 6841.47,6310.94 6835,6310.97C6834.89,6310.97 6834.78,6310.98 6834.66,6310.98C6830.21,6311.24 6826.31,6315.18 6826.29,6319.8L6826.29,6339.1C6822.55,6339.07 6819.06,6336.22 6818.94,6332.47C6818.83,6325.06 6818.83,6317.65 6818.94,6310.25C6819.05,6306.8 6822.07,6303.73 6825.57,6303.62C6832.94,6303.51 6840.32,6303.56 6847.7,6303.62ZM6836.26,6339.09L6854.41,6320.94L6854.41,6314.79C6854.33,6314.76 6854.24,6314.72 6854.16,6314.68L6830,6338.84L6830.11,6339.09L6836.26,6339.09ZM6845.63,6339.09L6854.41,6330.31L6854.41,6324.16C6854.33,6324.13 6854.24,6324.09 6854.16,6324.06L6839.38,6338.84L6839.49,6339.09L6845.63,6339.09ZM6854.04,6334.69L6853.47,6335.69C6852.87,6336.7 6852.02,6337.55 6851.01,6338.15L6850.01,6338.72L6849.52,6338.07L6853.39,6334.2C6853.61,6334.36 6853.82,6334.53 6854.04,6334.69ZM6852.73,6313.25L6828.57,6337.4L6828.31,6337.3L6828.31,6331.15L6846.47,6312.99L6852.62,6312.99C6852.65,6313.08 6852.69,6313.17 6852.73,6313.25ZM6843.35,6313.25L6828.57,6328.03L6828.31,6327.92L6828.31,6321.78L6837.1,6312.99L6843.24,6312.99C6843.28,6313.08 6843.31,6313.17 6843.35,6313.25ZM6833.21,6314.01L6829.34,6317.89L6828.69,6317.4L6829.26,6316.4C6829.52,6315.95 6829.56,6315.91 6829.71,6315.71C6830.25,6315 6830.94,6314.4 6831.72,6313.94L6832.72,6313.37C6832.88,6313.58 6833.05,6313.8 6833.21,6314.01Z" style="fill:rgb(0,224,180);"/>
        </g>
    </g>
</svg>
