<?xml version="1.0" encoding="UTF-8" standalone="no"?>
<!DOCTYPE svg PUBLIC "-//W3C//DTD SVG 1.1//EN" "http://www.w3.org/Graphics/SVG/1.1/DTD/svg11.dtd">
<svg width="100%" height="100%" viewBox="0 0 49 48" version="1.1" xmlns="http://www.w3.org/2000/svg" xmlns:xlink="http://www.w3.org/1999/xlink" xml:space="preserve" xmlns:serif="http://www.serif.com/" style="fill-rule:evenodd;clip-rule:evenodd;stroke-linejoin:round;stroke-miterlimit:2;">
    <g transform="matrix(1,0,0,1,-4613,-4588.24)">
        <g transform="matrix(0.989141,0,0,0.989141,-2604.8,-1645.11)">
            <path d="M7330.26,6311.53C7329.71,6311.55 7329.25,6312.02 7329.24,6312.58L7329.24,6315.37C7329.19,6315.96 7329.05,6316.07 7328.49,6316.12C7323.9,6316.12 7319.03,6315.39 7315.55,6317.8C7313.05,6319.53 7311.51,6322.5 7311.48,6325.55L7311.48,6333.13C7311.43,6333.72 7311.28,6333.84 7310.73,6333.88C7309.44,6333.88 7306.91,6333.63 7306.64,6334.67C7306.48,6335.28 7306.98,6335.94 7307.63,6335.97C7307.63,6335.97 7310.85,6335.98 7310.85,6335.98C7311.38,6336.11 7311.44,6336.22 7311.48,6336.72C7311.48,6339.2 7311.22,6341.73 7312.02,6343.99C7313.29,6347.6 7316.92,6350.2 7320.78,6350.29C7325.97,6350.32 7331.16,6350.32 7336.35,6350.29C7341.21,6350.18 7345.56,6345.94 7345.65,6340.99C7345.7,6335.8 7345.7,6330.61 7345.65,6325.42C7345.56,6320.51 7341.18,6316.14 7336.23,6316.12L7332.08,6316.12C7331.49,6316.07 7331.38,6315.92 7331.33,6315.37C7331.33,6314.1 7331.44,6311.51 7330.26,6311.53ZM7336.32,6318.21C7340.09,6318.29 7343.48,6321.53 7343.56,6325.45C7343.6,6330.62 7343.6,6335.79 7343.56,6340.96C7343.48,6344.75 7340.22,6348.11 7336.32,6348.2C7331.15,6348.24 7325.98,6348.24 7320.81,6348.2C7317.01,6348.12 7313.66,6344.85 7313.57,6340.96C7313.53,6335.79 7313.53,6330.62 7313.57,6325.45C7313.65,6321.68 7316.98,6318.29 7320.81,6318.21C7325.98,6318.17 7331.15,6318.17 7336.32,6318.21ZM7298.17,6323.44C7297.65,6323.46 7297.19,6323.9 7297.15,6324.43C7297.08,6327.06 7297.72,6330.71 7299.44,6332.68C7300.26,6333.57 7301.8,6332.31 7300.81,6331.05C7300.74,6330.97 7300.68,6330.89 7300.62,6330.8C7299.53,6329.27 7299.3,6326.38 7299.24,6324.43C7299.21,6323.89 7298.74,6323.43 7298.17,6323.44ZM7298.43,6307.16C7296.74,6307.19 7297.01,6312.58 7297.16,6316.23C7297.21,6317.21 7299.24,6317.69 7299.24,6316.17C7299.24,6313.73 7299.44,6310.16 7299.49,6308.23C7299.49,6307.66 7299.03,6307.16 7298.43,6307.16ZM7321.06,6301.79C7320.03,6301.81 7319.59,6303.75 7320.98,6303.88C7321.71,6303.93 7323.46,6303.87 7324.19,6304C7325.61,6304.25 7326.78,6305.21 7327.99,6305.91C7328.93,6306.41 7330.29,6305.07 7328.8,6303.87C7327.33,6302.7 7325.54,6302.09 7323.64,6301.88C7323.12,6301.82 7321.59,6301.79 7321.06,6301.79ZM7306.58,6301.8C7306.07,6301.8 7305.55,6301.84 7305.05,6301.92C7304.42,6302.03 7303.77,6302.35 7303.73,6302.98C7303.69,6303.62 7304.35,6304.19 7305.01,6304.06C7305.01,6304.06 7306.58,6303.89 7306.58,6303.89C7308.32,6303.89 7311.06,6303.93 7312.8,6303.88C7313.87,6303.81 7314.09,6301.85 7312.77,6301.8C7311.04,6301.77 7308.31,6301.8 7306.58,6301.8Z" style="fill:rgb(0,224,180);fill-rule:nonzero;"/>
        </g>
    </g>
</svg>
