<?xml version="1.0" encoding="UTF-8" standalone="no"?>
<!DOCTYPE svg PUBLIC "-//W3C//DTD SVG 1.1//EN" "http://www.w3.org/Graphics/SVG/1.1/DTD/svg11.dtd">
<svg width="100%" height="100%" viewBox="0 0 48 48" version="1.1" xmlns="http://www.w3.org/2000/svg" xmlns:xlink="http://www.w3.org/1999/xlink" xml:space="preserve" xmlns:serif="http://www.serif.com/" style="fill-rule:evenodd;clip-rule:evenodd;stroke-linejoin:round;stroke-miterlimit:2;">
    <g transform="matrix(1,0,0,1,-3545,-1550.59)">
        <g transform="matrix(1,0,0,1,3545,1550.59)">
            <path d="M47,0L1,0C0.4,0 0,0.4 0,1L0,47C0,47.6 0.4,48 1,48L47,48C47.6,48 48,47.6 48,47L48,1C48,0.4 47.6,0 47,0ZM2,2L46,2L46,8L2,8L2,2ZM2,46L2,10L46,10L46,46L2,46Z" style="fill:rgb(0,224,180);fill-rule:nonzero;"/>
            <path d="M42.4,4L40.1,4C39.5,4 39.1,4.4 39.1,5C39.1,5.6 39.5,6 40.1,6L42.4,6C43,6 43.4,5.6 43.4,5C43.4,4.4 43,4 42.4,4Z" style="fill:rgb(0,224,180);fill-rule:nonzero;"/>
            <path d="M35.9,4L33.6,4C33,4 32.6,4.4 32.6,5C32.6,5.6 33,6 33.6,6L35.9,6C36.5,6 36.9,5.6 36.9,5C36.9,4.4 36.4,4 35.9,4Z" style="fill:rgb(0,224,180);fill-rule:nonzero;"/>
            <path d="M29.3,4L27,4C26.4,4 26,4.4 26,5C26,5.6 26.4,6 27,6L29.3,6C29.9,6 30.3,5.6 30.3,5C30.3,4.4 29.8,4 29.3,4Z" style="fill:rgb(0,224,180);fill-rule:nonzero;"/>
            <path d="M31.1,28.4C33.3,24.1 32.4,18.8 29,15.4C26.9,13.3 24,12.1 21,12.1C17.2,12.1 13.8,13.9 11.6,17.1C9,20.9 9,26 11.7,29.8C13.9,32.9 17.2,34.7 21,34.7C22.8,34.7 24.5,34.3 26,33.5L36.2,43.7C36.9,44.4 37.8,44.7 38.7,44.7C39.7,44.7 40.5,44.3 41.2,43.7C41.9,43 42.2,42.1 42.2,41.2C42.2,40.2 41.8,39.4 41.2,38.7L31.1,28.4ZM39.9,42.2C39.3,42.8 38.3,42.8 37.7,42.2L27,31.5C26.8,31.3 26.6,31.2 26.3,31.2C26.1,31.2 26,31.2 25.8,31.3C24.4,32.1 22.7,32.6 21.1,32.6C18,32.6 15.2,31.1 13.5,28.6C11.3,25.5 11.3,21.3 13.4,18.2C15.2,15.6 18,14.1 21.1,14.1C23.6,14.1 25.9,15.1 27.7,16.8C30.7,19.8 31.3,24.4 29.1,28.1C28.9,28.5 28.9,29 29.3,29.3L39.9,40C40.2,40.3 40.4,40.7 40.4,41.1C40.3,41.5 40.2,41.9 39.9,42.2Z" style="fill:rgb(0,224,180);fill-rule:nonzero;"/>
            <path d="M21,17.2C18.9,17.2 17,18.2 15.8,20C15.5,20.5 15.6,21.1 16.1,21.4C16.3,21.5 16.5,21.6 16.7,21.6C17,21.6 17.3,21.4 17.5,21.2C18.3,20 19.6,19.3 21,19.3C22.1,19.3 23.1,19.7 23.9,20.5C24.3,20.9 24.9,20.9 25.3,20.5C25.7,20.1 25.7,19.5 25.3,19.1C24.2,17.9 22.7,17.2 21,17.2Z" style="fill:rgb(0,224,180);fill-rule:nonzero;"/>
        </g>
    </g>
</svg>
